<svg xmlns="http://www.w3.org/2000/svg" width="362.8" height="378.958" viewBox="0 0 362.8 378.958">
  <g id="グループ_1" data-name="グループ 1" transform="translate(-143 -157.602)">
    <path id="パス_1" data-name="パス 1" d="M292.247,1142.321c-5.139-5.436-15.317-10.535-34.7-4.008-2.182.734-4.285,1.547-6.23,2.381a19.27,19.27,0,0,0,1.032-8.194h-251A131.77,131.77,0,0,0,0,1151.189c0,50.791,29.245,94.6,71.485,114.9a4.426,4.426,0,0,0-.913,2.7v4.861a4.492,4.492,0,0,0,4.484,4.484H173.9a4.492,4.492,0,0,0,4.484-4.484v-4.861a4.426,4.426,0,0,0-.913-2.7,124.23,124.23,0,0,0,31.963-22.122,35.073,35.073,0,0,0,7.619.734c7.7,0,18.967-1.706,35.415-6.448,10.773-3.115,20.634-10.218,28.53-20.555a90.315,90.315,0,0,0,14.92-30.911C300.084,1171.566,301.295,1151.924,292.247,1142.321Zm-10.753,40.514c-4.5,16.507-15.575,35.951-33.153,41.03-11.944,3.452-20.2,4.96-25.773,5.535a127.772,127.772,0,0,0,26.209-70.85c9.206-5.119,26.745-12.1,32.578-5.932C283.974,1155.4,285.839,1166.923,281.494,1182.835Z" transform="translate(197.919 -837.75)" fill="#333"/>
    <path id="パス_2" data-name="パス 2" d="M563.338,0c-1.825,2.755-3.452,5.446-4.96,8.111a88.668,88.668,0,0,0-3.968,7.944,50.871,50.871,0,0,0-2.678,7.776A33.209,33.209,0,0,0,550.7,31.3a23.047,23.047,0,0,0,.932,6.952l.556,1.635c.079.27.238.528.337.8l.337.8a3.522,3.522,0,0,0,.179.4l.218.386.437.772a14.246,14.246,0,0,0,.932,1.519l.5.747c.2.245.4.489.575.721.4.489.694.953,1.19,1.506.932,1.069,1.865,2.137,2.9,3.206s2.1,2.15,3.214,3.232,2.282,2.176,3.472,3.27c4.762,4.39,10.059,8.922,15.059,13.982.615.631,1.25,1.275,1.865,1.931s1.21,1.326,1.805,1.983c1.21,1.339,2.341,2.742,3.413,4.184a37.906,37.906,0,0,1,5.277,9.373,23.3,23.3,0,0,1,1.25,5.176,19.805,19.805,0,0,1-.139,5.3,20.8,20.8,0,0,1-4.7,9.8,33.462,33.462,0,0,1-4.087,4.081,47.243,47.243,0,0,1-4.821,3.5,60.782,60.782,0,0,1-11.19,5.433,94.6,94.6,0,0,0,5.059-8.034,36.209,36.209,0,0,0,1.786-3.9,21.954,21.954,0,0,0,1.052-3.785,14.787,14.787,0,0,0-.357-7,20.251,20.251,0,0,0-3.412-6.309c-3.174-4.094-7.877-8.137-13.075-12.36s-10.872-8.626-16.229-13.557c-1.329-1.236-2.659-2.5-3.928-3.811s-2.52-2.652-3.71-4.056l-.873-1.056-.853-1.069c-.556-.721-1.111-1.442-1.627-2.2-.516-.708-1.032-1.584-1.528-2.395-.258-.412-.5-.824-.734-1.236l-.6-1.275a24.766,24.766,0,0,1-1.865-5.15c-.179-.875-.417-1.738-.516-2.614-.079-.875-.179-1.738-.238-2.614a27,27,0,0,1,1.706-10.12,35.688,35.688,0,0,1,5.1-9.154,52.255,52.255,0,0,1,7.519-8,71.34,71.34,0,0,1,9.365-6.811A69.929,69.929,0,0,1,563.338,0Z" transform="translate(-228.764 157.602)" fill="#333"/>
    <path id="パス_3" data-name="パス 3" d="M359.951,356.9c-1.032,2.317-1.964,4.528-2.8,6.7s-1.567,4.289-2.163,6.368a41.8,41.8,0,0,0-1.29,6.077,28.977,28.977,0,0,0-.218,5.666,19.366,19.366,0,0,0,1.032,5.11c.139.4.317.794.456,1.178a5.54,5.54,0,0,0,.258.569l.258.569.119.278.159.278.317.543a5.55,5.55,0,0,0,.317.543l.357.53.357.53c.119.172.278.344.4.516l.4.516.2.265.258.291c.655.794,1.349,1.589,2.083,2.4,1.468,1.615,3.075,3.27,4.8,4.978,3.432,3.416,7.262,7.017,10.912,11.121.456.516.913,1.033,1.349,1.562.456.53.873,1.072,1.309,1.628.873,1.1,1.686,2.251,2.46,3.429a29,29,0,0,1,3.69,7.718,19.217,19.217,0,0,1,.754,4.25,16.848,16.848,0,0,1-.337,4.342,18.083,18.083,0,0,1-4.047,7.93,27.774,27.774,0,0,1-3.353,3.243,36.386,36.386,0,0,1-3.928,2.727,43.876,43.876,0,0,1-9.087,4.051c1.071-2.317,2.1-4.5,2.857-6.633a29.384,29.384,0,0,0,.893-3.111,17.438,17.438,0,0,0,.357-2.939,12.341,12.341,0,0,0-.932-5.19,18.077,18.077,0,0,0-2.837-4.514,79.549,79.549,0,0,0-9.742-9.188c-3.849-3.243-8.095-6.725-12.083-10.7a62.987,62.987,0,0,1-5.674-6.381c-.873-1.139-1.706-2.317-2.46-3.535l-.278-.463-.278-.5-.556-1.019c-.179-.344-.377-.675-.536-1.033l-.437-1.046-.436-1.046a9.848,9.848,0,0,1-.337-1.059l-.3-1.072-.139-.53-.1-.53c-.119-.715-.278-1.43-.337-2.145-.04-.715-.1-1.43-.119-2.131a22.216,22.216,0,0,1,1.607-8.195,29.024,29.024,0,0,1,4.226-7.321,40.667,40.667,0,0,1,6.111-6.3,52.437,52.437,0,0,1,7.579-5.269A49.907,49.907,0,0,1,359.951,356.9Z" transform="translate(-67.811 -168.21)" fill="#333"/>
    <path id="パス_4" data-name="パス 4" d="M291.165,1899.81H106.055A8.087,8.087,0,0,1,98,1891.755h0a8.087,8.087,0,0,1,8.055-8.055h185.11a8.087,8.087,0,0,1,8.055,8.055h0A8.087,8.087,0,0,1,291.165,1899.81Z" transform="translate(119.362 -1439.91)"/>
    <path id="パス_5" data-name="パス 5" d="M-152.28-22.36a12.4,12.4,0,0,0-2.32-4.96c-2.52-3.32-6.4-5.04-11.4-5.04-4.32,0-7.88,1.28-10.48,3.76-3.24,3.12-4.96,7.68-4.96,13.12,0,5.28,1.6,9.88,4.52,12.88,2.6,2.68,6.48,4.12,11.04,4.12,4.76,0,8.64-1.52,11-4.36,1.44-1.72,2.2-3.4,3-6.6l-6.96-1.12A7.845,7.845,0,0,1-160.08-7a6.864,6.864,0,0,1-5.84,2.72c-5.36,0-8.6-4.24-8.6-11.24,0-3.84,1-6.92,2.84-8.84a7.531,7.531,0,0,1,5.64-2.24,6.365,6.365,0,0,1,5.6,2.64,8.65,8.65,0,0,1,1.32,3.04Zm19.04-10c-9.44,0-15.52,6.6-15.52,16.88,0,10.36,6.08,17.04,15.52,17.04,9.36,0,15.52-6.76,15.52-17.08,0-5.24-1.6-9.72-4.6-12.68C-125.08-31-128.72-32.36-133.24-32.36Zm.04,28.12c-5.36,0-8.72-4.36-8.72-11.32,0-6.76,3.36-11.04,8.68-11.04a7.813,7.813,0,0,1,5.68,2.24c1.92,1.92,2.96,4.96,2.96,8.88C-124.6-8.52-127.88-4.24-133.2-4.24Zm26.8-8.24h8.2a43.277,43.277,0,0,1,5.72.28v-6.28a43.276,43.276,0,0,1-5.72.28h-8.2v-7.6h10.2a42.486,42.486,0,0,1,5.72.28v-6.44a44.356,44.356,0,0,1-5.76.28h-11.64c-2.76,0-3.84-.04-5.44-.12a36.743,36.743,0,0,1,.32,5.48V-5.08a36.415,36.415,0,0,1-.36,5.92h7.28a37.216,37.216,0,0,1-.32-6Zm26.6,0h8.2a43.277,43.277,0,0,1,5.72.28v-6.28a43.276,43.276,0,0,1-5.72.28h-8.2v-7.6h10.2a42.486,42.486,0,0,1,5.72.28v-6.44a44.356,44.356,0,0,1-5.76.28H-81.28c-2.76,0-3.84-.04-5.44-.12a36.743,36.743,0,0,1,.32,5.48V-5.08A36.415,36.415,0,0,1-86.76.84h7.28a37.216,37.216,0,0,1-.32-6Zm43.48,7.24a42.754,42.754,0,0,1-5.52.28H-53.28v-8.12h9.16a42.07,42.07,0,0,1,5.6.28v-6.24a48.067,48.067,0,0,1-5.6.28h-9.12v-7.16h10.92a42.2,42.2,0,0,1,5.56.28v-6.32a50.23,50.23,0,0,1-5.56.28h-12.4c-2.76,0-3.8-.04-5.44-.12a38.148,38.148,0,0,1,.32,5.48V-4.6A34.564,34.564,0,0,1-60.16.96C-58.52.88-57.4.84-54.68.84h12.8a39.492,39.492,0,0,1,5.56.28Zm28.24,0a42.754,42.754,0,0,1-5.52.28H-25.04v-8.12h9.16a42.07,42.07,0,0,1,5.6.28v-6.24a48.067,48.067,0,0,1-5.6.28H-25v-7.16h10.92a42.2,42.2,0,0,1,5.56.28v-6.32a50.23,50.23,0,0,1-5.56.28h-12.4c-2.76,0-3.8-.04-5.44-.12a38.148,38.148,0,0,1,.32,5.48V-4.6A34.564,34.564,0,0,1-31.92.96c1.64-.08,2.76-.12,5.48-.12h12.8a39.492,39.492,0,0,1,5.56.28ZM42.08.84c-2-1.92-2.76-2.64-4.2-4.12l-3-3.08a25.654,25.654,0,0,0,5.2-8.76l-5-2.68a19.2,19.2,0,0,1-3.92,7.68l-5.88-5.96a23.17,23.17,0,0,0,4.16-2.48,7.488,7.488,0,0,0,3.08-6.16,6.792,6.792,0,0,0-1.88-4.92c-1.72-1.8-4.64-2.8-8.12-2.8-6.12,0-10.08,3.04-10.08,7.76a8.544,8.544,0,0,0,2.68,6.08l1.04,1.16a19.386,19.386,0,0,0-4.8,3.28A8.693,8.693,0,0,0,8.68-7.68a8.918,8.918,0,0,0,2.44,6.36C13,.56,15.96,1.56,19.64,1.56a18.391,18.391,0,0,0,6.04-1,16.389,16.389,0,0,0,4.64-2.52A33.6,33.6,0,0,1,32.6.84ZM20.44-21.08a4.337,4.337,0,0,1-1.6-3.24c0-1.92,1.48-3.12,3.88-3.12,2.24,0,3.68,1.16,3.68,3a3.31,3.31,0,0,1-1.64,2.8,24.07,24.07,0,0,1-3.2,1.72ZM26.8-5.92a11.225,11.225,0,0,1-6.56,2.2c-3.04,0-4.96-1.72-4.96-4.4a4.414,4.414,0,0,1,1.4-3.28,12.933,12.933,0,0,1,3-2.08ZM86.76-22.36a12.4,12.4,0,0,0-2.32-4.96c-2.52-3.32-6.4-5.04-11.4-5.04-4.32,0-7.88,1.28-10.48,3.76-3.24,3.12-4.96,7.68-4.96,13.12,0,5.28,1.6,9.88,4.52,12.88C64.72.08,68.6,1.52,73.16,1.52c4.76,0,8.64-1.52,11-4.36,1.44-1.72,2.2-3.4,3-6.6L80.2-10.56A7.845,7.845,0,0,1,78.96-7a6.864,6.864,0,0,1-5.84,2.72c-5.36,0-8.6-4.24-8.6-11.24,0-3.84,1-6.92,2.84-8.84A7.531,7.531,0,0,1,73-26.6a6.365,6.365,0,0,1,5.6,2.64,8.65,8.65,0,0,1,1.32,3.04Zm35,23.2c-.48-1-1.2-2.76-1.96-4.8L111-27.52a27.084,27.084,0,0,1-1.36-4.16h-8.6a30.712,30.712,0,0,1-1.28,4.16L91.04-3.96A37.182,37.182,0,0,1,89,.84h7.92A19.973,19.973,0,0,1,98-3.4l1.36-3.88h12.08L112.8-3.4A28.608,28.608,0,0,1,113.84.84Zm-12-13.76h-8.72l3.76-11.32c.28-.8.32-1,.56-1.84.32,1.08.48,1.48.6,1.84ZM140.4-18.6l8.48-8.76c1.28-1.32,3.24-3.32,4.28-4.32h-9.12a21.961,21.961,0,0,1-3.28,4.16l-9.08,9.6v-8.24a33.959,33.959,0,0,1,.36-5.52H124.8a38.37,38.37,0,0,1,.32,5.52V-4.68A39.463,39.463,0,0,1,124.8.84h7.24a32.471,32.471,0,0,1-.36-5.52v-5.56l4.16-4.16,7.12,10.64A39.446,39.446,0,0,1,145.6.84h8.84a50.284,50.284,0,0,1-4.12-5.48ZM181.36-5.24a42.755,42.755,0,0,1-5.52.28H164.4v-8.12h9.16a42.069,42.069,0,0,1,5.6.28v-6.24a48.066,48.066,0,0,1-5.6.28h-9.12v-7.16h10.92a42.2,42.2,0,0,1,5.56.28v-6.32a50.23,50.23,0,0,1-5.56.28h-12.4c-2.76,0-3.8-.04-5.44-.12a38.147,38.147,0,0,1,.32,5.48V-4.6a34.563,34.563,0,0,1-.32,5.56c1.64-.08,2.76-.12,5.48-.12h12.8a39.492,39.492,0,0,1,5.56.28Z" transform="translate(324.44 535)" fill="#333"/>
  </g>
</svg>
