<svg xmlns="http://www.w3.org/2000/svg" width="1187.669" height="155.559" viewBox="0 0 1187.669 155.559">
  <path id="パス_1" data-name="パス 1" d="M57.909,97.085H.952V80.243l13.627-5.206V9.659L.952,4.607V-12.235H57.909V4.607L44.282,9.659V75.037l13.627,5.206Zm68.287-86.2q13.167,0,21.435,7.426T155.9,41.965V97.085H126.655V50.846q0-8.421-2.45-12.708a8.332,8.332,0,0,0-7.809-4.287q-8.268,0-11.1,6.813t-2.833,19.368V97.085H73.22V12.415H95.267l3.981,11.177h1.072a27.664,27.664,0,0,1,10.488-9.34A33.058,33.058,0,0,1,126.2,10.884ZM217.3,75.5a29.591,29.591,0,0,0,7.2-.842q3.368-.842,6.89-2.067V93.87a73.305,73.305,0,0,1-10.105,3.368,56.019,56.019,0,0,1-13.627,1.378,37.75,37.75,0,0,1-14.545-2.6,19.257,19.257,0,0,1-9.722-8.957q-3.445-6.354-3.445-17.837V34.31H169.678V22.367l13.014-9.187L190.2-4.58h19.139v17h20.823V34.31H209.334V67.229Q209.334,75.5,217.3,75.5Zm67.062-64.612q18.526,0,29.244,9.646t10.718,29.091V62.635h-52.21a15.129,15.129,0,0,0,4.976,10.871q4.67,4.287,13.55,4.287a64.263,64.263,0,0,0,14.545-1.531,66.741,66.741,0,0,0,13.627-4.9V92.338a51.475,51.475,0,0,1-13.4,4.746,91.024,91.024,0,0,1-18.3,1.531,55.191,55.191,0,0,1-22.89-4.517,35.013,35.013,0,0,1-15.847-14.086q-5.818-9.569-5.818-24.727t5.282-25.033a33.614,33.614,0,0,1,14.7-14.622A47.853,47.853,0,0,1,284.357,10.884Zm1.072,19.9A12.185,12.185,0,0,0,276.778,34q-3.445,3.215-4.057,10.258h25.11a15.486,15.486,0,0,0-3.292-9.569Q291.4,30.788,285.429,30.788Zm106.564-19.9a34.721,34.721,0,0,1,5.053.383q2.6.383,3.828.536l-2.6,27.56q-1.531-.306-3.751-.612a48.162,48.162,0,0,0-6.2-.306,32.962,32.962,0,0,0-7.962,1.072,13.553,13.553,0,0,0-7.273,4.67q-2.986,3.6-2.986,11.254V97.085H340.855V12.415H362.6l4.593,13.474h1.378a31.607,31.607,0,0,1,9.876-10.641A23.511,23.511,0,0,1,391.993,10.884Zm35.521-32.612a22.124,22.124,0,0,1,10.947,2.6q4.67,2.6,4.67,10.411,0,7.5-4.67,10.182a21.617,21.617,0,0,1-10.947,2.679,21.1,21.1,0,0,1-10.947-2.679Q412.05-1.211,412.05-8.714q0-7.809,4.517-10.411A21.588,21.588,0,0,1,427.515-21.728ZM442.06,12.415V97.085H412.816V12.415ZM543.265,54.52q0,21.282-11.33,32.689T500.854,98.616a45.011,45.011,0,0,1-21.741-5.129,36.763,36.763,0,0,1-14.928-15q-5.435-9.876-5.435-23.962,0-20.976,11.33-32.306t31.234-11.33a45.113,45.113,0,0,1,21.665,5.053A36.627,36.627,0,0,1,537.83,30.712Q543.265,40.434,543.265,54.52Zm-54.813,0q0,10.871,2.909,16.612t9.8,5.742q6.737,0,9.569-5.742t2.833-16.612q0-10.718-2.833-16.306t-9.722-5.588q-6.737,0-9.646,5.588T488.452,54.52ZM611.093,10.884a34.72,34.72,0,0,1,5.053.383q2.6.383,3.828.536l-2.6,27.56q-1.531-.306-3.751-.612a48.163,48.163,0,0,0-6.2-.306,32.962,32.962,0,0,0-7.962,1.072,13.553,13.553,0,0,0-7.273,4.67q-2.986,3.6-2.986,11.254V97.085H559.954V12.415H581.7l4.593,13.474h1.378a31.607,31.607,0,0,1,9.876-10.641A23.511,23.511,0,0,1,611.093,10.884ZM766.039,40.128q0,18.986-7.12,31.694a45.158,45.158,0,0,1-19.981,18.986q-12.861,6.277-30.316,6.277H673.255V-12.235h37.818q26.335,0,40.65,13.474T766.039,40.128ZM735.417,41.2q0-29.55-24.038-29.55H702.8V72.894h6.584q13.474,0,19.751-7.809T735.417,41.2Zm86.66-30.316q18.526,0,29.244,9.646t10.718,29.091V62.635h-52.21A15.129,15.129,0,0,0,814.8,73.506q4.67,4.287,13.55,4.287A64.264,64.264,0,0,0,842.9,76.262a66.738,66.738,0,0,0,13.627-4.9V92.338a51.473,51.473,0,0,1-13.4,4.746,91.025,91.025,0,0,1-18.3,1.531,55.191,55.191,0,0,1-22.89-4.517A35.013,35.013,0,0,1,786.1,80.013q-5.818-9.569-5.818-24.727t5.282-25.033a33.614,33.614,0,0,1,14.7-14.622A47.853,47.853,0,0,1,822.077,10.884Zm1.072,19.9A12.185,12.185,0,0,0,814.5,34q-3.445,3.215-4.057,10.258h25.11a15.485,15.485,0,0,0-3.292-9.569Q829.12,30.788,823.149,30.788ZM941.5,71.056A28.116,28.116,0,0,1,937.9,85.3q-3.6,6.277-11.483,9.8t-20.746,3.522a117.625,117.625,0,0,1-16.153-1,68.01,68.01,0,0,1-14.469-3.751V70.444a73.788,73.788,0,0,0,16.383,5.282,72.566,72.566,0,0,0,13.014,1.608q9.493,0,9.493-4.287a4.207,4.207,0,0,0-1.531-3.215,21.1,21.1,0,0,0-5.435-3.062q-3.9-1.684-11.1-4.593-10.565-4.287-15.77-10.105T874.9,35.841q0-12.4,9.569-18.679t25.34-6.277a64.866,64.866,0,0,1,15.77,1.837A94.9,94.9,0,0,1,940.89,18.08l-7.962,18.832A75.972,75.972,0,0,0,920.22,32.32a42.916,42.916,0,0,0-10.258-1.684q-7.2,0-7.2,3.522a3.63,3.63,0,0,0,1.3,2.833,20.848,20.848,0,0,0,4.976,2.756q3.675,1.608,10.718,4.364a65.118,65.118,0,0,1,12.172,6.431,21.4,21.4,0,0,1,7.2,8.268A28.021,28.021,0,0,1,941.5,71.056Zm31.081-92.784a22.124,22.124,0,0,1,10.947,2.6q4.67,2.6,4.67,10.411,0,7.5-4.67,10.182a21.617,21.617,0,0,1-10.947,2.679,21.1,21.1,0,0,1-10.947-2.679Q957.12-1.211,957.12-8.714q0-7.809,4.517-10.411A21.588,21.588,0,0,1,972.584-21.728Zm14.545,34.143V97.085H957.885V12.415Zm47.464-1.531q8.88,0,14.316,3.445a29.2,29.2,0,0,1,8.8,8.5h.612l2.144-10.411h25.263V97.238q0,17.914-11.1,27.253t-34.067,9.34a134.378,134.378,0,0,1-18.067-1.072,67.453,67.453,0,0,1-15-3.828V104.587a91.384,91.384,0,0,0,14.545,4.823,75.357,75.357,0,0,0,16.842,1.608q17.607,0,17.608-12.555V96.932a72.684,72.684,0,0,1,.919-10.565h-.919a28.015,28.015,0,0,1-8.344,8.651q-5.282,3.6-14.01,3.6-13.474,0-21.895-11.177t-8.421-32.612q0-21.435,8.574-32.689T1034.593,10.884Zm11.024,22.66q-12.1,0-12.1,21.742,0,11.024,3.062,15.847t9.493,4.823q7.043,0,9.876-4.517t2.833-13.55V54.367q0-9.952-2.679-15.387T1045.617,33.544Zm113.3-22.66q13.167,0,21.435,7.426t8.268,23.655V97.085h-29.244V50.846q0-8.421-2.45-12.708a8.332,8.332,0,0,0-7.809-4.287q-8.268,0-11.1,6.813t-2.833,19.368V97.085h-29.244V12.415h22.048l3.981,11.177h1.072a27.664,27.664,0,0,1,10.488-9.34A33.058,33.058,0,0,1,1158.918,10.884Z" transform="translate(-0.952 21.728)" fill="#1f1f1f"/>
</svg>
