<svg xmlns="http://www.w3.org/2000/svg" width="217.196" height="28.448" viewBox="0 0 217.196 28.448">
  <path id="パス_4" data-name="パス 4" d="M11.368,0H.952V-3.08l2.492-.952V-15.988L.952-16.912v-3.08H11.368v3.08l-2.492.924V-4.032l2.492.952ZM23.856-15.764a5.644,5.644,0,0,1,3.92,1.358,5.545,5.545,0,0,1,1.512,4.326V0H23.94V-8.456a4.787,4.787,0,0,0-.448-2.324,1.524,1.524,0,0,0-1.428-.784,1.989,1.989,0,0,0-2.03,1.246,9.553,9.553,0,0,0-.518,3.542V0H14.168V-15.484H18.2l.728,2.044h.2a5.059,5.059,0,0,1,1.918-1.708A6.046,6.046,0,0,1,23.856-15.764ZM40.516-3.948A5.412,5.412,0,0,0,41.832-4.1q.616-.154,1.26-.378V-.588a13.406,13.406,0,0,1-1.848.616A10.244,10.244,0,0,1,38.752.28,6.9,6.9,0,0,1,36.092-.2a3.522,3.522,0,0,1-1.778-1.638,6.931,6.931,0,0,1-.63-3.262V-11.48H31.808v-2.184l2.38-1.68,1.372-3.248h3.5v3.108h3.808v4H39.06v6.02Q39.06-3.948,40.516-3.948ZM52.78-15.764A7.7,7.7,0,0,1,58.128-14a6.8,6.8,0,0,1,1.96,5.32V-6.3H50.54a2.767,2.767,0,0,0,.91,1.988,3.54,3.54,0,0,0,2.478.784,11.752,11.752,0,0,0,2.66-.28,12.205,12.205,0,0,0,2.492-.9V-.868A9.414,9.414,0,0,1,56.63,0a16.646,16.646,0,0,1-3.346.28A10.093,10.093,0,0,1,49.1-.546a6.4,6.4,0,0,1-2.9-2.576,8.6,8.6,0,0,1-1.064-4.522,9.647,9.647,0,0,1,.966-4.578A6.147,6.147,0,0,1,48.79-14.9,8.751,8.751,0,0,1,52.78-15.764Zm.2,3.64a2.228,2.228,0,0,0-1.582.588,2.812,2.812,0,0,0-.742,1.876h4.592a2.832,2.832,0,0,0-.6-1.75A2.012,2.012,0,0,0,52.976-12.124Zm19.488-3.64a6.35,6.35,0,0,1,.924.07q.476.07.7.1l-.476,5.04q-.28-.056-.686-.112a8.808,8.808,0,0,0-1.134-.056,6.028,6.028,0,0,0-1.456.2,2.479,2.479,0,0,0-1.33.854,3.192,3.192,0,0,0-.546,2.058V0H63.112V-15.484h3.976l.84,2.464h.252a5.78,5.78,0,0,1,1.806-1.946A4.3,4.3,0,0,1,72.464-15.764Zm6.5-5.964a4.046,4.046,0,0,1,2,.476,1.984,1.984,0,0,1,.854,1.9,1.959,1.959,0,0,1-.854,1.862,3.953,3.953,0,0,1-2,.49,3.858,3.858,0,0,1-2-.49,1.982,1.982,0,0,1-.826-1.862,2.009,2.009,0,0,1,.826-1.9A3.948,3.948,0,0,1,78.96-21.728Zm2.66,6.244V0H76.272V-15.484Zm18.508,7.7a8.122,8.122,0,0,1-2.072,5.978A7.651,7.651,0,0,1,92.372.28,8.231,8.231,0,0,1,88.4-.658,6.723,6.723,0,0,1,85.666-3.4a8.97,8.97,0,0,1-.994-4.382,7.993,7.993,0,0,1,2.072-5.908,7.719,7.719,0,0,1,5.712-2.072,8.25,8.25,0,0,1,3.962.924,6.7,6.7,0,0,1,2.716,2.7A8.808,8.808,0,0,1,100.128-7.784Zm-10.024,0a6.9,6.9,0,0,0,.532,3.038A1.852,1.852,0,0,0,92.428-3.7a1.8,1.8,0,0,0,1.75-1.05A7.062,7.062,0,0,0,94.7-7.784a6.784,6.784,0,0,0-.518-2.982A1.83,1.83,0,0,0,92.4-11.788a1.836,1.836,0,0,0-1.764,1.022A6.628,6.628,0,0,0,90.1-7.784Zm22.428-7.98a6.35,6.35,0,0,1,.924.07q.476.07.7.1l-.476,5.04q-.28-.056-.686-.112a8.808,8.808,0,0,0-1.134-.056,6.028,6.028,0,0,0-1.456.2,2.479,2.479,0,0,0-1.33.854,3.192,3.192,0,0,0-.546,2.058V0H103.18V-15.484h3.976L108-13.02h.252a5.78,5.78,0,0,1,1.806-1.946A4.3,4.3,0,0,1,112.532-15.764Zm28.336,5.348a11.728,11.728,0,0,1-1.3,5.8,8.258,8.258,0,0,1-3.654,3.472A12.51,12.51,0,0,1,130.368,0H123.9V-19.992h6.916q4.816,0,7.434,2.464T140.868-10.416Zm-5.6.2q0-5.4-4.4-5.4H129.3v11.2h1.2a4.359,4.359,0,0,0,3.612-1.428A6.9,6.9,0,0,0,135.268-10.22Zm15.848-5.544A7.7,7.7,0,0,1,156.464-14a6.8,6.8,0,0,1,1.96,5.32V-6.3h-9.548a2.767,2.767,0,0,0,.91,1.988,3.54,3.54,0,0,0,2.478.784,11.752,11.752,0,0,0,2.66-.28,12.205,12.205,0,0,0,2.492-.9V-.868a9.413,9.413,0,0,1-2.45.868,16.646,16.646,0,0,1-3.346.28,10.093,10.093,0,0,1-4.186-.826,6.4,6.4,0,0,1-2.9-2.576,8.6,8.6,0,0,1-1.064-4.522,9.647,9.647,0,0,1,.966-4.578,6.147,6.147,0,0,1,2.688-2.674A8.751,8.751,0,0,1,151.116-15.764Zm.2,3.64a2.228,2.228,0,0,0-1.582.588,2.812,2.812,0,0,0-.742,1.876h4.592a2.832,2.832,0,0,0-.6-1.75A2.012,2.012,0,0,0,151.312-12.124ZM172.956-4.76a5.142,5.142,0,0,1-.658,2.6,4.373,4.373,0,0,1-2.1,1.792A9.408,9.408,0,0,1,166.4.28,21.511,21.511,0,0,1,163.45.1,12.437,12.437,0,0,1,160.8-.588V-4.872a13.494,13.494,0,0,0,3,.966,13.271,13.271,0,0,0,2.38.294q1.736,0,1.736-.784a.769.769,0,0,0-.28-.588,3.859,3.859,0,0,0-.994-.56q-.714-.308-2.03-.84a7.7,7.7,0,0,1-2.884-1.848,4.3,4.3,0,0,1-.952-2.968,3.818,3.818,0,0,1,1.75-3.416,8.331,8.331,0,0,1,4.634-1.148,11.862,11.862,0,0,1,2.884.336,17.354,17.354,0,0,1,2.8.98L171.388-11a13.893,13.893,0,0,0-2.324-.84,7.848,7.848,0,0,0-1.876-.308q-1.316,0-1.316.644a.664.664,0,0,0,.238.518,3.813,3.813,0,0,0,.91.5q.672.294,1.96.8a11.909,11.909,0,0,1,2.226,1.176A3.914,3.914,0,0,1,172.522-7,5.124,5.124,0,0,1,172.956-4.76Zm5.684-16.968a4.046,4.046,0,0,1,2,.476,1.984,1.984,0,0,1,.854,1.9,1.959,1.959,0,0,1-.854,1.862,3.953,3.953,0,0,1-2,.49,3.858,3.858,0,0,1-2-.49,1.982,1.982,0,0,1-.826-1.862,2.009,2.009,0,0,1,.826-1.9A3.948,3.948,0,0,1,178.64-21.728Zm2.66,6.244V0h-5.348V-15.484Zm8.68-.28a4.832,4.832,0,0,1,2.618.63,5.339,5.339,0,0,1,1.61,1.554h.112l.392-1.9h4.62V.028a6.147,6.147,0,0,1-2.03,4.984q-2.03,1.708-6.23,1.708a24.574,24.574,0,0,1-3.3-.2,12.335,12.335,0,0,1-2.744-.7V1.372a16.712,16.712,0,0,0,2.66.882,13.781,13.781,0,0,0,3.08.294q3.22,0,3.22-2.3v-.28a13.292,13.292,0,0,1,.168-1.932h-.168a5.123,5.123,0,0,1-1.526,1.582A4.475,4.475,0,0,1,189.9.28a4.789,4.789,0,0,1-4-2.044,9.8,9.8,0,0,1-1.54-5.964,9.732,9.732,0,0,1,1.568-5.978A4.878,4.878,0,0,1,189.98-15.764ZM192-11.62q-2.212,0-2.212,3.976a5.63,5.63,0,0,0,.56,2.9,1.91,1.91,0,0,0,1.736.882,1.962,1.962,0,0,0,1.806-.826,4.736,4.736,0,0,0,.518-2.478v-.644a6.507,6.507,0,0,0-.49-2.814A1.929,1.929,0,0,0,192-11.62Zm20.72-4.144a5.644,5.644,0,0,1,3.92,1.358,5.545,5.545,0,0,1,1.512,4.326V0H212.8V-8.456a4.787,4.787,0,0,0-.448-2.324,1.524,1.524,0,0,0-1.428-.784,1.989,1.989,0,0,0-2.03,1.246,9.553,9.553,0,0,0-.518,3.542V0h-5.348V-15.484h4.032l.728,2.044h.2a5.059,5.059,0,0,1,1.918-1.708A6.046,6.046,0,0,1,212.716-15.764Z" transform="translate(-0.952 21.728)" fill="#fff"/>
</svg>
