<svg xmlns="http://www.w3.org/2000/svg" width="377.131" height="331.79" viewBox="0 0 377.131 331.79">
  <g id="グループ_2" data-name="グループ 2" transform="translate(-819.5 -660.822)">
    <path id="パス_3" data-name="パス 3" d="M91.726,177.678q-48.739,0-68.358-34.135T3.75,46.241q0-63.167,19.619-97.478T91.726-85.547q48.739,0,68.445,34.311Q179.7-16.925,179.7,46.241t-19.619,97.3Q140.465,177.678,91.726,177.678Zm29.384-64.223q6.862-23.226,6.862-67.214,0-46.1-6.95-68.27T91.726-44.2q-22.346,0-29.56,22.17t-7.214,68.27q0,43.988,7.214,67.3t29.56,23.314Q114.072,136.857,121.11,113.455ZM318.177-31.881Q309.2-42.614,292.488-42.614q-22.874,0-31.144,17.067-4.751,9.853-5.63,31.32H206.975q1.232-32.551,11.789-52.61,20.059-38.182,71.261-38.182,40.469,0,64.4,22.434T378.353-3.2a80.393,80.393,0,0,1-16.891,50.322q-11.085,14.6-36.422,32.551L304.981,93.925Q286.154,107.3,279.2,113.279a56.72,56.72,0,0,0-11.7,13.9H378.881v44.164H204.16q.7-27.449,11.789-50.146,10.733-25.513,50.674-54.017,34.663-24.809,44.868-35.542,15.66-16.715,15.66-36.6Q327.151-21.148,318.177-31.881Z" transform="translate(816.75 813.934)" fill="none" stroke="#067bf0" stroke-width="2"/>
    <path id="パス_4" data-name="パス 4" d="M26.391-43.184v5.558H17V-11.8H10.4V-37.626H.967v-5.558ZM45.874-32.069a13.544,13.544,0,0,1,2.938,8.709,13.454,13.454,0,0,1-2.938,8.741q-2.938,3.63-8.922,3.63t-8.922-3.63a13.454,13.454,0,0,1-2.938-8.741,13.544,13.544,0,0,1,2.938-8.709q2.938-3.684,8.922-3.684T45.874-32.069Zm-8.943,1.448a4.849,4.849,0,0,0-4.1,1.884,8.719,8.719,0,0,0-1.437,5.377,8.768,8.768,0,0,0,1.437,5.387,4.839,4.839,0,0,0,4.1,1.9,4.81,4.81,0,0,0,4.088-1.9,8.816,8.816,0,0,0,1.427-5.387,8.768,8.768,0,0,0-1.427-5.377A4.82,4.82,0,0,0,36.931-30.621ZM68.04-15.077q-.085.106-.426.639a4.275,4.275,0,0,1-.809.937,8.451,8.451,0,0,1-2.757,1.746,9.4,9.4,0,0,1-3.119.468q-5.153,0-6.942-3.705a14.177,14.177,0,0,1-1-6.026v-13.99H59.2v13.99a7.323,7.323,0,0,0,.468,2.981,3.242,3.242,0,0,0,3.258,1.767,4.259,4.259,0,0,0,4.259-2.513,9.1,9.1,0,0,0,.6-3.6V-35.007h6.154V-11.8h-5.9Zm23.422-14.33q-3.662,0-4.919,2.385a9.277,9.277,0,0,0-.7,4.131V-11.8H79.73V-35.007h5.792v4.046a12.831,12.831,0,0,1,2.449-3.173A6.666,6.666,0,0,1,92.4-35.561q.17,0,.287.011t.522.032V-29.3q-.575-.064-1.022-.085T91.463-29.407Z" transform="translate(819.033 704.006)" fill="#067bf0"/>
  </g>
</svg>
