<?xml version="1.0" encoding="utf-8"?>
<!-- Generator: Adobe Illustrator 28.2.0, SVG Export Plug-In . SVG Version: 6.00 Build 0)  -->
<svg version="1.1" id="レイヤー_1" xmlns="http://www.w3.org/2000/svg" xmlns:xlink="http://www.w3.org/1999/xlink" x="0px"
	 y="0px" viewBox="0 0 2663.2 939.7" style="enable-background:new 0 0 2663.2 939.7;" xml:space="preserve">
<style type="text/css">
	.st0{fill:#79B964;}
	.st1{fill:#FFFFFF;}
	.st2{fill:none;stroke:#707070;}
	.st3{opacity:0.4;}
	.st4{fill:none;stroke:#00A5EA;stroke-linecap:round;stroke-linejoin:round;}
	.st5{fill:#FFA700;}
	.st6{fill:#FFCC00;}
	.st7{fill:#1A75BC;}
	.st8{fill:#27AAE1;}
	.st9{clip-path:url(#SVGID_00000111884189038679120030000001444369584969601943_);}
	.st10{fill:#C87700;}
	.st11{fill:#985A00;}
	.st12{fill:#959427;}
	.st13{fill:#B2AE35;}
	.st14{clip-path:url(#SVGID_00000154391150622075600600000009560732860779892864_);}
	.st15{clip-path:url(#SVGID_00000022524816111976299260000003276160395898275719_);}
	.st16{fill:#90C9CC;}
	.st17{fill:#F7C22E;}
	.st18{fill:#BEBCBC;}
	.st19{fill:#ECE7E7;}
	.st20{fill:#02777D;}
	.st21{fill:#EAEEEE;}
	.st22{clip-path:url(#SVGID_00000085230720233714967450000010857009429615750548_);}
	.st23{fill:#999428;}
	.st24{fill:#D23F00;}
	.st25{clip-path:url(#SVGID_00000152948210840979615000000015253833714639474107_);}
	.st26{clip-path:url(#SVGID_00000030467288382023967360000013711355359172168874_);}
	.st27{fill:#EA5A00;}
	.st28{fill:#8DAFB0;}
</style>
<path id="パス_235" class="st0" d="M2569.4,526.8c1.6,8.7,2.7,17.8-2.2,24.9c-2.7,4.3-7.6,6.5-11.3,9.7
	c-9.7,7.6-15.7,19.5-24.3,28.1c-8.6,9.6-20.7,15.4-33.5,16.2c-12.4,0.5-25.9-4.9-33-15.7c-2.7-3.8-4.3-8.7-8.1-11.9
	c-3.8-3.2-9.2-3.8-14.1-4.3c-11.8-1.9-23.8-2.4-35.7-1.6c-12,0.8-23.4,5.6-32.4,13.5c-4.9,4.9-8.7,10.8-15.1,13.5
	c-8.7,3.8-18.9-1.1-28.1,2.2c-8.1,3.2-13,11.9-20,17.3c-14.6,10.8-34.6,3.2-52.4,6.5c-7,1.1-14.6,5.4-15.7,12.4
	c-0.5,2.2,0,4.3-0.5,6.5c-1.6,5.9-9.2,8.7-15.1,9.2c-6.5,1.1-13.5,1.6-16.8,7.6c-1,2.1-1.7,4.2-2.2,6.5c-2.5,5.7-8.5,9-14.6,8.1
	c2.7,11.9-7.6,30.3-19.5,26.5c-9.2-2.7-18.4-5.4-27.6-8.7c-4.7,3.3-11.2,2.6-15.1-1.6c-1.6-1.6-2.7-4.3-4.9-5.4
	c-5.9-4.3-15.7,1.6-22.2-2.2c-3.2-1.6-4.9-5.4-5.9-8.7c-3.2-8.1-6.5-15.7-9.7-23.8c-1.6-3.6-2.7-7.4-3.2-11.3
	c-1.1-8.1,1.6-15.7,3.2-23.2c3.3-14.5,2.7-29.6-1.6-43.8c4.9-1.1,10.3-2.2,14.6-5.4c1.6-1.6,2.2-5.9,3.2-14.1
	c1.6-8.7,1.1-10.3,0.5-11.9c-2.2-4.9-7-6.5-6.5-7.6c0.5-1.1,7.6-1.1,32.4,4.9c0.5-7.8-0.4-15.7-2.7-23.2c-1.6-5.4-3.8-13.5-8.1-14.1
	c-1.6,0-3.2,0.5-4.3,1.6c-3.8,3.2-7.6,6.5-11.3,9.2c-8.1-2.7-9.2-14.1-5.4-21.1c3.8-7.6,10.8-12.4,15.7-19.5
	c4.9-6.5,7-16.8,1.6-22.7c-6.5-6.5-16.8-3.2-25.9-1.1c-26.5,6.5-55.1,0.5-82.2,3.8c-10.2,1.3-20.4,3.5-30.3,6.5
	c-33,9.7-65.9,20-98.4,29.7c-15.7,4.9-31.9,9.7-48.1,9.2c-16.2-0.5-33.5-6.5-43.2-20c-5.9-8.1-9.2-18.9-18.4-22.2
	c-3.8-1.6-8.1-1.1-12.4-1.1c-47,2.7-94,3.2-140.5,2.2c-5.9,0-11.9-0.5-16.2-4.3c-2.2-2.2-3.8-5.4-6.5-7c-3.8-2.7-9.2-2.7-13.5-2.7
	c-28.5,1.1-57.1,0-85.4-3.2c-12.4-1.1-25.9-3.8-33.5-13.5c-9.7-13.5-3.8-33-10.8-48.1c-9.7-18.9-35.7-21.1-56.7-16.8
	c-21.1,4.3-43.2,11.3-62.2,2.2c-5.9-2.7-11.3-7.6-17.8-9.7c-17.3-5.9-39.5,5.4-53.5,17.8c-18.4,1.1-37.3,2.7-55.1-2.7
	c-10.8-3.2-21.1-8.7-31.3-13c-19.5-7.6-41.6-10.8-62.2-5.9c-43.8,10.3-75.1,51.9-118.9,60.5c-21.1,4.3-43.2,0-64.3,2.7
	c-13,1.6-25.9,5.9-38.4,10.3c-10.3,3.2-18.4,8.7-29.2,8.7c-32.4-1.1-65.4-1.6-97.8-2.7c-15.1-0.5-30.8-1.1-43.2-9.7
	c-12.4-8.6-17.8-28.1-7-38.9c3.2-3.2,8.1-5.9,8.1-10.8c0-3.8-3.8-5.9-5.9-8.7c-10.8-11.9-3.8-30.3-5.4-45.9
	c-0.3-3.7-1.6-7.2-3.8-10.3c-5.9-7-17.3-5.4-25.4-0.5c-8.1,4.9-14.1,11.9-22.7,15.7c-14.1,5.9-29.7,0-42.7-7.6
	c-13-7.6-24.9-17.8-39.5-21.6c-9.7-2.7-20-2.2-29.2-7c-8.7-4.3-15.1-17.3-8.1-24.9c3.8-3.8,9.2-4.9,14.6-4.9
	c14.6,0,28.6,6.5,42.7,9.2c14.1,2.7,31.3,1.6,40.5-9.7c8.1-9.7,7.6-23.8,6.5-36.2c-0.5-11.3-1.6-22.2-2.2-33.5
	c-0.5-4.9-0.5-9.7-3.8-13.5c-2.9-3.2-6.7-5.7-10.8-7c-14.6-6.5-30.3-13.5-46.5-14.1c-16.2-0.5-33.5,6.5-40.5,21.1
	c-2.2,4.9-3.2,10.8-4.9,15.7c-8.7,30.6-31.7,55.2-61.6,65.9c-5.6,2.4-11.7,3.5-17.8,3.2c-10.8-0.5-20-7.6-29.2-12.4
	c-19.8-10.3-42.2-14.5-64.3-11.9c-11.3,1.6-22.7,4.3-34,3.8c-11.3-1.1-23.8-7-27-17.8c-19.5,8.7-45.4-5.4-48.6-26.5
	c-2.7-16.8,7-33,8.7-49.7c-8.1,1.1-15.7-6.5-17.8-14.6c-2.2-8.1,0-16.8,1.1-24.9c2.7-20.5,1.1-45.9-16.2-58.4
	C212,55,197.4,69.9,185.4,86.9c-2.5,2.7-4,6.1-4.3,9.7c-0.5,7,5.9,11.9,9.7,17.3c7.6,11.3,4.3,25.9,4.3,40
	c0.5,32.4,22.2,67.6,4.3,94.6c-10.3,15.1-30.3,21.1-48.1,17.8c-17.8-3.2-33-15.1-44.9-28.6c-5.4-6.5-10.3-13-13-21.1
	c-4.3-13.5-0.5-28.1,1.1-42.2c1.6-14.1,1.1-30.3-9.7-39.5c-23.2,20-20,56.7-15.1,87c-5.5,1.2-11.1,2.1-16.8,2.7l-2.7,0.5
	c0,1.1-0.5,3.2-0.5,4.3c2.2,9.7-3.8,21.1,1.1,30.3c2.2,4.3,6.5,7,9.7,10.3c3.2,3.8,4.9,9.7,1.6,13c-1.1,1.1-2.7,1.6-3.2,3.2
	c-2.2,3.2,0.5,7.6-0.5,11.3s-4.9,5.9-8.1,7.6c-3.2,2.2-6.5,5.4-5.9,9.2c1.1,3.2,4.3,4.9,7,7c3.1,3.6,4.6,8.2,4.3,13
	c-0.2,11.3-5.1,22.1-13.5,29.7c-5.9,5.4-14.1,9.7-17.3,17.3c-1.9,4.8-2.5,10-1.6,15.1c0.5,15.7,0,33.5,0.5,49.2
	c3.9,5.9,5.7,13,4.9,20c-0.5,2.2-2.2,13-10.3,18.9c-3.8,2.7-6.5,2.7-12.4,7c-3.8,3.2-6,5.4-6,8.1c-0.2,1.7,0.2,3.4,1.1,4.9
	c9.2,16.2,34,22.7,34.6,41.1c9.7,0.5,18.9,1.1,28.6,1.6c-3.8,6.5,1.1,16.8,8.7,17.3c-4.9,1.6-4.9,9.2-0.5,12.4
	c3.8,3.2,9.7,3.2,14.6,2.7c20.5-1.1,41.6-2.2,62.2-3.2c-1.1,2.8-1.1,5.9,0,8.7c6,2.9,13.2,2,18.4-2.2c2.5-2.5,5.2-4.6,8.1-6.5
	c2.8-0.9,5.7-1.3,8.7-1.1c11.9,0.5,23.8,1.1,36.2,1.6c4.5-0.2,8.9,0.7,13,2.7c2.7,1.6,4.9,4.9,8.1,5.9c7.6,3.2,15.1-5.4,23.2-7
	c3.2-0.5,6.5-0.5,9.2-2.7c2.2-1.6,2.7-4.3,3.8-6.5c4.9-9.7,19.5-10.3,29.7-5.9s20,11.3,30.8,11.3c7.6,0,15.7-2.7,21.1,1.6
	c2.2,1.6,3.2,4.3,5.9,5.9c2.7,2.2,7,1.6,10.3,1.6l60-4.9c6.5-0.5,13.5-1.1,19.5,2.2c6.5,3.8,10.8,11.9,18.4,10.8
	c-3.8,7.6,2.2,17.8,10.3,18.4c1.9-0.2,3.8,0.2,5.4,1.1c3.2,2.2,2.7,7,1.6,11.3c11.4,4.3,23.6,6,35.7,4.9c4.3-0.5,8.7-1.6,10.8-4.9
	c2.2-3.8,1.6-9.2,5.4-11.9c2.2-0.9,4.6-1.3,7-1.1c18.4,1.1,35.1,4.3,53,5.4c2.7,6.5,10.8,11.9,17.3,8.1c3.8-2.2,5.9-6.5,9.2-9.7
	c6.3-5.2,15.6-4.4,20.8,1.8c0.1,0.1,0.2,0.2,0.3,0.3c0.8,1.7,1.9,3.1,3.2,4.3c2.7,2.2,6.5,1.6,10.3,2.2c3.8,0,7.6,2.7,7.6,5.9
	c-0.1,1.1-0.5,2.3-1.1,3.2c-0.5,2.7,2.2,4.9,4.9,5.4c2.7,0.3,5.4,0.3,8.1,0c13.5-0.5,25.4,10.3,38.9,9.7
	c15.7-1.1,28.1-17.3,43.8-16.2c9.7,1.1,18.4,8.7,28.1,8.1c5.8-0.1,11.1-3.2,14.1-8.1c0.9-2.3,2.4-4.3,4.3-5.9c1.8-1,4-1.2,5.9-0.5
	c7,0.5,15.1,1.6,17.8,8.1c1.6,3.2,1.1,7.6,2.7,10.3c2.7,4.9,9.2,4.9,14.6,6.5s10.3,7.6,7,11.9c11.9,2.7,23.8,4.9,36.2,7.6
	c-3.8,3.2-1.1,10.3,3.2,12.4c4.9,2.2,10.3,1.1,15.1,0.5c13.8-1.5,27.8,0,41.1,4.3c4.9,1.6,9.7,3.8,12.4,7.6
	c1.9,3.4,3.6,7.1,4.9,10.8c4.3,9.4,13.5,15.5,23.8,15.7c-2.8,7.6,0.8,16.1,8.1,19.5c2.7-0.5,4.9-0.5,7.6-1.1
	c-3.3-3.8-2.9-9.5,0.9-12.8c3.8-3.3,9.5-2.9,12.8,0.9c1,1.1,1.6,2.4,2,3.8c0.5,1.1,0.5,2.7,1.1,3.8c1.1,1.1,2.7,1.1,4.3,1.6
	c30.5,1,61,0.1,91.3-2.7c4.9-0.5,10.8-0.5,13.5,3.8c0.8,1.8,1.5,3.6,2.2,5.4c2.2,5,7.9,7.4,13,5.4c0,9.7,11.3,17.8,21.1,15.1
	c-7,9.2-3.2,22.2,1.1,32.4s10.3,21.6,7,32.4c-2.2,7-7.6,12.4-11.9,18.4c-4.3,5.9-8.1,14.1-4.9,20.5c3.2,7.6,13,11.3,15.7,19.5
	c3.8,13-13.5,27-5.9,38.4c14.6,3.8,30.3,4.3,45.4,5.4c4.3,0,9.2,0.5,13-2.2c3.8-2.2,5.4-8.1,2.2-11.3c6,0.4,12.1-0.4,17.8-2.2
	c-3.2-3.2-3.2-9.7,0.5-12.4c4.2-2.5,9.6-1.3,12.4,2.7c1.1,2.2,1.1,4.9,2.2,7c2.2,4.9,7.6,7,12.4,7c4.9,0.5,10.3-0.5,15.1-0.5
	c4.9,0.5,11.3,4.3,9.2,9.2c18,1.5,36,1.7,54,0.5c2.7,0,5.9-0.5,7-3.2c0.5-1.6,0-3.8,0.5-5.9c0.5-4.3,5.9-6.5,10.8-7
	c16.2-2.7,36.8-4.3,45.9,9.2c2.7,3.8,5.4,8.7,9.7,7c2.2-0.5,3.2-2.7,4.3-4.9c7-10.8,25.9-12.4,34.6-3.8c14.1,0,28.6,0.5,42.7,0.5
	c4.3,0,8.7,0,11.9-2.7c4.3-3.2,5.4-9.7,8.1-14.6c6.5-10.8,22.2-10.3,34.6-9.2c3.8,0.5,7.6,1.1,9.7,3.2c2.2,1.6,3.2,4.3,4.9,5.9
	c3.2,3.2,8.1,3.8,13,3.8c21.1-1.1,38.4-19.5,59.5-18.4c3.8,0,8.7,0.5,10.8-2.7c2.7-3.8-0.5-8.7,0-13c1.1-4.9,6.5-7,11.9-7
	c4.9,0,9.7,2.2,14.6,2.2c12.4,0,22.2-11.3,34-12.4c5.4-0.5,10.8,1.1,16.2-0.5c4.9-1.6,8.7-9.2,4.3-12.4c20.5,0.5,41.1,1.1,61.6,2.2
	c4.9,0,10.3,0.5,13.5,3.8c2.2,2.2,2.7,4.9,4.9,7c3.2,3.2,8.1,3.2,13,3.2c18.4-0.5,37.3-0.5,55.7-1.1c6.5,0,14.1-1.1,16.2-7
	c1.1-2.7,0.5-5.4,2.2-7.6c1.7-1.8,4-3,6.5-3.2c16.8-3.2,36.2,1.6,49.2-9.2c1.9-1.9,4.1-3.6,6.5-4.9c2.6-0.9,5.4-1.3,8.1-1.1
	c17.8,0.5,35.7-1.6,53.5,0.5c13.5,2.2,24.9-17.8,37.8-13c3.2,1.5,6.1,3.5,8.7,5.9c14.1,9.7,33.5,3.8,50.8,4.3
	c3.6-0.3,7.2,0.7,10.3,2.7c2,1.3,3.9,3,5.4,4.9c7.6,7,18.4,9.2,28.1,8.7c10.2-1.4,20-4.5,29.2-9.2c16.6-7.6,32.5-16.7,47.6-27
	c7.6-5.4,16.8-11.3,25.4-8.7c7,2.2,11.3,8.7,17.3,13c5.4,4.9,15.1,6.5,19.5,0.5c2.7-4.3,1.1-9.7,4.3-14.1c3.1-3.2,7.9-4,11.9-2.2
	c3.8,2,7.2,4.6,10.3,7.6c8.1,8.1,17.3,15.1,28.1,18.4c10.8,3.2,23.2,2.7,32.4-4.3c2.2-1.6,4.3-4.3,7-5.4c8.7-5.4,20.5,0,27.6,7
	c7.6,7,13.5,15.7,23.2,20c9.2,4.3,23.2-0.5,23.8-10.8c7.3,2,15.1-0.8,19.5-7c8.7,0,17.3,0.5,25.4,0.5c1.5,0.1,2.9-0.1,4.3-0.5
	c3.8-2.2,2.7-7.6,4.9-11.3c1.5-1.7,3.3-3,5.4-3.8c6.1-3.3,12.4-6,18.9-8.1c6.5-2.3,11.9-6.9,15.1-13c3.2-6.5,4.3-14.6,10.3-17.8
	c1.9-0.9,3.7-2,5.4-3.2c2.7-4.3-2.2-10.8,1.1-14.6c2.2-2.2,5.9-1.6,8.1-3.8c3.2-3.8-3.2-10.3-0.5-14.6c2.2-3.8,8.1-1.6,11.9-3.8
	c4.3-2.2,4.9-7.6,4.3-12.4c-0.5-4.9-1.1-9.7,1.6-13.5c2.2-3.2,6.5-3.8,9.2-7c3.2-3.8,2.7-9.7,1.1-14.1c-1.6-4.3-4.9-8.7-6.5-13.5
	c-3.8-12.4,4.3-26.5,16.2-31.9c3.8-2.2,8.7-3.2,11.9-6.5c3.2-3.2,3.8-9.2,0-11.9c-1.3-0.7-2.8-1-4.3-1.1
	c-16.2-3.2-26.5-18.9-35.1-33.5c-1-1.4-1.6-3.1-1.6-4.9c0.4-1.4,1.4-2.6,2.7-3.2c7.6-5.9,14.6-16.2,10.8-24.9
	c-2.7-5.9-9.7-9.2-11.3-15.7c-1.6-4.9,0.5-10.3,4.3-14.1c3.2-3.8,8.1-6.5,12.4-9.2c6.6-4.3,12.7-9.1,18.4-14.6
	c4.1-3.8,7.4-8.4,9.7-13.5c1.6-5.4,1.1-11.9-3.2-15.1c-3.8-3.2-8.7-3.2-13.5-1.6c-4.4,1.8-8.1,4.8-10.8,8.7
	c-6.5,7.6-10.8,16.8-16.8,24.9c-5.9,8.1-14.1,15.1-24.3,16.2c-4.3,0.5-9.2-0.5-13.5,0c-4.3,1.1-8.7,4.9-7.6,9.2"/>
<g id="楕円形_35" transform="translate(470 182.427)">
	<circle class="st1" cx="606.4" cy="255.7" r="33.3"/>
	<circle class="st2" cx="606.4" cy="255.7" r="32.2"/>
</g>
<g id="楕円形_34" transform="translate(313 249.427)">
	<circle class="st1" cx="415" cy="337.4" r="33.3"/>
	<circle class="st2" cx="415" cy="337.4" r="32.2"/>
</g>
<g id="楕円形_32" transform="translate(946 323.427)">
	<circle class="st1" cx="1186.8" cy="427.6" r="33.3"/>
	<circle class="st2" cx="1186.8" cy="427.6" r="32.2"/>
</g>
<g id="楕円形_33" transform="translate(629 362.427)">
	<circle class="st1" cx="800.3" cy="475.2" r="33.3"/>
	<circle class="st2" cx="800.3" cy="475.2" r="32.2"/>
</g>
<g id="楕円形_36" transform="translate(77.5 128.427)">
	<circle class="st1" cx="127.8" cy="189.9" r="33.3"/>
	<circle class="st2" cx="127.8" cy="189.9" r="32.2"/>
</g>
<g id="_67261588_更新済み_" transform="translate(664.75 42.421)" class="st3">
	<g id="グループ_21" transform="translate(0.5 0.5)">
		<path id="パス_92" class="st4" d="M977.2,174.3l49.5-28.6l-48.4,28.9l48.2-27.9l-46.9,28.3l46.6-26.9L981,175.5l44.7-25.9
			l-43.1,26.2l42.7-24.7l-41.2,25l40.6-23.5l-39,23.6l38.5-22.2L987,176.3l36.7-21.1l-34.4,21.3l33.4-19.3l-31,19.2l29.7-17.2
			l-28.1,17l27.3-15.8L995.2,176l23.9-13.8l-21.4,13.4l19.8-11.5l-17.1,10.7l15.2-8.7l-10.1,6.8l5.6-3.3"/>
		<path id="パス_93" class="st4" d="M928.5,175.5l94.4-54.5l-94,55l94.3-54.4l-93.5,55.2l94-54.3l-93.3,55l93.7-54.1l-93.3,54.6
			l93.6-54.1l-93,54.5l93.3-53.9L931.9,179l93-53.7l-92.1,54.5l92.5-53.4l-91.5,54.1l91.9-53.1l-91.1,53.6l91.4-52.8l-90.7,53.3
			l90.9-52.5l-90.2,53l90.4-52.2l-89.8,52.5l89.9-51.9L937.5,183l89.1-51.5l-88.3,52l88.5-51L939.6,184l87.4-50.4l-86.5,50.9
			l86.7-50l-85.7,50.4l85.7-49.5l-84.2,50l84.3-48.7l-82.8,49.2l82.9-47.9l-81.5,48.1l81.5-47l-80.5,47.3l80.5-46.5l-78.9,46.8
			l78.8-45.5l-76.9,45.7l76.8-44.4l-75.3,44.4l75.3-43.5l-74,43.4l73.9-42.6l-71.6,42.5l71.4-41.2l-69.2,41l18-10.4l-15.9,9.9
			l14.5-8.4l-9.1,6.5l5-2.9"/>
		<path id="パス_94" class="st4" d="M862.8,165.8L983,96.4l-119.7,70.5l120.2-69.4l-119.8,70.3l120.1-69.4L864,168.5L984,99.2
			l-119.7,70.1L984.3,100l-119.5,70.1L984.6,101l-119.5,69.8l120.3-69.4l-119.7,70.4l122.2-70.5l-121.7,71.3l123.7-71.4l-123,72.4
			L992,101.2l-124.8,73l126.1-72.9l-125.6,73.5l127.1-73.4l-126.6,74.2l128.1-73.9L869,176.6L998.1,102l-128.5,75.2l129.7-74.9
			l-129.1,75.5l130.2-75.2l-129.4,76.1l131-75.6l-130.5,76.1l131.3-75.8l-130.7,76.3l131.6-76l-130.7,76.8l132.1-76.2l-131.2,77
			l132.5-76.4l-131.7,77.2l132.7-76.6l-131.7,77.3l132.9-76.7L876,183.2l133-76.8l-132.1,77.5l133.1-76.8l-132.3,77.3l133.1-76.8
			l-132.3,77.3l133-76.8l-132.4,77.2l132.9-76.7L880,185.8l132.9-76.7l-132.1,77.1l132.7-76.6l-131.7,77.1l132.4-76.5L882.5,187
			l132.3-76.4l-131.4,76.7l132-76.2l-130.7,76.7l131.5-75.9l-130.1,76.5l131-75.6l-129.5,76.1l130.2-75.2L889,189.3l129.6-74.8
			l-128,75.1l128.7-74.3l-127.5,74.5l128-73.9l-126.4,74.2l127-73.4l-125,73.5l125.7-72.6l-124,72.7l124.5-71.9l-122.6,71.8
			l123.1-71l-121.4,71l121.8-70.3l-119.9,70.1l120.2-69.4l-118,69.1l22.2-12.9l-20,12.4l18.6-10.7l-15.1,9.7l12.6-7.3"/>
		<path id="パス_95" class="st4" d="M823.9,119l4.8-2.8l-8.9,6.4l112.5-65l-114.4,67.1l115.3-66.6l-116.4,68l117-67.5L815.6,128
			l119-68.8l-119.8,69.9l120.3-69.4l-120.7,70.5l121.3-70.1l-122,71.5l122.8-70.9l-123.3,72.1L937,61.5l-124.2,72.7l124.8-72.1
			l-125.2,73.2l125.8-72.6L812,136.5l126.7-73.1l-126.9,74.1L939.2,64l-127.5,74.5l128-73.9l-128.2,75l128.6-74.3L811.3,141
			l129.5-74.8l-129.6,75.9L941.2,67l-130.1,76.3l130.6-75.5l-130.6,76.4l131-75.6l-131,77l131.5-75.9l-131.5,76.7L943,70.3
			l-131.6,76.9l132-76.2l-131.8,77.4l132.2-76.4l-132.1,77.2L944,72.9l-132.1,77.2l132.4-76.5l-132.1,77.5l132.4-76.6l-132.3,77.2
			l132.6-76.6l-132.3,77.5L945,76.3l-132.1,77.5l132.3-76.4l-132,77.2l132.1-76.3l-131.7,77.5l132.8-76.7L814,156.6l135.6-78.3
			l-135.1,79.3l138-79.7L815,158.5l139.8-80.7l-139.4,81.3l140.9-81.3l-140.4,82.2L958,78l-141.7,82.7l142.9-82.5l-142.6,83
			l143.7-82.9L817.3,162l144.5-83.4l-143.8,84.1l145.2-83.8l-144.7,84.5l145.7-84.1L819,164.1l146.3-84.5l-145.8,85L966.2,80
			l-145.9,85.5l147.2-84.9l-146.5,85.6L968.3,81l-146.9,85.6l147.6-85.2l-147,85.8l147.8-85.4l-147.2,85.9l147.9-85.4l-147,86.1
			l148.1-85.4l-147.3,85.9l148.1-85.5l-147.3,86l148-85.4L826.2,170l147.9-85.4l-147,85.9l147.8-85.3l-146.4,85.9l147.3-85.1
			l-146.6,85.4l147.1-84.9L830,171.9l146.9-84.8l-146,85.1l146.5-84.6l-145.6,84.9l146.1-84.3l-144.6,84.9l145.4-84l-144.5,84.2
			L979,89.6l-143.2,84l143.9-83l-142.9,83.2l143.3-82.7L838.3,174l142.3-82.1l-140.9,82.3L981,92.5l-139.9,81.6l140.3-81l-138.9,81
			l139.3-80.4l-137.2,80.3l137.6-79.4l-134.8,79.1l135.3-78.1l-130.5,76.7l8.9-5.1"/>
		<path id="パス_96" class="st4" d="M897.7,57.9l4.9-2.8l-8.9,6.1l13.7-7.8l-15.6,10.1l18.4-10.7l-20.2,13l23-13.3l-24.4,15.4
			l27-15.6l-27.8,17.2l29.6-17.1l-30.2,18.2l31.4-18.1"/>
		<path id="パス_97" class="st4" d="M848.1,73.1l5.5-3.2l-9.6,6.4l14.1-8.2l-16.4,10.5l19.6-11.3L839.8,81l24.6-14.2l-25.7,15.7
			l27.6-15.9l-28.4,17.2l29.9-17.3l-31,19.2l33.2-19.2l-33.8,20.2l35.1-20.2l-35.9,22.1l38-21.9L834.6,90l40.1-23.1l-40.6,24.4
			L876,67l-42.4,25.6l43.8-25.3l-44.2,26.5l45.4-26.2l-45.8,27.7L880.2,68l-47.6,28.6l48.7-28.1l-49,29.7l50.5-29.2l-50.7,30.4
			L884,69.4L832.1,100l52.6-30.3l-52.8,31.8L886,70.2l-54.1,32.6L919,52.6L831.8,104l88.7-51.2L831.8,105l90-52l-90,52.8l90.9-52.5
			L832,107.1l92.4-53.3L832,107.9L925.3,54l-93.2,54.7l94.1-54.4l-94,55.4l95.1-54.9L832.5,111l96.2-55.5l-96,56.3l96.8-55.9
			l-96.7,56.6l97.5-56.2l-97.1,57.4l98.3-56.8l-98.1,57.4l98.7-57"/>
	</g>
</g>
<g id="_67261588_更新済み_2" transform="translate(814.5 104.669)" class="st3">
	<g id="グループ_21-2" transform="translate(0.5 0.5)">
		<path id="パス_92-2" class="st4" d="M1096.8,204l30.8-17.7l-30.1,18l30-17.3l-29.1,17.6l28.9-16.7l-28,16.9l27.8-16.1
			l-26.8,16.2l26.5-15.3l-25.6,15.5l25.2-14.6l-24.2,14.6l23.9-13.8l-23.1,13.9l22.8-13.1l-21.4,13.2l20.7-12l-19.3,12l18.5-10.7
			l-17.4,10.6l16.9-9.8l-15.7,9.6l14.8-8.6l-13.3,8.3l12.3-7.1l-10.6,6.7l9.4-5.4l-6.2,4.2l3.5-2.1"/>
		<path id="パス_93-2" class="st4" d="M1066.6,204.7l58.6-33.8l-58.3,34.1l58.5-33.8l-58.1,34.3l58.3-33.7l-58,34.1l58.2-33.6
			l-57.9,33.9l58.1-33.6l-57.8,33.8l57.9-33.5l-57.5,33.8l57.8-33.3l-57.2,33.9l57.4-33.1l-56.8,33.6l57.1-33l-56.6,33.3l56.7-32.8
			l-56.3,33.1l56.4-32.6l-56,32.9l56.1-32.4l-55.8,32.6l55.8-32.2l-55.2,32.6l55.3-32l-54.8,32.3l55-31.7l-54.2,32l54.3-31.3
			l-53.7,31.6l53.8-31.1l-53.2,31.3l53.3-30.8l-52.3,31.1l52.4-30.3l-51.4,30.6l51.5-29.7l-50.6,29.9l50.6-29.2l-50,29.3l50-28.9
			l-49,29l48.9-28.3l-47.8,28.4l47.7-27.6l-46.8,27.6l46.7-27l-45.9,26.9l45.9-26.4l-44.5,26.4l44.3-25.6l-43,25.5l11.2-6.5
			l-9.9,6.2l9-5.2l-5.6,4l3.1-1.8"/>
		<path id="パス_94-2" class="st4" d="M1025.8,198.7l74.6-43.1l-74.3,43.8l74.6-43.1l-74.4,43.7l74.6-43.1l-74.4,43.5l74.6-43.1
			l-74.3,43.5l74.5-43l-74.2,43.5l74.4-42.9l-74.2,43.3l74.7-43.1l-74.3,43.7l75.9-43.8l-75.6,44.3l76.8-44.3l-76.4,44.9l77.8-44.9
			l-77.5,45.3l78.3-45.3l-78,45.7l78.9-45.6l-78.6,46.1l79.5-45.9l-79.1,46.5l80.2-46.3l-79.8,46.7l80.5-46.5l-80.2,46.9l80.8-46.7
			l-80.4,47.3l81.3-47l-81.1,47.2l81.6-47l-81.2,47.4l81.7-47.2l-81.2,47.7l82-47.3l-81.5,47.8l82.3-47.5l-81.8,47.9l82.4-47.6
			l-81.8,48l82.5-47.6l-82.2,47.9l82.6-47.7l-82,48.1l82.6-47.7l-82.1,48l82.6-47.7l-82.1,48l82.6-47.7l-82.2,47.9l82.6-47.7
			l-82.1,47.9l82.5-47.6l-82,47.9l82.4-47.6l-81.8,47.9l82.2-47.5l-81.8,47.7l82.1-47.4l-81.6,47.6l81.9-47.3l-81.2,47.6l81.7-47.2
			l-80.8,47.5l81.3-46.9l-80.4,47.3l80.9-46.7l-80,46.9l80.5-46.4l-79.5,46.7l79.9-46.1l-79.2,46.2l79.5-45.9l-78.5,46.1l78.9-45.6
			l-77.6,45.7l78.1-45.1l-77,45.1l77.3-44.6l-76.1,44.6l76.4-44.1l-75.4,44.1l75.6-43.7l-74.4,43.5l74.7-43.1l-73.3,42.9l13.8-8
			l-12.4,7.7l11.5-6.7l-9.4,6.1l7.8-4.5"/>
		<path id="パス_95-2" class="st4" d="M1001.7,169.6l3-1.7l-5.5,4l69.8-40.3l-71.1,41.7l71.6-41.3l-72.3,42.2l72.7-41.9
			l-73.4,43.1l73.9-42.7L996.1,176l74.7-43.1l-75,43.8l75.3-43.5l-75.8,44.4l76.2-44L995,178.3l76.9-44.4L994.7,179l77.5-44.8
			l-77.8,45.5l78.1-45.1l-78.3,45.8l78.7-45.4l-78.8,46l79-45.6L994,181.7l79.5-45.9L994,182.4l79.9-46.1l-80,47l80.4-46.4
			L993.8,184l80.8-46.6l-80.8,47.4l81.1-46.9l-81.1,47.5l81.4-47l-81.4,47.8l81.7-47.2l-81.6,47.6l81.8-47.2l-81.8,47.8l81.9-47.3
			L994,187.9l82.1-47.4l-82,48l82.2-47.5l-82.1,48l82.2-47.5l-82.1,48.1l82.2-47.5l-82.2,48l82.3-47.5l-82.1,48.1l82.2-47.5
			l-82.1,48.1l82.2-47.4l-81.9,48l82.1-47.4l-81.8,48.1l82.4-47.6L995.5,193l84.2-48.6l-83.9,49.2l85.7-49.5l-85.4,50l86.8-50.1
			l-86.6,50.5l87.5-50.5l-87.2,51l88.3-51l-88,51.3l88.8-51.2l-88.5,51.6l89.2-51.5l-88.9,52l89.7-51.8l-89.3,52.3l90.2-52.1
			l-89.9,52.4l90.5-52.3l-90.1,52.7l90.8-52.4L998.9,198l91.1-52.6l-90.6,53.1l91.4-52.8l-91,53.1l91.5-52.9l-91.2,53.2l91.7-52.9
			l-91.3,53.3l91.8-53l-91.4,53.3l91.8-53.1l-91.3,53.5l92-53.1l-91.5,53.4l91.9-53.1l-91.5,53.4l91.9-53.1l-91.2,53.5l91.8-53
			l-91.3,53.4l91.8-53l-90.9,53.4l91.5-52.8l-91,53l91.3-52.7l-90.8,53l91.2-52.6l-90.7,52.8l91-52.5l-90.4,52.7l90.7-52.4
			l-89.8,52.7l90.3-52.1l-89.7,52.3l90-52l-88.9,52.2l89.4-51.6l-88.8,51.7l89-51.3l-88,51.5l88.3-51l-87.5,51.1l87.8-50.7
			l-86.9,50.7l87.1-50.3l-86.2,50.3l86.5-49.9l-85.2,49.9l85.4-49.3l-83.7,49.1l84-48.5l-81.1,47.7l5.5-3.2"/>
		<path id="パス_96-2" class="st4" d="M1047.5,131.7l3-1.8l-5.5,3.8l8.5-4.9l-9.7,6.2l11.4-6.6l-12.5,8.1l14.3-8.3l-15.1,9.6
			l16.8-9.7l-17.2,10.7l18.4-10.6l-18.7,11.3l19.5-11.2"/>
		<path id="パス_97-2" class="st4" d="M1016.7,141.1l3.4-2l-6,4l8.8-5.1l-10.2,6.5l12.2-7l-13.4,8.5l15.3-8.8l-16,9.8l17.1-9.9
			l-17.7,10.7l18.6-10.7l-19.3,11.9l20.6-11.9l-21,12.6L1031,137l-22.3,13.7l23.6-13.6l-24,14.5l24.9-14.3l-25.2,15.1l26-15
			l-26.3,15.9l27.2-15.7l-27.4,16.5l28.2-16.3l-28.4,17.2l29.4-17l-29.5,17.8l30.3-17.5l-30.4,18.4l31.4-18.1l-31.5,18.9l32.2-18.6
			l-32.2,19l32.7-18.8l-32.8,19.8l33.6-19.4l-33.6,20.2l54.1-31.2l-54.1,31.9l55.1-31.8l-55.1,32.5l55.9-32.3l-55.9,32.8l56.4-32.6
			l-56.4,33.4l57.4-33.1l-57.4,33.6l57.9-33.4l-57.9,34l58.5-33.8l-58.3,34.4l59.1-34.1l-59,34.9l59.8-34.5l-59.6,35l60.1-34.7
			l-60.1,35.1l60.5-34.9l-60.3,35.7l61-35.2l-60.9,35.6l61.3-35.4"/>
	</g>
</g>
<g id="_96071633_更新済み_" transform="translate(1022.346 0.013)">
	<path id="パス_98" class="st5" d="M1434.5,189c-26.1,25.4-67.8,24.8-93.2-1.3c-25.4-26.1-24.8-67.8,1.3-93.2
		c26.1-25.4,67.8-24.8,93.2,1.3c8.1,8.3,13.8,18.6,16.6,29.8C1458.2,148.5,1451.4,172.6,1434.5,189z"/>
	<path id="パス_99" class="st6" d="M1372,161.5c-1.1-0.2-2.1-0.7-3-1.2c-2.2-1.4-4.3-3.1-5.9-5.2c-0.9-1-1.6-2.1-2.3-3.3
		c-0.7-1.1-1.2-2.2-1.8-3.3c-0.7-1.7-1.1-3.5-1.3-5.3c-0.2-1.8-0.2-3.6,0.1-5.3c0.2-1.7,0.6-3.4,1.2-5.1c0.7-1.9,1.7-3.7,3-5.3
		c1.1-1.4,2.4-2.7,3.8-3.8c1.3-1,2.6-1.9,4-2.8c1.5-0.9,3.2-1.6,4.9-2.1c1.6-0.5,3.2-0.8,4.9-1c1.6-0.2,3.2-0.3,4.9-0.2
		c1.8,0.1,3.6,0.4,5.3,0.8c1.7,0.5,3.4,1.1,5.1,1.9c1.6,0.8,3,1.8,4.4,2.8c2.4,1.9,4.5,4.1,6.2,6.6c0.9,1.3,1.7,2.6,2.4,4
		c0.7,1.5,1.3,3,1.8,4.6c0.5,1.6,0.8,3.2,1.1,4.8c0.2,1.6,0.3,3.3,0.3,4.9c-0.1,1.8-0.3,3.5-0.7,5.3c-0.4,1.7-0.9,3.4-1.6,5.1
		c-0.6,1.6-1.4,3.2-2.2,4.8c-0.9,1.7-1.9,3.3-3,4.8c-2.2,3-4.9,5.5-7.9,7.7c-1.5,1.1-3.1,2.1-4.9,2.8c-1.6,0.8-3.3,1.4-5,2
		c-1.7,0.6-3.4,1-5.1,1.4c-1.8,0.4-3.6,0.6-5.4,0.7c-2,0.2-3.9,0.2-5.9-0.1c-1.9-0.2-3.8-0.5-5.7-1c-1.9-0.5-3.8-1.1-5.7-2
		c-1.9-0.8-3.7-1.8-5.5-2.9c-1.7-1.1-3.4-2.4-5-3.7c-2.4-2.2-4.7-4.6-6.8-7.1c-1.1-1.5-2.2-2.9-3.1-4.4c-0.9-1.5-1.8-3-2.6-4.6
		c-0.8-1.7-1.5-3.4-2-5.3c-0.5-1.9-0.8-3.9-0.9-5.9c0-1.9,0.1-3.9,0.4-5.8c0.3-1.8,0.7-3.6,1.3-5.4c0.6-1.7,1.2-3.5,2-5.1
		c0.8-1.8,1.7-3.6,2.8-5.3c1-1.6,2.2-3.2,3.4-4.6c1.2-1.5,2.5-2.8,3.8-4.2c1.2-1.2,2.5-2.4,3.8-3.6c1.4-1.2,2.9-2.4,4.4-3.4
		c1.4-1,2.9-2,4.4-2.8c1.5-0.9,3-1.7,4.5-2.5c1.6-0.8,3.2-1.5,4.9-2.2c1.7-0.7,3.5-1.3,5.3-1.8c1.8-0.5,3.6-0.9,5.4-1.1
		c1.8-0.3,3.6-0.5,5.5-0.6c2-0.1,4-0.1,6.1,0c2.1,0.2,4.2,0.5,6.2,1c1.9,0.5,3.8,1.1,5.7,1.8c1.9,0.7,3.8,1.5,5.6,2.4
		c1.8,0.9,3.5,1.8,5.3,2.8c1.8,1,3.4,2,5.1,3.2s3.3,2.3,4.9,3.6c2.6,2.2,5,4.5,7.2,7c1.3,1.6,2.5,3.3,3.6,5.1c1,1.7,1.9,3.4,2.7,5.1
		c0.8,1.6,1.4,3.4,2.2,5.1c0.7,1.6,1.2,3.3,1.8,5c0.5,1.7,0.9,3.4,1.3,5.1c0.4,1.6,0.7,3.3,0.9,5c0.3,1.8,0.3,3.6,0.4,5.3
		c0.1,1.9,0,3.8-0.1,5.7c-0.2,2-0.4,4-0.9,5.9c-0.4,2-0.9,3.9-1.6,5.9c-0.6,2-1.4,4-2.3,5.9c-0.9,2-1.9,3.9-3.1,5.7
		c-1,1.8-2.2,3.4-3.4,5c-1.2,1.6-2.4,3.1-3.8,4.6c-1.5,1.6-3.2,3.1-4.9,4.4c-1.7,1.3-3.5,2.6-5.3,3.6c-1.8,1.1-3.7,2.1-5.7,3
		c-1.8,0.9-3.7,1.6-5.7,2.4c-1.9,0.7-3.9,1.4-5.9,1.9c-2,0.5-4.1,0.9-6.1,1.2c-2,0.3-4,0.5-6,0.7c-2.1,0.1-4.2,0.2-6.3,0.2
		c-2.1,0-4.2-0.1-6.3-0.3c-2-0.2-4-0.5-6-0.9c-2.1-0.3-4.2-0.8-6.2-1.4c-2-0.6-4-1.3-6-2.1c-2-0.8-4-1.8-5.9-2.8
		c-1.9-1-3.7-2.2-5.5-3.4c-1.8-1.2-3.5-2.6-5.2-3.9c-1.6-1.3-3.1-2.7-4.6-4.1c-2.5-2.4-4.9-4.9-7.1-7.5c-1.3-1.5-2.5-3-3.6-4.6
		c-1.1-1.5-2.1-3-3.2-4.5c-1.1-1.8-2.2-3.5-3.1-5.3c-1-2-1.8-4-2.5-6.1c-0.7-1.9-1.2-3.8-1.8-5.8c-0.4-1.9-0.8-3.8-1.3-5.6
		c-0.4-1.9-0.7-3.8-0.9-5.7c-0.2-2-0.3-4-0.4-6.1c-0.1-2,0.1-4,0.2-6.1c0.1-2,0.3-3.9,0.5-5.9c0.3-2,0.6-4,1-6.1
		c0.4-2.1,1-4.1,1.6-6.1c0.6-2.1,1.4-4.1,2.3-6.1c0.9-2,1.9-4,2.9-5.9c1-2,2.2-3.8,3.3-5.7s2.4-3.7,3.6-5.5c1.3-1.8,2.6-3.5,4.1-5.1
		c1.4-1.6,2.9-3.2,4.4-4.7c1.6-1.5,3.3-3,5.1-4.3c1.6-1.3,3.3-2.6,5.1-3.7c1.7-1.1,3.4-2.2,5.2-3.2c1.7-1,3.5-1.9,5.4-2.7
		c1.9-0.9,3.8-1.6,5.8-2.4c2-0.7,4-1.3,6-1.8c2-0.5,4.1-0.8,6.2-1.1c2.1-0.3,4.1-0.4,6.2-0.5c2.2-0.1,4.4-0.1,6.5-0.1
		c2.2,0.1,4.2,0.3,6.3,0.5c2.2,0.2,4.3,0.5,6.5,0.9c2.2,0.3,4.2,0.8,6.4,1.3c2,0.5,4,1.1,6,1.7c2.1,0.6,4.1,1.3,6.1,2.1
		c2.1,0.8,4.2,1.8,6.2,2.8c2.1,1.1,4.1,2.3,6.1,3.6c1.8,1.3,3.5,2.7,5.3,4.1c2.8,2.4,5.3,5,7.7,7.8c1.4,1.6,2.7,3.3,4,4.9
		c1.3,1.7,2.5,3.4,3.7,5.2c1.2,1.8,2.4,3.7,3.5,5.7c1.1,1.8,2,3.6,2.9,5.5c0.9,1.8,1.6,3.6,2.4,5.5c0.7,1.8,1.3,3.6,2,5.3
		c0.6,1.8,1.1,3.5,1.7,5.3c0.5,1.8,1,3.6,1.4,5.3c0.5,1.8,0.9,3.7,1.1,5.5c0.3,2,0.5,3.9,0.5,5.9c0.1,1.9-0.1,3.8-0.1,5.7
		c-0.1,2-0.4,4-0.7,5.9c-0.4,2.1-0.9,4.1-1.6,6.1c-0.7,2.1-1.6,4.2-2.6,6.1c-0.9,1.8-2,3.5-3,5.2c-1,1.6-2.2,3.2-3.3,4.7
		c-1.1,1.5-2.4,3-3.7,4.4c-1.2,1.3-2.5,2.6-3.8,3.9c-1.3,1.3-2.7,2.6-4.1,3.8c-1.3,1.1-2.8,2.3-4.2,3.4c-1.5,1.2-3.1,2.2-4.7,3.3
		c-1.6,1.1-3.3,2-5,3c-1.7,0.9-3.4,1.8-5.2,2.6c-1.7,0.8-3.4,1.6-5.2,2.2c-1.8,0.7-3.6,1.3-5.4,1.9c-3.7,1.1-7.4,2-11.2,2.6
		c-1.8,0.3-3.6,0.5-5.5,0.7c-1.1,0.1-2.3,0.2-3.4,0.3c-4.5,1.2-9.2-1.5-10.4-6.1c-1.2-4.5,1.5-9.2,6.1-10.4c0.3-0.1,0.6-0.1,0.9-0.2
		l0,0c1.1-0.1,2.2-0.2,3.3-0.3c1.6-0.1,3.2-0.3,4.8-0.5c1.5-0.2,3.1-0.5,4.6-0.8c1.6-0.3,3-0.7,4.6-1.1c1.5-0.5,3-0.9,4.4-1.5
		c1.5-0.6,3-1.1,4.4-1.8c1.5-0.7,2.9-1.3,4.4-2.1c1.3-0.7,2.8-1.6,4.1-2.4c1.3-0.9,2.6-1.7,3.8-2.6c1.3-0.9,2.5-2,3.7-3
		c1.1-0.9,2.2-2,3.2-3c1.1-1.1,2.2-2.2,3.2-3.4c1-1.1,2-2.2,2.9-3.4c1-1.2,1.8-2.5,2.6-3.8c0.8-1.3,1.6-2.7,2.3-4.1
		c0.7-1.3,1.2-2.6,1.6-4c0.4-1.4,0.7-2.8,0.9-4.2c0.2-1.4,0.4-2.9,0.5-4.3c0.1-1.5,0.1-3,0-4.4c-0.1-1.4-0.3-2.8-0.5-4.2
		c-0.3-1.5-0.7-2.9-1.1-4.4c-0.4-1.6-0.9-3.1-1.3-4.6c-0.5-1.5-0.9-3-1.6-4.5c-0.5-1.5-1.2-3-1.9-4.4c-0.7-1.6-1.4-3-2.2-4.5
		c-0.9-1.6-1.8-3.2-2.8-4.8c-1-1.5-1.9-3-3-4.4c-1.1-1.5-2.2-3-3.4-4.4c-1.2-1.5-2.5-2.9-3.8-4.3c-1-1.1-3.7-3.8,1.1,1.1
		c1.8,1.8-3.6-3.8-1.8-1.9c-1.2-1.2-2.6-2.4-4-3.4c-1.3-1.1-2.7-2.1-4.1-3c-1.6-0.9-3-1.7-4.6-2.4c-1.6-0.7-3.2-1.3-4.9-1.9
		c-1.8-0.5-3.6-1-5.3-1.6c-1.8-0.5-3.6-0.9-5.4-1.3c-1.8-0.3-3.6-0.7-5.5-0.9c-1.8-0.3-3.7-0.4-5.5-0.5c-1.7-0.1-3.4-0.2-5.1-0.1
		c-1.7,0-3.4,0.1-5.1,0.3c-1.6,0.1-3.3,0.5-4.9,0.7c-1.6,0.3-3.1,0.8-4.6,1.3c-1.5,0.5-3,1-4.4,1.7c-1.5,0.7-3,1.3-4.4,2.2
		c-1.4,0.7-2.8,1.6-4.2,2.5c-1.4,0.9-2.8,2-4.2,3c-1.3,1.1-2.7,2.2-4,3.4c-1.2,1.2-2.4,2.4-3.5,3.7c-1.2,1.3-2.2,2.7-3.2,4.1
		c-1.1,1.6-2.1,3.1-3.1,4.7s-2,3.2-2.8,4.9c-0.8,1.6-1.6,3.2-2.3,4.8c-0.6,1.6-1.2,3.1-1.7,4.6c-0.5,1.6-0.9,3.2-1.1,4.9
		c-0.3,1.6-0.5,3.3-0.7,4.9c-0.2,1.7-0.3,3.4-0.3,5.1c-0.1,1.6-0.1,3.2-0.1,4.9c0,1.5,0.2,3,0.4,4.5c0.3,1.6,0.5,3,0.9,4.6
		c0.4,1.6,0.7,3.3,1.2,4.9c0.5,1.6,0.9,3.1,1.6,4.6c0.6,1.4,1.3,2.7,2,4c0.8,1.3,1.6,2.7,2.6,4c0.9,1.3,1.9,2.6,2.9,3.9
		c1,1.3,2.2,2.5,3.2,3.7c0.6,0.6,1.1,1.3,1.8,1.9l0.6,0.6c-2.8-2.9-3.2-3.2-1.8-1.9c1.1,1.3,2.6,2.4,3.8,3.6
		c1.3,1.1,2.7,2.4,4.1,3.4c1.3,1.1,2.8,2,4.2,3c1.3,0.9,2.7,1.7,4.2,2.4c1.5,0.7,3,1.3,4.4,1.9c1.5,0.5,3,0.9,4.5,1.3
		c1.7,0.3,3.4,0.5,5.1,0.8c1.7,0.2,3.4,0.4,5.1,0.4c1.7,0.1,3.4,0.1,5.1,0c1.6-0.1,3.2-0.2,4.9-0.4c1.6-0.2,3-0.5,4.6-0.7
		c1.5-0.3,3-0.8,4.5-1.3c1.6-0.5,3.1-1.3,4.6-2c1.5-0.6,2.9-1.4,4.3-2.2c1.4-0.8,2.7-1.7,3.9-2.6c1.1-0.8,2.2-1.8,3.2-2.8
		c1-1.1,1.9-2.2,2.8-3.4c0.9-1.3,1.8-2.6,2.6-4c0.8-1.4,1.6-2.8,2.2-4.2c0.6-1.4,1.2-2.8,1.6-4.3c0.4-1.5,0.8-3,1.1-4.4
		c0.3-1.4,0.4-2.8,0.5-4.2c0.1-1.3,0.1-2.5-0.1-3.8c-0.1-1.3-0.2-2.6-0.5-3.8c-0.3-1.3-0.6-2.7-0.9-4c-0.3-1.3-0.7-2.6-1.1-3.8
		c-0.5-1.3-1.1-2.7-1.6-4c-0.6-1.4-1.2-2.7-1.9-4c-0.6-1.2-1.3-2.4-2.2-3.5c-0.8-1.1-1.7-2.1-2.6-3c5.4,5.5,1.2,1.1-0.1-0.1
		c-1.1-1.1-2.2-2-3.4-2.9c-1.3-0.9-2.7-2-4.2-2.8c-1.4-0.9-2.9-1.8-4.4-2.6c-1.4-0.7-2.8-1.5-4.2-2.1c-1.4-0.6-2.8-1.1-4.2-1.6
		c-1.3-0.4-2.6-0.7-3.9-0.9c-1.3-0.3-2.6-0.3-3.8-0.3c-1.4,0-2.8,0.1-4.2,0.3c-1.3,0.2-2.6,0.4-3.9,0.7c-1.2,0.3-2.4,0.7-3.6,1.1
		c-1.3,0.5-2.5,1.1-3.7,1.6c-1.3,0.6-2.6,1.3-3.8,2c-1.2,0.7-2.4,1.5-3.5,2.2c-1,0.7-2,1.4-3,2.2c-1.1,0.9-2.1,1.9-3.1,2.9
		c-1,1-1.9,2-2.8,3c-0.9,1.1-1.7,2.2-2.5,3.4c-0.7,1.1-1.3,2.3-1.8,3.4c-0.5,1.2-0.9,2.4-1.3,3.6c-0.3,1.1-0.5,2.2-0.7,3.3
		c-0.1,1-0.1,1.9,0,2.9c0.1,0.9,0.4,1.7,0.7,2.6c0.4,1,0.9,1.9,1.5,2.8c0.6,1.1,1.3,2.1,2.1,3.1c0.8,1,1.6,2,2.5,3
		c0.3,0.3,0.6,0.7,0.9,0.9l0.5,0.5c-4.7-4.9-2.6-2.6-1.6-1.6c1,1,2,2,3.1,2.8c1,0.8,2.1,1.6,3.3,2.2c1.1,0.6,2.2,1.2,3.4,1.6
		c1.1,0.4,2.2,0.7,3.3,0.9c1.1,0.2,2.1,0.3,3.2,0.3c1.2-0.1,2.4-0.1,3.6-0.3c1.2-0.2,2.4-0.5,3.6-0.9c1.1-0.3,2.3-0.7,3.3-1.2
		c1-0.4,1.9-0.9,2.8-1.6c0.9-0.6,1.7-1.3,2.4-2c0.8-0.8,1.6-1.6,2.2-2.6c0.7-0.9,1.3-1.8,1.8-2.8c0.6-1.1,1.1-2.2,1.5-3.3
		c0.3-0.9,0.6-1.9,0.8-2.8c0.1-0.8,0.2-1.6,0.1-2.4c0-0.9-0.1-1.7-0.3-2.6c-0.2-0.9-0.5-1.7-0.8-2.5c-0.3-0.8-0.8-1.6-1.3-2.3
		c-0.5-0.7-1.1-1.4-1.7-2c-0.9-1,0.1,0.1-0.5-0.5l-0.3-0.3c4.8,4.9,3,3.2,2.1,2c-0.5-0.6-1.1-1.2-1.7-1.7c-0.6-0.5-1.3-0.9-2-1.2
		c-0.7-0.3-1.5-0.6-2.3-0.7c-0.9-0.2-1.8-0.2-2.7-0.1c-0.7,0-1.5,0-2.2,0.3c-0.6,0.1-1.3,0.3-1.9,0.6c-0.7,0.3-1.3,0.8-2,1.2
		c-0.6,0.4-1.1,0.9-1.5,1.4c-0.3,0.4-0.5,0.8-0.7,1.3c-0.2,0.7-0.3,1.4-0.3,2.1c0,0.5,0,1.1,0.2,1.6c0.1,0.3,0.4,1,0.6,1
		c0.4,0.7,0.8,1.3,1.3,2c0.4,0.5,0.8,0.9,1.2,1.2c-0.9-0.9-1.9-1.9-2.8-2.8c0.1,0.1,0.3,0.3,0.2,0.4c0,0.1-0.2,0-0.1,0
		c0.1,0.2,0.3,0.2,0.4,0.4c0.3,0.4,0.3,0.3-0.2,0.5c4.5,0.5,7.7,4.6,7.2,9.1c-0.5,4.5-4.6,7.7-9.1,7.2
		C1372.7,161.7,1372.3,161.6,1372,161.5z"/>
	<path id="パス_100" class="st6" d="M1403.6,9.2c0.1,0.9,0.1,1.7,0,2.6v3.4c0,1.6-0.1,3.2-0.1,4.9c-0.1,1.8-0.1,3.6-0.2,5.3
		c-0.1,1.9-0.1,3.8-0.2,5.7c-0.1,2-0.2,4.1-0.3,6.1c0,0.3,0,0.7-0.1,1c0.1,5.1-3.9,9.2-9,9.3s-9.2-3.9-9.3-9c0-0.4,0-0.8,0.1-1.1
		l0,0c0-0.3,0.1-0.7,0.1-1.1c0.1-2,0.3-3.9,0.3-5.9c0.1-2,0.1-4,0.3-5.9c0.1-1.8,0.2-3.6,0.3-5.5c0.1-1.5,0.3-3,0.3-4.5
		c0.1-1.3,0.2-2.6,0.3-3.8c0.1-0.6,0.1-1.1,0.2-1.6c-0.2-4.8,3.6-8.8,8.4-9c4.8-0.2,8.8,3.6,9,8.4C1403.6,8.6,1403.6,8.9,1403.6,9.2
		z"/>
	<path id="パス_101" class="st6" d="M1474.6,31.1c-0.1,1-0.4,2-0.7,3c-0.3,1.1-0.8,2-1.2,3.1c-0.5,1.3-1.1,2.6-1.8,3.8
		c-0.7,1.4-1.5,2.9-2.2,4.3c-0.7,1.3-1.5,2.8-2.2,4.2c-0.8,1.6-1.6,3.2-2.4,4.8c-0.5,1-1,2-1.5,3.1c-1.6,4.7-6.7,7.3-11.5,5.7
		c-4.7-1.6-7.3-6.7-5.7-11.5c0.1-0.3,0.2-0.7,0.4-1l0,0c0.5-1.1,1.1-2.4,1.7-3.5c0.8-1.6,1.6-3.2,2.4-4.7c0.8-1.6,1.6-3.2,2.5-4.7
		c0.7-1.3,1.5-2.6,2.2-3.9c0.6-1.1,1.2-2.2,1.8-3.3c0.4-0.7,0.8-1.5,1.1-2.2c0.6-1.3-0.2,0.7,0.3-0.1c0.5-4.7,4.7-8.1,9.5-7.6
		c4.7,0.5,8.1,4.7,7.6,9.5C1474.7,30.3,1474.7,30.7,1474.6,31.1z"/>
	<path id="パス_102" class="st6" d="M1326.2,23.6c0-0.1-0.1-0.2-0.1-0.3C1326.2,23.4,1326.2,23.6,1326.2,23.6c0.1,0,0-0.3,0.1-0.3
		c0.1,0.1,0.1,0.2,0.3,0.3c0.5,0.7,0.9,1.4,1.4,2.1c0.6,1,1.3,2,2,2.9c0.9,1.2,1.8,2.5,2.6,3.7l2.8,4.4c1,1.6,1.9,3.3,2.9,4.9
		c0.1,0.3,0.3,0.5,0.5,0.8c2.4,4.4,0.8,9.9-3.6,12.3c-4.4,2.4-9.9,0.8-12.3-3.6c-0.2-0.3-0.3-0.6-0.5-1l0,0
		c-0.1-0.3-0.3-0.5-0.5-0.8c-0.9-1.6-1.7-3.1-2.6-4.5c-0.9-1.4-1.8-2.9-2.7-4.3c-0.9-1.3-1.7-2.6-2.5-4c-0.6-1-1.2-2.1-1.8-3.1
		c-0.4-0.7-0.8-1.6-1.3-2.3c-0.5-0.9-0.9-1.9-1.2-2.8c-1.6-4.5,0.7-9.4,5.2-11c4.5-1.6,9.4,0.7,11,5.2
		C1326,23,1326.1,23.3,1326.2,23.6z"/>
	<path id="パス_103" class="st6" d="M1273.6,69.6c0.6,0.3,1.1,0.5,1.6,0.9c0.9,0.3,1.7,0.8,2.4,1.3c1,0.5,1.9,1.1,2.8,1.6
		c1.1,0.7,2.4,1.2,3.5,1.8l4.2,2c1.6,0.7,3.2,1.6,4.8,2.4c1.7,0.8,3.4,1.8,5,2.8c0.9,0.5,1.7,1,2.5,1.6c3.9,3.1,4.7,8.7,1.6,12.7
		c-3.1,3.9-8.7,4.7-12.7,1.6c-0.3-0.2-0.5-0.4-0.8-0.7l0,0c-0.7-0.4-1.5-0.8-2.2-1.2c-1.5-0.9-3-1.6-4.5-2.4c-1.5-0.8-3-1.5-4.4-2.2
		c-1.6-0.7-3.1-1.6-4.6-2.4c-1.3-0.7-2.6-1.6-3.9-2.4c-1-0.7-2-1.2-3-1.9c-0.8-0.4-1.5-0.9-2.2-1.3c-1.2-0.6-0.4-0.4-1.3-0.9
		c-3.8-2.9-4.6-8.3-1.7-12.1c2.9-3.8,8.3-4.6,12.1-1.7C1273.1,69.2,1273.3,69.4,1273.6,69.6z"/>
	<path id="パス_104" class="st6" d="M1282.6,208.2c-1.4,1.3-0.8,0.7-0.2,0.2c0.9-1,1.9-2,2.9-3c1.6-1.5,3-3,4.6-4.4
		c1.6-1.4,3.2-2.8,4.7-4.2c0.9-0.9,1.8-1.7,2.8-2.4c3-4,8.7-4.9,12.8-1.8c4,3,4.9,8.7,1.8,12.8c-0.2,0.3-0.4,0.5-0.7,0.8l0,0
		c-0.7,0.6-1.3,1.1-2,1.7c-1.7,1.6-3.3,3.2-5.1,4.8c-1.6,1.3-3.1,2.7-4.6,4c-1.1,1-2.4,1.8-3.5,2.9c-1.1,1.1-2.4,2-3.6,3
		c-3.7,3-9.2,2.4-12.2-1.4s-2.4-9.2,1.4-12.2C1282,208.6,1282.3,208.4,1282.6,208.2z"/>
	<path id="パス_105" class="st6" d="M1333,253.2c-0.1,0.2-0.4,0.7-0.3,0.5C1332.6,253.5,1332.8,253.4,1333,253.2
		c0.1-0.1-0.1,0.1-0.1,0.2C1332.8,253.4,1332.9,253.2,1333,253.2c0.4-0.9,0.8-1.8,1.2-2.7c0.6-1.3,1.2-2.7,1.8-4
		c0.7-1.8,1.6-3.6,2.4-5.5l2.6-5.5c0.4-0.9,0.9-1.8,1.3-2.6c1.6-4.8,6.8-7.3,11.6-5.6c4.8,1.6,7.3,6.8,5.6,11.6
		c-0.1,0.3-0.2,0.6-0.4,0.9l0,0c-0.4,0.9-0.9,1.8-1.3,2.7c-0.9,1.7-1.7,3.5-2.6,5.3c-0.8,1.6-1.6,3.2-2.4,4.8
		c-0.7,1.5-1.3,3-2.2,4.4c-0.5,1.1-1.1,2-1.7,3c-0.6,1.1-1.3,2.2-2,3.2c-2.6,4-7.9,5.2-11.9,2.7c-4-2.6-5.2-7.9-2.7-11.9
		C1332.6,253.6,1332.8,253.4,1333,253.2z"/>
	<path id="パス_106" class="st6" d="M1475.4,202.3c0.4,0.4,0.8,0.7,1.2,1c0.7,0.5,1.3,0.9,2.1,1.4c1.2,0.7,2.2,1.6,3.4,2.3
		c1.4,1.1,3,2,4.4,3c1.7,1.1,3.3,2.4,4.8,3.7c1.6,1.1,3,2.5,4.5,3.8c0.9,0.7,1.6,1.6,2.6,2.3c3.4,3.6,3.2,9.4-0.4,12.8
		c-3.6,3.4-9.4,3.2-12.8-0.4c-0.2-0.3-0.5-0.5-0.7-0.8l0,0c-0.9-0.9-2-1.7-2.9-2.6c-1.3-1.1-2.7-2.2-4-3.4c-1.3-0.9-2.6-1.9-4-2.8
		c-1.5-1-2.9-2.2-4.4-3.2c-1.3-1-2.6-2-3.9-3.2c-1-0.9-2-1.8-2.8-2.8c-0.5-0.6-0.9-1.1-1.3-1.6c-3-3.7-2.4-9.2,1.4-12.2
		c3.7-3,9.2-2.4,12.2,1.4C1474.9,201.6,1475.2,201.9,1475.4,202.3z"/>
	<path id="パス_107" class="st6" d="M1492.1,147.3c0.8-0.2,1.7-0.2,2.6-0.2c2.7,0,5.3,0.2,7.9,0.7l4.2,0.4
		c1.8,0.2,3.4,0.4,5.2,0.6c2,0.2,4,0.4,5.9,0.7c1.8,0.3,3.6,0.7,5.4,1.1c4.7,1.7,7.1,7,5.4,11.7c-1.7,4.7-7,7.1-11.7,5.4
		c-0.4-0.2-0.8-0.3-1.2-0.6l0,0c-1.5-0.2-3-0.5-4.5-0.6l-5.9-0.8c-1.7-0.2-3.4-0.5-5.1-0.7c-1.3-0.2-2.8-0.4-4.1-0.7
		c-4.2-0.7,6,0.7,2,0.1c-0.4-0.1-1-0.1-1.3-0.3c-4.5,1.6-9.5-0.8-11.1-5.3c-1.6-4.5,0.8-9.5,5.3-11.1
		C1491.4,147.4,1491.7,147.3,1492.1,147.3z"/>
	<path id="パス_108" class="st6" d="M1485.4,89.9c-0.4,0.2,1.5-0.7,1.7-0.8c1.3-0.6,2.7-1.2,4-1.7c1.6-0.5,3.3-1.1,4.9-1.6
		c2-0.7,4-1.3,6.1-2c2.3-0.7,4.6-1.3,7-2c1.6-0.4,3.1-0.7,4.6-1.1c4.3-2.6,9.8-1.2,12.4,3.1c2.6,4.3,1.2,9.8-3.1,12.4
		c-0.3,0.2-0.6,0.4-1,0.5l0,0c-1.7,0.7-3.5,1.3-5.3,1.8c-2.2,0.5-4.3,1.1-6.4,1.6c-2,0.6-4,1-6,1.7c-1.8,0.5-3.4,1.1-5.2,1.4
		c-1.1,0.2-2.1,0.4-3.1,0.7c-0.8,0.2-1.5,0.5-2.2,0.8c-3.9,2.7-9.3,1.6-11.9-2.3c-2.7-3.9-1.6-9.3,2.3-11.9
		C1484.6,90.3,1485,90,1485.4,89.9z"/>
	<path id="パス_109" class="st6" d="M1424,238.3v-0.1c0.5,1.6,0.1,0.1,0.4,1.3c0.4,1.1,0.7,2.2,0.9,3.4l0.8,3.8
		c0.3,1.6,0.6,3.2,0.8,4.7c0.3,1.5,0.6,3,0.9,4.4c0.4,1.6,0.7,3.3,1,5c0.3,1.7,0.8,3.4,1,5.1c0.7,4.9-2.6,9.5-7.6,10.3
		s-9.5-2.6-10.3-7.6c-0.1-0.3-0.1-0.7-0.1-1l0,0c-0.5-1.6-0.7-3.3-1-5l-1-5.1c-0.3-1.7-0.6-3.3-0.9-5c-0.2-1.3-0.4-2.8-0.7-4.1
		c-0.2-1.1-0.3-2.4-0.6-3.5c-0.1-0.7-0.3-1.4-0.5-2.1c-0.3-1.2-0.2-1.2-0.4-1.8c-1.1-4.7,1.9-9.3,6.6-10.4c4.7-1.1,9.3,1.9,10.4,6.6
		C1423.9,237.6,1424,238,1424,238.3z"/>
	<path id="パス_110" class="st6" d="M1255.3,136.5c-0.1,0.1,0.3,0.1,1,0.1c0.7,0.1,1.5,0.1,2.3,0.2c1,0.1,2,0.2,3,0.1
		c1.3,0.1,2.6,0,3.9,0.1c1.5,0,2.9,0.1,4.4,0.1c1.8-0.1,3.6-0.1,5.4-0.1c2,0,3.9,0.1,5.8,0.2l3.1,0.2c4.9-1.1,9.8,2.1,10.8,7
		c1.1,4.9-2.1,9.8-7,10.8c-0.4,0.1-0.9,0.2-1.3,0.2l0,0c-0.9-0.1-1.8-0.2-2.6-0.3c-1.8-0.1-3.5-0.3-5.2-0.4
		c-1.6-0.1-3.2-0.1-4.7-0.1c-1.7,0.1-3.3,0.1-5,0c-1.4,0-2.8-0.2-4.2-0.1l-3.8-0.2c-0.9-0.1-1.8-0.1-2.7-0.3
		c-0.7-0.1-1.5-0.2-2.2-0.3c-4.7,0.6-9.1-2.7-9.7-7.5c-0.6-4.7,2.7-9.1,7.5-9.7C1254.5,136.5,1254.9,136.5,1255.3,136.5z"/>
</g>
<g id="_151221679_更新済み_" transform="translate(86 330.849)">
	<path id="パス_111" class="st7" d="M262.4,519.2c19.3-23.6,34.8-27.2,34.8-27.2c2.2-2.5-4.2-9.7-4.2-9.7
		c5.1-0.8,12.4,7.8,12.4,7.8s1.3,1.6,1.8,2.4c0,0-0.8-1.4-1.4-2.4c23.8-3,30.5,8.2,30.5,8.2c3.5,4.5,1.6,12,1,13.8l-1.1-1.4l0.9,1.9
		c0.7,1.5,1.3,3,1.8,4.6c0.3,1.1-0.1,2.3-1,3l0,0c-0.7,0.5-1.2,0.1-1.8-0.6l-2.4-3.2c-2.7-2.6-6-4.3-9.7-5l0,0.5
		c0,0,3.5,8.7-5.4,16.5c-0.1,0.1-0.3,0.1-0.4,0c-0.1-0.1-0.1-0.2-0.1-0.2c0.9-2.5,0.9-5.2,0.2-7.8c-1.3-3.1-2.3-6.4-3-9.7l0-0.2
		c-0.9,0-1.6,0-2.1,0c0.6-0.6,1-1.3,1.4-2c-0.6,0.7-1.3,1.4-2,2.1c-7.8,7.1-14.1,7.9-16.6,7.9c-0.1,0-0.3-0.1-0.3-0.3
		c0-0.1,0.1-0.2,0.2-0.2c2-1.2,3.6-3,4.5-5.2c-7.6-1.1-35.2,10.5-35.2,10.5c-2.1,16.7-8.4,16.9-8.4,16.9c4.3-5.7,0.3-13.8,0.3-13.8
		c-0.4-0.8-0.9-1.5-1.5-2.1c0.3,0.5,0.6,1.1,0.8,1.7c-6.5-4.3-11.3-3.3-11.3-3.3C249.8,516.7,262.4,519.2,262.4,519.2z"/>
	<path id="パス_112" class="st8" d="M139.9,500.7c28.3-61.5,59.5-77.9,59.5-77.9c3.3-6.5-14.4-18.4-14.4-18.4
		c10.5-4.6,31,9.9,31,9.9s3.6,2.6,5.2,4.1c0,0-2.4-2.7-4.3-4.4c49.5-19.9,70.1,0.5,70.1,0.5c10.1,7.8,10.2,25,10,29.2l-3.1-2.5
		l3,3.4c2.4,2.8,4.5,5.7,6.4,8.8c1.3,2.2,1.2,4.9-0.4,6.9l0,0c-1.2,1.5-2.6,0.8-4.1-0.4l-7-5.5c-6.8-4.4-15.5-5.6-23.6-5.3l0.4,1
		c0,0,12.4,16.6-2.3,38.4c-0.2,0.3-0.6,0.4-0.9,0.2c-0.2-0.1-0.3-0.3-0.3-0.6c0.1-3.8-0.1-11.6-3.9-16.8c-4.4-6-8.4-12.4-11.9-19.1
		l-0.2-0.4c-1.9,0.5-3.5,0.9-4.5,1.3c0.9-1.6,1.5-3.3,1.8-5.1c-0.9,1.9-2,3.8-3.2,5.6c-12.8,19.6-25.8,24.8-31.3,26.2
		c-0.3,0.1-0.6-0.1-0.7-0.4c-0.1-0.2,0-0.4,0.2-0.6c5.5-4.7,6.8-13.6,6.8-13.6c-16.9,2-69.8,42.4-69.8,42.4
		c4.8,37.1-8.6,41.1-8.6,41.1c6-14.6-7-29.8-7-29.8c-1.3-1.4-2.8-2.7-4.4-3.8c0.9,1,1.8,2.1,2.6,3.1c-16.3-5.6-26.2-0.8-26.2-0.8
		C111.6,502.4,139.9,500.7,139.9,500.7z"/>
	<g id="グループ_22" transform="translate(10.39 71.942)">
		<path id="パス_113" class="st7" d="M117.6,491.7c0,0,0.7,0.6,2,1.8c0.3,0.3,0.7,0.6,1.1,0.9c0.2,0.2,0.4,0.3,0.7,0.5
			c0.2,0.2,0.5,0.4,0.7,0.5c1,0.7,2.2,1.6,3.5,2.4c3.2,2,6.6,3.7,10.2,5.1c2.2,0.8,4.4,1.5,6.6,2.1c0.6,0.1,1.2,0.3,1.8,0.4
			c0.6,0.1,1.2,0.3,1.9,0.4c0.6,0.1,1.3,0.2,1.9,0.3c0.7,0.1,1.3,0.2,1.9,0.3c5.7,0.8,11.4,1,17.2,0.8c6.5-0.3,12.9-1,19.3-2.1
			c1.7-0.3,3.4-0.6,5.1-0.9c1.7-0.3,3.4-0.6,5.1-1s3.5-0.7,5.2-1c1.8-0.4,3.5-0.7,5.3-1.1c7.1-1.5,14.4-3,21.7-4.4
			c7.3-1.4,14.7-2.8,22.1-3.8c3.7-0.5,7.4-0.9,11-1.3c0.4,0,0.9-0.1,1.4-0.1c0.4,0,0.9-0.1,1.4-0.1c0.9-0.1,1.8-0.1,2.7-0.2
			c0.4,0,0.9-0.1,1.4-0.1c0.1,0,0.1,0,0.2,0h0.2l0.3,0l0.7,0c0.9,0,1.8-0.1,2.6-0.1c7-0.1,14,0.3,20.9,1.4c6.1,1,12.1,2.4,18.1,4.2
			c0.7,0.2,1.4,0.4,2,0.6c0.2,0.1,0.3,0.1,0.5,0.1c0.2,0.1,0.3,0.1,0.5,0.2c0.3,0.1,0.7,0.2,1,0.4l1.9,0.7c0.3,0.1,0.6,0.2,0.9,0.3
			c0.1,0.1,0.3,0.1,0.5,0.2c0.2,0.1,0.3,0.1,0.4,0.2c1.2,0.5,2.4,1,3.5,1.4c0.3,0.1,0.6,0.2,0.8,0.4c0.3,0.1,0.6,0.2,0.8,0.4
			c0.5,0.2,1.1,0.5,1.6,0.7c1,0.5,2.1,0.9,3,1.4s1.9,0.9,2.8,1.4c0.2,0.1,0.4,0.2,0.7,0.3c0.2,0.1,0.4,0.2,0.6,0.3l1.2,0.7
			c0.8,0.4,1.6,0.9,2.3,1.3c2.8,1.7,5,3,6.5,4.1c1.4,1,2.2,1.5,2.2,1.5s-0.9-0.3-2.5-0.9c-0.4-0.1-0.9-0.3-1.4-0.5
			c-0.2-0.1-0.5-0.2-0.8-0.3c-0.3-0.1-0.6-0.2-0.9-0.3c-0.6-0.2-1.3-0.4-1.9-0.6c-0.3-0.1-0.7-0.2-1.1-0.4s-0.7-0.3-1.1-0.4
			c-0.8-0.2-1.6-0.5-2.4-0.7c-0.4-0.1-0.9-0.3-1.3-0.4c-0.2-0.1-0.4-0.1-0.7-0.2c-0.2-0.1-0.5-0.1-0.7-0.2c-0.9-0.3-1.9-0.5-2.9-0.8
			c-1-0.3-2.1-0.5-3.1-0.8c-0.5-0.1-1.1-0.3-1.6-0.4l-0.8-0.2c-0.3-0.1-0.6-0.1-0.9-0.2c-1.2-0.3-2.3-0.5-3.6-0.8l-0.4-0.1
			c-0.1,0-0.3-0.1-0.5-0.1c-0.3-0.1-0.6-0.1-0.9-0.2c-0.6-0.1-1.3-0.2-1.9-0.4c-0.3-0.1-0.6-0.1-1-0.2c-0.2,0-0.3-0.1-0.5-0.1
			c-0.2,0-0.3-0.1-0.5-0.1l-2-0.3c-5.8-1-11.6-1.6-17.4-2c-6.4-0.4-12.8-0.3-19.2,0.2c-0.9,0.1-1.7,0.2-2.6,0.2l-0.7,0.1l-0.3,0
			l-0.2,0h-0.1c-0.1,0,0.2,0,0,0c-0.4,0.1-0.9,0.1-1.3,0.1c-0.9,0.1-1.7,0.2-2.6,0.3c-0.4,0.1-0.9,0.1-1.3,0.2s-0.9,0.1-1.3,0.2
			c-1.7,0.2-3.5,0.5-5.2,0.8s-3.5,0.5-5.3,0.9c-7.1,1.2-14.3,2.6-21.5,4c-7.3,1.4-14.6,2.9-21.8,4.1c-1.8,0.3-3.6,0.6-5.4,0.9
			c-1.8,0.3-3.6,0.5-5.4,0.8s-3.6,0.5-5.4,0.7c-0.9,0.1-1.8,0.2-2.6,0.3c-0.4,0.1-0.9,0.1-1.3,0.1l-0.7,0.1l-0.4,0l-0.3,0
			c-6.9,0.7-13.9,0.9-20.8,0.5c-6.3-0.3-12.5-1.4-18.6-3c-0.7-0.2-1.4-0.4-2.1-0.6l-2-0.7c-0.7-0.2-1.3-0.5-1.9-0.7
			c-0.3-0.1-0.6-0.2-1-0.4c-0.3-0.1-0.6-0.3-0.9-0.4c-0.3-0.1-0.6-0.2-0.9-0.4c-0.3-0.2-0.6-0.3-0.9-0.4c-0.6-0.3-1.2-0.5-1.7-0.8
			c-0.6-0.3-1.1-0.6-1.6-0.9l-1.6-0.9c-0.1-0.1-0.3-0.1-0.4-0.2c-0.1-0.1-0.3-0.2-0.4-0.2c-0.2-0.1-0.5-0.3-0.7-0.5
			c-0.5-0.3-1-0.6-1.4-0.9c-0.5-0.3-0.9-0.6-1.3-0.9c-0.4-0.3-0.8-0.6-1.2-1c-1.5-1.1-2.9-2.4-4.2-3.7c-0.3-0.3-0.6-0.6-0.9-0.9
			s-0.5-0.6-0.8-0.8c-0.1-0.1-0.2-0.3-0.4-0.4s-0.2-0.3-0.3-0.4c-0.2-0.3-0.4-0.5-0.7-0.8c-0.2-0.2-0.4-0.5-0.6-0.7
			s-0.4-0.5-0.5-0.7c-0.3-0.4-0.6-0.8-0.9-1.2c-0.5-0.7-0.9-1.3-1.1-1.7C117.8,492.1,117.7,491.9,117.6,491.7z"/>
		<path id="パス_114" class="st8" d="M136.6,517.3c0,0,0.6,0.5,1.8,1.5c0.3,0.2,0.6,0.5,1,0.7c0.2,0.1,0.4,0.3,0.6,0.4
			c0.2,0.2,0.4,0.3,0.6,0.4c0.9,0.6,1.9,1.3,3.1,2c2.8,1.7,5.8,3,8.9,4.1c1.9,0.6,3.8,1.2,5.7,1.6c0.5,0.1,1,0.2,1.6,0.3
			c0.5,0.1,1.1,0.2,1.6,0.3c0.5,0.1,1.1,0.2,1.6,0.2c0.6,0.1,1.1,0.1,1.7,0.2c4.9,0.5,9.9,0.6,14.8,0.2c5.5-0.4,11.1-1.2,16.5-2.3
			c1.5-0.3,2.9-0.6,4.4-0.9c1.5-0.3,2.9-0.6,4.4-1c1.5-0.3,3-0.7,4.5-1c1.5-0.3,3-0.7,4.5-1.1c6.1-1.5,12.2-3,18.5-4.4
			c6.3-1.4,12.6-2.8,18.9-3.9c3.2-0.5,6.3-1,9.4-1.4c0.4-0.1,0.8-0.1,1.2-0.1c0.4-0.1,0.8-0.1,1.2-0.1c0.8-0.1,1.6-0.2,2.3-0.2
			l1.2-0.1l0.2,0h0.1l0.1,0l0.3,0l0.6,0c0.7-0.1,1.5-0.1,2.2-0.1c6-0.3,12-0.1,18,0.6c5.3,0.6,10.5,1.7,15.6,3.1
			c0.6,0.2,1.2,0.3,1.8,0.5l0.4,0.1c0.1,0,0.3,0.1,0.4,0.1c0.3,0.1,0.6,0.2,0.8,0.3c0.6,0.2,1.1,0.4,1.7,0.5
			c0.3,0.1,0.5,0.2,0.8,0.3c0.1,0,0.3,0.1,0.4,0.1s0.3,0.1,0.4,0.1c1,0.4,2.1,0.7,3.1,1.1c0.2,0.1,0.5,0.2,0.7,0.3
			c0.2,0.1,0.5,0.2,0.7,0.3c0.5,0.2,0.9,0.4,1.4,0.6c1.9,0.7,3.5,1.5,5.1,2.2c0.8,0.3,1.5,0.7,2.2,1.1c0.7,0.4,1.4,0.7,2,1
			c2.5,1.3,4.4,2.4,5.7,3.3c1.3,0.8,2,1.2,2,1.2s-0.8-0.2-2.2-0.7c-0.4-0.1-0.7-0.2-1.2-0.4c-0.2-0.1-0.4-0.1-0.7-0.2
			c-0.2-0.1-0.5-0.1-0.7-0.2c-0.5-0.1-1.1-0.3-1.7-0.5c-0.6-0.2-1.2-0.4-1.9-0.6c-0.7-0.2-1.4-0.4-2.1-0.6s-1.5-0.4-2.3-0.6
			c-1.6-0.4-3.4-0.9-5.3-1.3c-3.8-0.9-8-1.6-12.7-2.3c-5-0.7-10-1.1-15-1.2c-5.5-0.1-11,0.1-16.5,0.7l-2.2,0.3l-0.6,0.1l-0.3,0
			l-0.1,0h-0.1c0,0,0.1,0,0,0l-1.1,0.2l-2.2,0.3l-1.1,0.2c-0.4,0.1-0.7,0.1-1.1,0.2c-1.5,0.3-3,0.5-4.5,0.8c-1.5,0.3-3,0.6-4.5,0.9
			c-6.1,1.2-12.2,2.6-18.4,4.1c-6.2,1.4-12.4,2.9-18.6,4.2c-1.6,0.3-3.1,0.6-4.7,0.9c-1.6,0.3-3.1,0.6-4.6,0.9
			c-1.5,0.3-3.1,0.5-4.6,0.8c-1.5,0.2-3,0.4-4.5,0.7c-5.9,0.8-11.9,1.2-17.8,1.1c-5.4-0.1-10.8-0.8-16-2c-4.4-1.1-8.7-2.7-12.8-4.9
			c-3.1-1.7-5.9-3.7-8.5-6c-0.3-0.2-0.5-0.5-0.8-0.7c-0.2-0.2-0.5-0.5-0.7-0.7l-0.3-0.3c-0.1-0.1-0.2-0.2-0.3-0.3l-0.6-0.6
			c-0.2-0.2-0.4-0.4-0.5-0.6c-0.2-0.2-0.3-0.4-0.5-0.6c-0.3-0.4-0.6-0.7-0.8-1c-0.5-0.6-0.8-1.1-1-1.4
			C136.7,517.5,136.6,517.3,136.6,517.3z"/>
	</g>
</g>
<g id="グループ_54" transform="translate(817.886 244.192)">
	<g>
		<defs>
			<rect id="SVGID_1_" x="997.3" y="297.7" width="96.9" height="160.6"/>
		</defs>
		<clipPath id="SVGID_00000150784441938493557850000001663582256779965834_">
			<use xlink:href="#SVGID_1_"  style="overflow:visible;"/>
		</clipPath>
		<g id="グループ_26" style="clip-path:url(#SVGID_00000150784441938493557850000001663582256779965834_);">
			<path id="パス_115" class="st10" d="M1046.9,458.3c-3.7,0-6.9-1.9-7.5-4.5c-1.4-6-3.2-16.2-0.4-21.1c0.9-1.6,5.5-2.9,7.2-2.9
				c1.5,0,6.9,0.7,7.9,2c3.4,4.6,2.1,15.4,0.9,21.7c-0.5,2.7-3.7,4.7-7.5,4.7L1046.9,458.3z"/>
			<path id="パス_116" class="st11" d="M1046.1,431.6c-1.7,0-7.1,1.1-8,2.7c-1.2,2.1-0.7,5.3-0.6,8.7c6.2-0.5,12.4-0.5,18.6,0
				c0-3.7,1-7-0.5-9.2C1054.6,432.5,1047.7,431.6,1046.1,431.6"/>
			<path id="パス_117" class="st12" d="M1047.7,439.3c0,0-46.2,5-46.2-20.5c0-25.5,18.3-26,18.3-26s-23-4.4-22.4-20.5
				c0.6-16,24.6-19.4,24.6-19.4s-16.8-7.8-16.8-23.3c0-15.5,12.7-32,34.9-32c22.1,0,32.3,16.5,32.8,27.5s-12.7,24.9-12.7,24.9
				s17.2,4.4,17.7,17.7s-6.6,20.5-14.4,22.7c18.3,3.3,30.7,10.7,30.7,24.6C1094.2,430.6,1076,436.7,1047.7,439.3"/>
			<path id="パス_118" class="st12" d="M1047.7,439.3c0,0-46.2,5-46.2-20.5c0-25.5,18.3-26,18.3-26s-23-4.4-22.4-20.5
				c0.6-16,24.6-19.4,24.6-19.4s-16.8-7.8-16.8-23.3c0-15.5,12.7-32,34.9-32c22.1,0,32.3,16.5,32.8,27.5s-12.7,24.9-12.7,24.9
				s17.2,4.4,17.7,17.7s-6.6,20.5-14.4,22.7c18.3,3.3,30.7,10.7,30.7,24.6C1094.2,430.6,1076,436.7,1047.7,439.3"/>
			<path id="パス_119" class="st13" d="M1041.7,439.3c0,0-40.8,5-40.8-20.5c0-25.5,16.1-26,16.1-26s-20.3-4.4-19.8-20.5
				c0.5-16,21.7-19.4,21.7-19.4s-14.8-7.8-14.8-23.3c0-15.5,11.2-32,30.7-32c19.5,0,28.4,16.5,28.9,27.5s-11.2,24.9-11.2,24.9
				s15.1,4.4,15.6,17.7c0.5,13.3-5.9,20.5-12.7,22.7c16.1,3.3,27.1,10.7,27.1,24.6C1082.7,430.6,1066.7,436.7,1041.7,439.3"/>
		</g>
	</g>
</g>
<g id="グループ_58" transform="translate(228 153.427)">
	<g>
		<defs>
			<rect id="SVGID_00000134941432224728418600000011509320328407361696_" x="278" y="187.1" width="96.9" height="160.6"/>
		</defs>
		<clipPath id="SVGID_00000162342366794982316180000003771176549014375859_">
			<use xlink:href="#SVGID_00000134941432224728418600000011509320328407361696_"  style="overflow:visible;"/>
		</clipPath>
		<g id="グループ_26-2" style="clip-path:url(#SVGID_00000162342366794982316180000003771176549014375859_);">
			<path id="パス_115-2" class="st10" d="M327.6,347.7c-3.7,0-6.9-1.9-7.5-4.5c-1.4-6-3.2-16.2-0.4-21.1c0.9-1.6,5.5-2.9,7.2-2.9
				c1.5,0,6.9,0.7,7.9,2c3.4,4.6,2.1,15.4,0.9,21.7c-0.5,2.7-3.7,4.7-7.5,4.7L327.6,347.7z"/>
			<path id="パス_116-2" class="st11" d="M326.9,321c-1.7,0-7.1,1.1-8,2.7c-1.2,2.1-0.7,5.3-0.6,8.7c6.2-0.5,12.4-0.5,18.6,0
				c0-3.7,1-7-0.5-9.2C335.4,321.8,328.4,321,326.9,321"/>
			<path id="パス_117-2" class="st12" d="M328.4,328.7c0,0-46.2,5-46.2-20.5c0-25.5,18.3-26,18.3-26s-23-4.4-22.4-20.5
				c0.6-16,24.6-19.4,24.6-19.4s-16.8-7.8-16.8-23.3c0-15.5,12.7-32,34.9-32s32.3,16.5,32.8,27.5c0.6,11.1-12.7,24.9-12.7,24.9
				s17.2,4.4,17.7,17.7c0.6,13.3-6.6,20.5-14.4,22.7c18.3,3.3,30.7,10.7,30.7,24.6C374.9,319.9,356.8,326.1,328.4,328.7"/>
			<path id="パス_118-2" class="st12" d="M328.4,328.7c0,0-46.2,5-46.2-20.5c0-25.5,18.3-26,18.3-26s-23-4.4-22.4-20.5
				c0.6-16,24.6-19.4,24.6-19.4s-16.8-7.8-16.8-23.3c0-15.5,12.7-32,34.9-32s32.3,16.5,32.8,27.5c0.6,11.1-12.7,24.9-12.7,24.9
				s17.2,4.4,17.7,17.7c0.6,13.3-6.6,20.5-14.4,22.7c18.3,3.3,30.7,10.7,30.7,24.6C374.9,319.9,356.8,326.1,328.4,328.7"/>
			<path id="パス_119-2" class="st13" d="M322.5,328.7c0,0-40.8,5-40.8-20.5c0-25.5,16.1-26,16.1-26s-20.3-4.4-19.8-20.5
				s21.7-19.4,21.7-19.4S285,234.5,285,219c0-15.5,11.2-32,30.7-32s28.4,16.5,28.9,27.5c0.5,11.1-11.2,24.9-11.2,24.9
				s15.1,4.4,15.6,17.7c0.5,13.3-5.9,20.5-12.7,22.7c16.1,3.3,27.1,10.7,27.1,24.6C363.4,319.9,347.4,326.1,322.5,328.7"/>
		</g>
	</g>
</g>
<g id="グループ_56" transform="translate(600 224.51)">
	<path id="パス_141" class="st1" d="M731.6,355.5l0.2,28.8l328.5-1.7l-0.2-28.8L731.6,355.5z"/>
	<g id="グループ_31">
		<g>
			<defs>
				<rect id="SVGID_00000141433725929576500740000001846146566366733247_" x="731.6" y="273.7" width="328.7" height="110.6"/>
			</defs>
			<clipPath id="SVGID_00000008149462372960203910000005674788348825483436_">
				<use xlink:href="#SVGID_00000141433725929576500740000001846146566366733247_"  style="overflow:visible;"/>
			</clipPath>
			<g id="グループ_30" style="clip-path:url(#SVGID_00000008149462372960203910000005674788348825483436_);">
				<path id="パス_142" class="st16" d="M949.8,339l-1.7,0c-1.8,0-3.3-1.4-3.3-3.2l0-1.7c0-1.8,1.4-3.3,3.2-3.3l1.7,0
					c1.8,0,3.3,1.4,3.3,3.2l0,1.7C953,337.5,951.6,339,949.8,339"/>
				<path id="パス_143" class="st16" d="M795,341.2l-1.7,0c-1.8,0-3.3-1.4-3.3-3.2l0-1.7c0-1.8,1.4-3.3,3.2-3.3l1.7,0
					c1.8,0,3.3,1.4,3.3,3.2l0,1.7C798.3,339.7,796.8,341.1,795,341.2"/>
				<path id="パス_144" class="st17" d="M933.1,347.9l-122.6,1.7c-17.7,0.3-16.9-14.3-17.1-32c-0.2-13.2,9-27.7,32-38
					c16.5-7.4,74.2-8.3,90.7-1c21.8,9.6,31.2,23.8,31.3,36.8C947.6,333.3,950.8,347.7,933.1,347.9"/>
				<path id="パス_145" class="st18" d="M833.5,287.5c-17.9,4.8-29.9,13-32.7,20.6c0,0-3.3,7.4,1.7,10.7c3.1,2.2,12,0.9,19.6,0.8
					l11.9-0.2L833.5,287.5z"/>
				<path id="パス_146" class="st18" d="M907.3,286.5c18,4.3,30.3,12.1,33.3,19.6c0,0,3.5,7.3-1.4,10.8
					c-3.1,2.2-11.9,1.3-19.5,1.4l-11.9,0.2L907.3,286.5z"/>
				<path id="パス_147" class="st19" d="M907.3,286.5c16.2,4.3,27.2,12.2,29.9,19.7c0,0,3.1,7.3-1.2,10.8
					c-2.8,2.2-10.7,1.3-17.5,1.4l-10.7,0.2L907.3,286.5z"/>
				<path id="パス_148" class="st18" d="M869,284.3c-9.9,0.1-19.7,0.7-29.5,1.9l0.5,33.2l29.6-0.4L869,284.3z"/>
				<path id="パス_149" class="st19" d="M865.9,284.4c-8.8,0.1-17.7,0.7-26.4,1.9l0.5,33.2l26.4-0.4L865.9,284.4z"/>
				<path id="パス_150" class="st18" d="M875.3,284.3l0.5,34.7l27.1-0.4l-0.5-33C893.4,284.6,884.4,284.1,875.3,284.3"/>
				<path id="パス_151" class="st19" d="M875.3,284.3l0.5,34.7l23.7-0.3l-0.5-33.4C891.2,284.3,883.3,284,875.3,284.3"/>
				<path id="パス_152" class="st18" d="M880.4,349.1l-14.5,0.2c-2.2,0-4-1.7-4.1-4l-0.3-19.8c0-2.2,1.7-4,4-4.1l14.5-0.2
					c2.2,0,4,1.7,4.1,4l0.3,19.8C884.4,347.2,882.7,349,880.4,349.1"/>
				<path id="パス_153" class="st17" d="M879.4,346.6l-12.3,0.2c-1.5,0-2.8-1.2-2.8-2.7c0,0,0,0,0,0L864,327
					c0-1.5,1.2-2.8,2.7-2.8l12.3-0.2c1.5,0,2.8,1.2,2.8,2.7l0.2,17.1C882.1,345.4,880.9,346.6,879.4,346.6"/>
				<path id="パス_154" class="st20" d="M846.5,347.4c0.1,9.4-7.4,17.1-16.8,17.2c-9.4,0.1-17.1-7.4-17.2-16.8
					c-0.1-9.4,7.4-17.1,16.8-17.2C838.7,330.5,846.4,338,846.5,347.4C846.5,347.4,846.5,347.4,846.5,347.4"/>
				<path id="パス_155" class="st21" d="M839.6,347.6c0.1,5.8-4.5,10.5-10.3,10.6c-5.8,0.1-10.5-4.5-10.6-10.3
					c-0.1-5.8,4.5-10.5,10.3-10.6c0,0,0,0,0,0C834.8,337.2,839.5,341.8,839.6,347.6"/>
				<path id="パス_156" class="st16" d="M834,347.4c0,2.6-2.1,4.8-4.7,4.9c-2.6,0-4.8-2.1-4.9-4.7c0-2.6,2.1-4.8,4.7-4.9
					C831.7,342.7,833.9,344.8,834,347.4C834,347.4,834,347.4,834,347.4"/>
				<path id="パス_157" class="st20" d="M931.1,348c0.1,9.4-7.4,17.1-16.8,17.2c-9.4,0.1-17.1-7.4-17.2-16.8
					c-0.1-9.4,7.4-17.1,16.8-17.2C923.2,331.1,930.9,338.6,931.1,348C931.1,348,931.1,348,931.1,348"/>
				<path id="パス_158" class="st21" d="M924.2,348.1c0.1,5.8-4.5,10.5-10.3,10.6c-5.8,0.1-10.5-4.5-10.6-10.3
					c-0.1-5.8,4.5-10.5,10.3-10.6c0,0,0,0,0,0C919.3,337.7,924.1,342.4,924.2,348.1"/>
				<path id="パス_159" class="st16" d="M918.5,348c0,2.6-2.1,4.8-4.7,4.9c-2.6,0-4.8-2.1-4.9-4.7c0-2.6,2.1-4.8,4.7-4.9
					C916.3,343.2,918.5,345.4,918.5,348C918.5,348,918.5,348,918.5,348"/>
				<path id="パス_160" class="st19" d="M830.2,288.5c-16.3,4.8-27.3,12-29.8,19.6c0,0-2.5,6.8,1.5,10.7
					c3.5,3.4,28.7,0.7,28.7,0.7L830.2,288.5z"/>
				<path id="パス_161" class="st1" d="M815.8,295.9c-5.4,2.1-9.8,6.3-12.3,11.6c-0.6,1.3,1.4,1.8,2,0.6c2.2-4.7,6.2-8.5,11-10.3
					c0.5-0.2,0.8-0.7,0.7-1.3s-0.7-0.8-1.3-0.7C815.9,295.8,815.9,295.9,815.8,295.9"/>
				<path id="パス_162" class="st1" d="M844.8,287.5l-1.8,0.3c-0.6,0.1-1,0.7-1,1.3c0.1,0.5,0.5,0.9,1.1,0.8c0,0,0.1,0,0.1,0
					l1.8-0.3c0.6-0.1,1-0.7,1-1.3c-0.1-0.5-0.5-0.9-1.1-0.8C844.9,287.4,844.9,287.4,844.8,287.5"/>
			</g>
		</g>
	</g>
</g>
<g id="グループ_55" transform="translate(542.058 300.618)">
	<g>
		<defs>
			<rect id="SVGID_00000031178576249514680700000010897435137084339385_" x="661" y="366.5" width="92.1" height="83.9"/>
		</defs>
		<clipPath id="SVGID_00000090286277325273754500000004364265202752627348_">
			<use xlink:href="#SVGID_00000031178576249514680700000010897435137084339385_"  style="overflow:visible;"/>
		</clipPath>
		<g id="グループ_34" style="clip-path:url(#SVGID_00000090286277325273754500000004364265202752627348_);">
			<path id="パス_163" class="st23" d="M704.1,450.5c0,0,4.7-32.6-2.3-45.5c-3.7-7.2-8.9-13.5-15.2-18.6v-7
				c0,0,18.6,9.3,22.1,26.8s3.5,31.5,0,44.3L704.1,450.5z"/>
			<path id="パス_164" class="st24" d="M690.1,381.1c0,8-6.5,14.6-14.6,14.6c-8,0-14.6-6.5-14.6-14.6c0-8,6.5-14.6,14.6-14.6
				c0,0,0,0,0,0C683.6,366.5,690.1,373.1,690.1,381.1"/>
			<path id="パス_165" class="st23" d="M706.4,407.3c0,0,4.7-22.1,21-15.1c4.7-3.5,3.5-4.7,3.5-4.7s-5.8-7-16.3-2.3
				c-6,2.4-10.4,7.7-11.7,14L706.4,407.3z"/>
			<path id="パス_166" class="st23" d="M705.3,448.6c0,0,12.6-7.7,5.7-21.7s-26.4-10.6-45.5-0.1
				C685.8,426.8,705.3,448.6,705.3,448.6"/>
			<path id="パス_167" class="st24" d="M753,397.4c0,8-6.5,14.6-14.6,14.6c-8,0-14.6-6.5-14.6-14.6s6.5-14.6,14.6-14.6
				S753,389.4,753,397.4L753,397.4"/>
		</g>
	</g>
</g>
<g id="グループ_57" transform="translate(879.838 226.685)">
	<g>
		<defs>
			<rect id="SVGID_00000021119332453489098430000011117996821182897076_" x="1072.8" y="276.4" width="95.8" height="117.1"/>
		</defs>
		<clipPath id="SVGID_00000161617306559536710860000015455551539051570304_">
			<use xlink:href="#SVGID_00000021119332453489098430000011117996821182897076_"  style="overflow:visible;"/>
		</clipPath>
		<g id="グループ_36" style="clip-path:url(#SVGID_00000161617306559536710860000015455551539051570304_);">
			<path id="パス_168" class="st23" d="M1103.6,393.5c-1-0.3-0.9-1.4-1.2-2.4c-2-6.9-6.3-33.6,4.3-50.8
				c10.8-17.6,29.7-31.6,39.4-27.7c1,0.4,3.2,1.6,3.2,2.5c0,0.8-0.6,1.4-1.4,1.4c-0.8,0-1.6-0.2-2.3-0.5c-11-3.6-25.7,9.2-36,25.8
				c-10.3,16.8-5,41.6-3.7,49.8c0,0.2,0,0.5-0.1,0.7c-0.3,0.7-1,1.2-1.7,1.1L1103.6,393.5z"/>
			<path id="パス_169" class="st23" d="M1117.9,327.1c0,0,7.4-13.8,5.5-20.3s-5.5-8.3-4.6-10.1c0.9-1.8,2.8-1.8,4.6,0.9
				c2.3,3.6,3.6,7.7,3.7,12c0,3.8-0.9,7.4-4.6,14.7C1118.9,327.1,1117.9,327.1,1117.9,327.1"/>
			<path id="パス_170" class="st23" d="M1108.7,341.8c0,0,5.5-12.9,15.7-11.1c10.1,1.8,10.1,12,10.1,12.9
				c-0.8,1.3-1.7,2.6-2.8,3.7c0,0-0.9-12.9-8.3-12.9c-7.4,0-17.5,12.9-19.4,19.4C1105.2,349.7,1106.8,345.7,1108.7,341.8"/>
			<path id="パス_171" class="st23" d="M1104.1,350.1c2-8,0.3-16.4-4.6-23c-7.7-10.3-12.3-14.2-25.5-12.5
				c-0.7,0.1-1.3,0.8-1.2,1.5c0,0.3,0.2,0.6,0.5,0.9c10.1,8.3,13.5,14.7,16.9,26.7c3.7,12.9,12,47,12,47s-1.8-23-0.9-29.5
				C1101.9,357.4,1102.8,353.7,1104.1,350.1"/>
			<path id="パス_172" class="st24" d="M1128.1,287.9c0,6.4-5.2,11.5-11.5,11.5s-11.5-5.2-11.5-11.5c0-6.4,5.2-11.5,11.5-11.5
				C1122.9,276.4,1128.1,281.6,1128.1,287.9C1128.1,287.9,1128.1,287.9,1128.1,287.9"/>
			<path id="パス_173" class="st24" d="M1168.6,319.3c0,6.4-5.2,11.5-11.5,11.5s-11.5-5.2-11.5-11.5s5.2-11.5,11.5-11.5l0,0
				C1163.5,307.7,1168.6,312.9,1168.6,319.3L1168.6,319.3"/>
			<path id="パス_174" class="st24" d="M1147.4,352.4c0,6.4-5.2,11.5-11.5,11.5c-6.4,0-11.5-5.2-11.5-11.5s5.2-11.5,11.5-11.5
				C1142.3,340.9,1147.4,346.1,1147.4,352.4L1147.4,352.4"/>
		</g>
	</g>
</g>
<g id="グループ_52" transform="translate(1091.559 285.375)">
	<g>
		<defs>
			<rect id="SVGID_00000047043302893919059050000015064405469793451922_" x="1331" y="348" width="128.9" height="133.4"/>
		</defs>
		<clipPath id="SVGID_00000139991965338945509030000005849920735510032571_">
			<use xlink:href="#SVGID_00000047043302893919059050000015064405469793451922_"  style="overflow:visible;"/>
		</clipPath>
		<g id="グループ_38" style="clip-path:url(#SVGID_00000139991965338945509030000005849920735510032571_);">
			<path id="パス_175" class="st18" d="M1445.1,481.3h-95.7c-1.4,0-2.6-1.2-2.6-2.6V378.2c0-1.4,1.2-2.6,2.6-2.6h95.7
				c1.4,0,2.6,1.2,2.6,2.6v100.5C1447.7,480.2,1446.5,481.3,1445.1,481.3"/>
			<path id="パス_176" class="st19" d="M1437.8,481.3h-88.4c-1.4,0-2.6-1.2-2.6-2.6V378.2c0-1.4,1.2-2.6,2.6-2.6h88.4
				c1.4,0,2.6,1.2,2.6,2.6v100.5C1440.4,480.2,1439.3,481.3,1437.8,481.3"/>
			<path id="パス_177" class="st24" d="M1333.3,384.6c-1.3,0-2.3-1-2.3-2.3c0-0.5,0.2-1,0.5-1.4c6.4-7.8,29.3-24.2,33.5-24.2h60.8
				c4.2,0,27.1,16.4,33.5,24.2c0.8,1,0.6,2.4-0.4,3.2c-0.4,0.3-0.9,0.5-1.4,0.5L1333.3,384.6z"/>
			<path id="パス_178" class="st27" d="M1333.2,384.6c-1.3-0.1-2.2-1.1-2.2-2.4c0-0.5,0.2-0.9,0.5-1.3
				c6.1-7.8,27.7-24.2,31.7-24.2h55.3c4,0,27.7,16.4,33.8,24.2c0.8,1,0.6,2.4-0.4,3.2c-0.4,0.3-0.8,0.5-1.3,0.5L1333.2,384.6z"/>
			<path id="パス_179" class="st28" d="M1374.6,425l-18.8-0.1c-0.8,0-1.5-0.7-1.5-1.5l0.1-27.1c0-0.8,0.7-1.5,1.5-1.5l18.8,0.1
				c0.8,0,1.5,0.7,1.5,1.5l-0.1,27.1C1376.1,424.3,1375.4,425,1374.6,425"/>
			<path id="パス_180" class="st16" d="M1370.5,424.9l-14.6-0.1c-0.8,0-1.5-0.7-1.5-1.5l0.1-27.1c0-0.8,0.7-1.5,1.5-1.5l14.6,0.1
				c0.8,0,1.5,0.7,1.5,1.5l-0.1,27.1C1372,424.3,1371.3,424.9,1370.5,424.9"/>
			<path id="パス_181" class="st28" d="M1388.3,425l-7.1,0c-0.8,0-1.5-0.7-1.5-1.5l0.1-27.1c0-0.8,0.7-1.5,1.5-1.5l7.1,0
				c0.8,0,1.5,0.7,1.5,1.5l-0.1,27.1C1389.8,424.3,1389.2,425,1388.3,425"/>
			<path id="パス_182" class="st16" d="M1384.5,425l-3.3,0c-0.8,0-1.5-0.7-1.5-1.5l0.1-27.1c0-0.8,0.7-1.5,1.5-1.5l3.3,0
				c0.8,0,1.5,0.7,1.5,1.5l-0.1,27.1C1386,424.3,1385.3,425,1384.5,425"/>
			<path id="パス_183" class="st28" d="M1418.3,424.9l-18.8-0.1c-0.8,0-1.5-0.7-1.5-1.5l0.1-27.1c0-0.8,0.7-1.5,1.5-1.5
				c0,0,0,0,0,0l18.8,0.1c0.8,0,1.5,0.7,1.5,1.5l-0.1,27.1C1419.8,424.2,1419.2,424.9,1418.3,424.9"/>
			<path id="パス_184" class="st16" d="M1414.2,424.9l-14.6-0.1c-0.8,0-1.5-0.7-1.5-1.5l0.1-27.1c0-0.8,0.7-1.5,1.5-1.5l14.6,0.1
				c0.8,0,1.5,0.7,1.5,1.5l-0.1,27.1C1415.7,424.2,1415,424.9,1414.2,424.9"/>
			<path id="パス_185" class="st28" d="M1432.1,425l-7.1,0c-0.8,0-1.5-0.7-1.5-1.5l0.1-27.1c0-0.8,0.7-1.5,1.5-1.5l7.1,0
				c0.8,0,1.5,0.7,1.5,1.5l-0.1,27.1C1433.6,424.3,1432.9,425,1432.1,425"/>
			<path id="パス_186" class="st16" d="M1428.2,424.9l-3.3,0c-0.8,0-1.5-0.7-1.5-1.5l0.1-27.1c0-0.8,0.7-1.5,1.5-1.5l3.3,0
				c0.8,0,1.5,0.7,1.5,1.5l-0.1,27.1C1429.7,424.3,1429.1,424.9,1428.2,424.9"/>
			<path id="パス_187" class="st28" d="M1375.1,466.3l-18.8-0.1c-0.8,0-1.5-0.7-1.5-1.5c0,0,0,0,0,0l0.1-27.1
				c0-0.8,0.7-1.5,1.5-1.5l18.8,0.1c0.8,0,1.5,0.7,1.5,1.5l-0.1,27.1C1376.6,465.7,1376,466.3,1375.1,466.3"/>
			<path id="パス_188" class="st16" d="M1371,466.3l-14.6-0.1c-0.8,0-1.5-0.7-1.5-1.5l0.1-27.1c0-0.8,0.7-1.5,1.5-1.5l14.6,0.1
				c0.8,0,1.5,0.7,1.5,1.5l-0.1,27.1C1372.5,465.7,1371.8,466.3,1371,466.3"/>
			<path id="パス_189" class="st28" d="M1388.9,466.4l-7.1,0c-0.8,0-1.5-0.7-1.5-1.5l0.1-27.1c0-0.8,0.7-1.5,1.5-1.5l7.1,0
				c0.8,0,1.5,0.7,1.5,1.5l-0.1,27.1C1390.4,465.7,1389.7,466.4,1388.9,466.4"/>
			<path id="パス_190" class="st16" d="M1385.1,466.4l-3.3,0c-0.8,0-1.5-0.7-1.5-1.5l0.1-27.1c0-0.8,0.7-1.5,1.5-1.5l3.3,0
				c0.8,0,1.5,0.7,1.5,1.5l-0.1,27.1C1386.5,465.7,1385.9,466.4,1385.1,466.4"/>
			<path id="パス_191" class="st28" d="M1418.9,466.3l-18.8-0.1c-0.8,0-1.5-0.7-1.5-1.5l0.1-27.1c0-0.8,0.7-1.5,1.5-1.5l0,0
				l18.8,0.1c0.8,0,1.5,0.7,1.5,1.5l-0.1,27.1C1420.4,465.6,1419.7,466.3,1418.9,466.3"/>
			<path id="パス_192" class="st16" d="M1414.7,466.3l-14.6-0.1c-0.8,0-1.5-0.7-1.5-1.5l0.1-27.1c0-0.8,0.7-1.5,1.5-1.5l14.6,0.1
				c0.8,0,1.5,0.7,1.5,1.5l-0.1,27.1C1416.2,465.6,1415.5,466.3,1414.7,466.3L1414.7,466.3"/>
			<path id="パス_193" class="st28" d="M1432.6,466.4l-7.1,0c-0.8,0-1.5-0.7-1.5-1.5l0.1-27.1c0-0.8,0.7-1.5,1.5-1.5l7.1,0
				c0.8,0,1.5,0.7,1.5,1.5l-0.1,27.1C1434.1,465.7,1433.4,466.4,1432.6,466.4"/>
			<path id="パス_194" class="st16" d="M1428.8,466.3l-3.3,0c-0.8,0-1.5-0.7-1.5-1.5l0.1-27.1c0-0.8,0.7-1.5,1.5-1.5l3.3,0
				c0.8,0,1.5,0.7,1.5,1.5l-0.1,27.1C1430.3,465.7,1429.6,466.3,1428.8,466.3"/>
			<path id="パス_195" class="st24" d="M1369.4,365.3h-0.5c-2,0-3.6,0.2-3.6-1.8v-13.8c0-2,1.6-1.8,3.6-1.8h0.5
				c2,0,3.6-0.2,3.6,1.8v13.8C1372.9,365.5,1371.3,365.3,1369.4,365.3"/>
			<path id="パス_196" class="st27" d="M1390.6,430.9h-36.2c-0.7,0-1.3-0.6-1.3-1.3v-0.9c0-0.7,0.6-1.3,1.3-1.3h36.2
				c0.7,0,1.3,0.6,1.3,1.3v0.9C1391.9,430.3,1391.3,430.9,1390.6,430.9"/>
			<path id="パス_197" class="st27" d="M1434.7,430.9h-36.2c-0.7,0-1.3-0.6-1.3-1.3v-0.9c0-0.7,0.6-1.3,1.3-1.3h36.2
				c0.7,0,1.3,0.6,1.3,1.3v0.9C1435.9,430.3,1435.4,430.9,1434.7,430.9"/>
			<path id="パス_198" class="st27" d="M1391.5,473.5h-36.2c-0.7,0-1.3-0.6-1.3-1.3v-0.9c0-0.7,0.6-1.3,1.3-1.3h36.2
				c0.7,0,1.3,0.6,1.3,1.3v0.9C1392.8,472.9,1392.2,473.5,1391.5,473.5"/>
			<path id="パス_199" class="st27" d="M1435.6,473.5h-36.2c-0.7,0-1.3-0.6-1.3-1.3v-0.9c0-0.7,0.6-1.3,1.3-1.3h36.2
				c0.7,0,1.3,0.6,1.3,1.3v0.9C1436.8,472.9,1436.2,473.5,1435.6,473.5"/>
			<path id="パス_200" class="st19" d="M1349.6,373.2l-8.1,7.3c-0.5,0.4-1.3,0.4-1.8-0.1c-0.4-0.5-0.4-1.3,0.1-1.7l8.1-7.3
				c0.5-0.4,1.3-0.4,1.8,0.1C1350.1,371.9,1350.1,372.7,1349.6,373.2"/>
			<path id="パス_201" class="st19" d="M1361,362.7l-8.1,7.3c-0.5,0.5-1.3,0.5-1.8,0c-0.5-0.5-0.5-1.3,0-1.8c0,0,0,0,0.1,0
				l8.1-7.3c0.5-0.5,1.3-0.5,1.8,0S1361.6,362.2,1361,362.7C1361.1,362.7,1361.1,362.7,1361,362.7"/>
			<path id="パス_202" class="st19" d="M1357.9,371.5l-8.1,7.3c-0.5,0.5-1.3,0.5-1.8,0c-0.5-0.5-0.5-1.3,0-1.8c0,0,0,0,0.1,0
				l8.1-7.3c0.5-0.5,1.3-0.4,1.8,0.1l0,0C1358.4,370.2,1358.4,371,1357.9,371.5"/>
		</g>
	</g>
</g>
</svg>
