<svg xmlns="http://www.w3.org/2000/svg" width="300.294" height="265.766" viewBox="0 0 300.294 265.766">
  <g id="グループ_83" data-name="グループ 83" transform="translate(-46.714 -793)">
    <path id="パス_208" data-name="パス 208" d="M611.96,39.421a25.294,25.294,0,0,1,8.115,1.381,27.077,27.077,0,0,1,7.864,4.135.415.415,0,0,1,.076.076L639.279,59.2a.349.349,0,0,0,.341.12.341.341,0,0,0,.259-.254c1.734-7.4,1.7-13.927-.114-19.4a13.622,13.622,0,0,0-11.8-9.251c-1.108-.1-2.172-.257-3.2-.412s-2.012-.3-2.871-.358a.481.481,0,0,1-.355-.759,24.134,24.134,0,0,1,4.122-4.3.417.417,0,0,1,.112-.068l7.615-3.229a.336.336,0,0,0,.191-.213.346.346,0,0,0-.036-.284,5.558,5.558,0,0,0-5.571-2.522l-4.536.715a.455.455,0,0,1-.164,0c-.606-.112-3-.425-8.3.33a16.127,16.127,0,0,0-4.425,1.46.476.476,0,0,1-.655-.271,27.935,27.935,0,0,1-1.439-6.251,12.8,12.8,0,0,0-8.277-10.629,53.451,53.451,0,0,0-29.917-2.549,37.341,37.341,0,0,0-11.524,4.286.34.34,0,0,0,.005.578l15.633,9.546a5.5,5.5,0,0,0,2.206.767.124.124,0,0,1,.03.005l12.553,2.214a.548.548,0,0,1,.132.044c3.578,1.807,4.269,5.044,5,8.473a31.163,31.163,0,0,0,1.248,4.643.479.479,0,0,1-.11.5,33.083,33.083,0,0,0-3.024,3.336c-4.605,6.112-11.954,7.649-14.9,8.026a1.1,1.1,0,0,0-.824,1.61c2.653,4.853,8.085,9.533,10.812,10.171a1.471,1.471,0,0,0,1.2-.114c.636-.445,1.649-1.938,3.254-4.34,1.815-2.716,4.072-6.1,5.459-6.914.6-.35,2.159-1.09,4.139-2.026l1.43-.677A.089.089,0,0,1,603,41.2a23.779,23.779,0,0,1,8.959-1.774" transform="translate(-294.144 793)" fill="#73bcf2" opacity="0.3"/>
    <path id="パス_211" data-name="パス 211" d="M29.191,39.421A23.777,23.777,0,0,1,38.15,41.2a.089.089,0,0,1,.025.011l1.43.677c1.98.936,3.544,1.676,4.139,2.026,1.387.816,3.644,4.2,5.46,6.914,1.6,2.4,2.617,3.9,3.253,4.34a1.473,1.473,0,0,0,1.2.114c2.726-.638,8.158-5.317,10.812-10.171a1.1,1.1,0,0,0-.825-1.61c-2.946-.377-10.294-1.914-14.9-8.026a33.184,33.184,0,0,0-3.025-3.336.479.479,0,0,1-.11-.5,31.165,31.165,0,0,0,1.248-4.643c.729-3.429,1.419-6.666,5-8.473a.533.533,0,0,1,.131-.044L64.54,16.257a.118.118,0,0,1,.03-.005,5.5,5.5,0,0,0,2.2-.767L82.408,5.939a.345.345,0,0,0,.164-.287.341.341,0,0,0-.158-.292A37.351,37.351,0,0,0,70.89,1.075,53.453,53.453,0,0,0,40.972,3.624,12.8,12.8,0,0,0,32.7,14.254,27.969,27.969,0,0,1,31.257,20.5a.485.485,0,0,1-.268.281.48.48,0,0,1-.388-.011,16.119,16.119,0,0,0-4.425-1.46c-5.3-.756-7.69-.442-8.3-.33a.455.455,0,0,1-.164,0l-4.536-.715A5.558,5.558,0,0,0,7.61,20.794a.346.346,0,0,0-.036.284.338.338,0,0,0,.191.213l7.615,3.229a.418.418,0,0,1,.112.068,24.136,24.136,0,0,1,4.121,4.3.481.481,0,0,1-.355.759c-.86.057-1.831.2-2.871.358s-2.094.314-3.2.412a13.622,13.622,0,0,0-11.8,9.251c-1.809,5.47-1.847,12-.114,19.4a.343.343,0,0,0,.259.254.349.349,0,0,0,.341-.12L13.135,45.015a.416.416,0,0,1,.076-.076A27.076,27.076,0,0,1,21.075,40.8a25.3,25.3,0,0,1,8.115-1.381" transform="translate(46.714 999.435)" fill="#f29600" opacity="0.3"/>
  </g>
</svg>
