<?xml version="1.0" encoding="utf-8"?>
<!-- Generator: Adobe Illustrator 28.2.0, SVG Export Plug-In . SVG Version: 6.00 Build 0)  -->
<svg version="1.1" id="レイヤー_1" xmlns="http://www.w3.org/2000/svg" xmlns:xlink="http://www.w3.org/1999/xlink" x="0px"
	 y="0px" viewBox="0 0 240 240" style="enable-background:new 0 0 240 240;" xml:space="preserve">
<style type="text/css">
	.st0{fill:#FFEF00;}
	.st1{fill:#121212;}
</style>
<circle class="st0" cx="119.4" cy="120" r="120"/>
<g>
	<path class="st1" d="M59.3,83.8c-0.2,0.6-0.3,1.2-0.4,1.7c-0.1,0.6-0.2,1.1-0.2,1.7c0,1.1,0.5,2,1.6,2.7c1.1,0.7,2.9,1,5.3,1
		c1.5,0,3-0.1,4.5-0.2c1.4-0.1,2.8-0.3,4.1-0.5c1.3-0.2,2.4-0.4,3.4-0.7l0,4.8c-1,0.2-2.1,0.4-3.3,0.6c-1.2,0.2-2.6,0.3-4,0.4
		c-1.4,0.1-2.9,0.2-4.5,0.2c-2.6,0-4.8-0.3-6.5-0.9c-1.7-0.6-3-1.4-3.9-2.5c-0.9-1.1-1.3-2.4-1.3-4c0-1,0.1-1.9,0.2-2.7
		c0.2-0.8,0.3-1.6,0.4-2.2L59.3,83.8z M56.5,69.4c1.2,0.2,2.7,0.3,4.2,0.3c1.6,0.1,3.2,0.1,5,0.1c1.1,0,2.3,0,3.5-0.1
		s2.3-0.1,3.4-0.2c1.1-0.1,2.1-0.2,3-0.2v4.5c-0.8,0-1.8,0.1-2.9,0.2c-1.1,0.1-2.3,0.1-3.5,0.2c-1.2,0-2.4,0.1-3.5,0.1
		c-1.8,0-3.4,0-4.9-0.1c-1.5-0.1-3-0.2-4.4-0.3V69.4z M76.4,65.9c0.3,0.4,0.6,0.9,0.9,1.5c0.3,0.6,0.7,1.1,1,1.7s0.6,1.1,0.8,1.5
		l-2.8,1.2c-0.3-0.7-0.8-1.5-1.2-2.4s-1-1.7-1.4-2.3L76.4,65.9z M80.5,64.4c0.3,0.4,0.6,0.9,1,1.5c0.3,0.6,0.7,1.1,1,1.7
		c0.3,0.6,0.6,1,0.8,1.4l-2.7,1.2c-0.4-0.7-0.8-1.5-1.3-2.4c-0.5-0.9-1-1.7-1.5-2.3L80.5,64.4z"/>
	<path class="st1" d="M85.4,77.9h27.8v3.9H85.4V77.9z M88.7,66.8h20.9v3.8H88.7V66.8z M98.9,81h4.2v11.4c0,1.1-0.1,1.9-0.4,2.5
		c-0.3,0.6-0.9,1-1.7,1.3c-0.8,0.3-1.7,0.5-2.9,0.5c-1.1,0.1-2.4,0.1-3.9,0.1c-0.1-0.6-0.3-1.2-0.6-2c-0.3-0.8-0.6-1.4-0.9-1.9
		c0.7,0,1.4,0,2.1,0.1c0.7,0,1.4,0,1.9,0s1,0,1.2,0c0.3,0,0.6-0.1,0.7-0.2c0.1-0.1,0.2-0.3,0.2-0.5V81z M93.4,74.9l2.1-3.1
		c0.9,0.3,1.9,0.7,3.1,1.1c1.1,0.4,2.3,0.8,3.5,1.3c1.2,0.4,2.3,0.9,3.3,1.3c1,0.4,1.9,0.8,2.7,1.1l-2.2,3.5
		c-0.7-0.3-1.5-0.7-2.5-1.2c-1-0.4-2.1-0.9-3.2-1.4c-1.1-0.5-2.3-0.9-3.4-1.4C95.5,75.7,94.4,75.3,93.4,74.9z M108,66.8h1.1l0.9-0.2
		l2.9,2.3c-1,1-2,1.9-3.2,2.9c-1.2,1-2.4,1.9-3.6,2.8c-1.2,0.9-2.5,1.7-3.7,2.3c-0.2-0.3-0.4-0.6-0.7-0.9c-0.3-0.3-0.6-0.7-0.9-1
		c-0.3-0.3-0.6-0.6-0.8-0.8c1-0.5,2-1.2,3.1-2c1.1-0.8,2-1.6,2.9-2.4s1.6-1.5,2.1-2.2V66.8z M111.8,77.9h0.7l0.7-0.3l3.3,1.5
		c-0.7,1.6-1.6,3.2-2.6,4.8c-1,1.6-1.9,3-2.9,4.1l-3.5-2c0.5-0.6,1-1.4,1.5-2.2c0.5-0.8,1-1.7,1.5-2.6s0.9-1.8,1.2-2.6V77.9z"/>
	<path class="st1" d="M120.1,84.9l3.4,0.6c-0.2,1.6-0.5,3.2-0.8,4.8c-0.4,1.6-0.8,2.9-1.3,4c-0.2-0.2-0.5-0.3-0.9-0.5
		s-0.8-0.4-1.2-0.6c-0.4-0.2-0.7-0.3-1-0.4c0.5-1,0.9-2.2,1.2-3.7C119.8,87.7,120,86.3,120.1,84.9z M118.7,73l1.9-2.8
		c0.6,0.5,1.2,1.1,1.8,1.7c0.6,0.6,1.2,1.2,1.8,1.9c0.5,0.6,0.9,1.2,1.2,1.7l-2.1,3.2c-0.3-0.5-0.7-1.1-1.2-1.8
		c-0.5-0.7-1.1-1.3-1.7-2C119.9,74.1,119.3,73.5,118.7,73z M118.7,79.9c1.6,0,3.5-0.1,5.7-0.2c2.2-0.1,4.5-0.2,6.7-0.3l0,3.2
		c-2.1,0.2-4.3,0.3-6.4,0.5c-2.1,0.1-4,0.3-5.7,0.4L118.7,79.9z M123.9,64.9l3.6,1.3c-0.5,0.9-0.9,1.8-1.4,2.7
		c-0.5,0.9-1,1.8-1.5,2.7s-0.9,1.6-1.4,2.2l-2.8-1.1c0.4-0.7,0.8-1.5,1.3-2.4c0.4-0.9,0.8-1.8,1.2-2.7
		C123.3,66.6,123.7,65.7,123.9,64.9z M128,69l3.5,1.4c-0.8,1.3-1.7,2.6-2.7,4.1c-1,1.4-2,2.8-3,4.1c-1,1.3-1.9,2.4-2.8,3.4l-2.5-1.3
		c0.7-0.8,1.3-1.6,2-2.6c0.7-1,1.4-2,2-3c0.7-1,1.3-2.1,1.9-3.1C127,70.8,127.6,69.8,128,69z M124.1,81.7h3.6v15.2h-3.6V81.7z
		 M127.2,77.1l2.9-1.3c0.5,0.7,0.9,1.6,1.3,2.4c0.4,0.9,0.8,1.7,1.1,2.5c0.3,0.8,0.6,1.6,0.7,2.2l-3.1,1.4c-0.1-0.6-0.4-1.4-0.6-2.2
		c-0.3-0.9-0.6-1.7-1-2.6C128,78.8,127.6,77.9,127.2,77.1z M127.7,85.6l3-1c0.5,1,0.9,2.1,1.3,3.3c0.4,1.2,0.7,2.2,0.9,3.1l-3.2,1.2
		c-0.2-0.9-0.4-2-0.8-3.2C128.6,87.8,128.2,86.7,127.7,85.6z M135.9,64.8l4.2,1c-0.5,1.7-1,3.3-1.7,4.9c-0.7,1.6-1.4,3.1-2.2,4.5
		c-0.8,1.4-1.6,2.6-2.5,3.7c-0.3-0.2-0.6-0.5-1.1-0.8s-0.9-0.6-1.4-0.9c-0.5-0.3-0.9-0.5-1.2-0.7c0.9-0.9,1.7-2,2.4-3.2
		c0.7-1.2,1.4-2.6,2-4S135.5,66.3,135.9,64.8z M134.5,80.3l3.3-1.6c0.6,0.8,1.2,1.6,1.8,2.5c0.6,0.9,1.1,1.8,1.6,2.7
		c0.5,0.9,0.8,1.7,1.1,2.4l-3.5,1.8c-0.2-0.7-0.5-1.5-1-2.4c-0.4-0.9-0.9-1.9-1.5-2.8C135.7,82,135.1,81.1,134.5,80.3z M135.7,70.7
		h12.2v3.9h-12.2V70.7z M146.1,70.7h3.9c0,0.5,0,0.9,0,1.2c0,0.3,0,0.5,0,0.7c-0.1,3.7-0.2,6.9-0.4,9.5c-0.1,2.6-0.3,4.8-0.5,6.5
		c-0.2,1.7-0.4,3-0.6,4c-0.2,1-0.5,1.7-0.9,2.1c-0.5,0.7-1,1.1-1.5,1.4c-0.5,0.2-1.1,0.4-1.9,0.5c-0.6,0.1-1.4,0.1-2.4,0.1
		c-1,0-2,0-3,0c0-0.6-0.2-1.3-0.4-2.1c-0.2-0.8-0.6-1.5-1-2.1c1.1,0.1,2.1,0.1,3,0.2s1.6,0,2,0c0.4,0,0.7,0,0.9-0.1
		c0.2-0.1,0.4-0.2,0.6-0.4c0.3-0.3,0.5-0.9,0.7-1.8c0.2-0.9,0.4-2.2,0.5-3.8c0.1-1.6,0.3-3.7,0.4-6.2c0.1-2.5,0.2-5.5,0.3-8.9V70.7z
		"/>
	<path class="st1" d="M161.4,67.5c-0.1,0.2-0.2,0.5-0.3,1c-0.1,0.4-0.2,0.8-0.3,1.2c-0.1,0.4-0.1,0.7-0.2,0.9
		c-0.1,0.5-0.2,1.1-0.4,1.9s-0.3,1.7-0.4,2.7c-0.1,1-0.3,2-0.4,3.1c-0.1,1.1-0.2,2.1-0.3,3c-0.1,0.9-0.1,1.8-0.1,2.4
		c0,0.3,0,0.7,0,1.1c0,0.4,0.1,0.8,0.1,1.1c0.2-0.4,0.3-0.8,0.5-1.2c0.2-0.4,0.3-0.8,0.5-1.2c0.2-0.4,0.4-0.8,0.5-1.2l2.1,1.7
		c-0.3,0.9-0.6,1.9-1,2.9c-0.3,1-0.6,2-0.9,2.9s-0.5,1.7-0.6,2.3c0,0.2-0.1,0.5-0.1,0.8c0,0.3-0.1,0.6-0.1,0.8c0,0.2,0,0.4,0,0.7
		s0,0.5,0.1,0.7l-3.8,0.3c-0.4-1.2-0.7-2.7-1-4.6c-0.3-1.9-0.4-4-0.4-6.3c0-1.3,0.1-2.6,0.2-4c0.1-1.4,0.2-2.7,0.4-4
		s0.3-2.5,0.5-3.6c0.2-1.1,0.3-1.9,0.4-2.6c0.1-0.5,0.1-1,0.2-1.6s0.1-1.2,0.1-1.7L161.4,67.5z M178,67.2c0,0.3-0.1,0.7-0.1,1.1
		c0,0.4-0.1,0.8-0.1,1.2c0,0.4,0,0.9-0.1,1.5c0,0.6,0,1.3,0,2.1c0,0.8,0,1.6,0,2.4c0,1.5,0,3,0.1,4.3c0,1.3,0.1,2.6,0.2,3.7
		c0.1,1.1,0.1,2.2,0.2,3.1c0.1,1,0.1,1.8,0.1,2.7c0,0.9-0.1,1.7-0.4,2.4c-0.2,0.7-0.6,1.4-1.1,2s-1.2,1-2.1,1.3
		c-0.9,0.3-1.9,0.5-3.1,0.5c-2.4,0-4.2-0.5-5.6-1.4c-1.4-1-2-2.3-2-4.1c0-1.2,0.3-2.2,0.9-3c0.6-0.9,1.5-1.6,2.6-2
		c1.1-0.5,2.5-0.7,4-0.7c1.6,0,3.1,0.2,4.4,0.5c1.3,0.3,2.5,0.8,3.6,1.4c1.1,0.6,2.1,1.2,2.9,1.9s1.6,1.3,2.3,1.9l-2.3,3.6
		c-1.3-1.2-2.5-2.3-3.8-3.2c-1.2-0.9-2.4-1.6-3.7-2c-1.2-0.5-2.5-0.7-3.8-0.7c-1,0-1.7,0.2-2.3,0.5c-0.6,0.4-0.9,0.9-0.9,1.5
		c0,0.7,0.3,1.2,0.9,1.5s1.4,0.5,2.2,0.5c0.7,0,1.3-0.1,1.7-0.4c0.4-0.2,0.7-0.6,0.9-1.1c0.2-0.5,0.3-1,0.3-1.7c0-0.6,0-1.4-0.1-2.3
		c0-1-0.1-2-0.2-3.2s-0.1-2.4-0.2-3.7c0-1.3-0.1-2.5-0.1-3.8c0-1.3,0-2.5,0-3.5c0-1.1,0-1.8,0-2.4c0-0.2,0-0.6-0.1-1.1
		c0-0.5-0.1-0.9-0.2-1.2H178z M165.1,72.9c1,0.1,2,0.2,2.9,0.2c1,0.1,2,0.1,3,0.1c2.1,0,4.2-0.1,6.2-0.3c2.1-0.2,4-0.5,5.7-0.9v4.2
		c-1.8,0.2-3.7,0.4-5.7,0.6c-2.1,0.1-4.1,0.2-6.2,0.2c-1,0-2,0-3-0.1c-1,0-2-0.1-3-0.2V72.9z"/>
	<path class="st1" d="M77.1,131.5c-0.2,0.6-0.3,1.2-0.4,1.7c-0.1,0.6-0.2,1.1-0.2,1.7c0,1.1,0.5,2,1.6,2.7c1.1,0.7,2.9,1.1,5.3,1.1
		c1.5,0,3-0.1,4.5-0.2c1.4-0.1,2.8-0.3,4.1-0.5s2.4-0.4,3.4-0.7l0,4.8c-1,0.2-2.1,0.4-3.3,0.6s-2.5,0.3-4,0.4
		c-1.4,0.1-2.9,0.2-4.5,0.2c-2.6,0-4.7-0.3-6.5-0.9c-1.7-0.6-3-1.4-3.9-2.5c-0.9-1.1-1.3-2.4-1.3-4c0-1,0.1-1.9,0.2-2.7
		c0.2-0.8,0.3-1.5,0.4-2.2L77.1,131.5z M74.2,117.1c1.2,0.1,2.7,0.2,4.2,0.3c1.6,0.1,3.2,0.1,5,0.1c1.1,0,2.3,0,3.5-0.1
		c1.2,0,2.3-0.1,3.5-0.2c1.1-0.1,2.1-0.1,3-0.2v4.5c-0.8,0.1-1.8,0.1-2.9,0.2c-1.1,0.1-2.3,0.1-3.5,0.2c-1.2,0-2.4,0.1-3.5,0.1
		c-1.8,0-3.4,0-4.9-0.1s-3-0.2-4.4-0.3V117.1z"/>
	<path class="st1" d="M104.3,118.7c1.1,0.2,2.3,0.3,3.5,0.5c1.3,0.1,2.4,0.2,3.5,0.2c1.1,0,2.3,0,3.6-0.1c1.3-0.1,2.7-0.2,4.1-0.3
		c1.5-0.1,2.9-0.3,4.4-0.5c1.5-0.2,2.9-0.5,4.3-0.8l0.1,4c-1.1,0.2-2.3,0.4-3.7,0.5c-1.4,0.2-2.8,0.3-4.3,0.5s-3,0.3-4.4,0.4
		c-1.5,0.1-2.8,0.1-4,0.1c-1.3,0-2.6,0-3.8-0.1c-1.2-0.1-2.3-0.1-3.3-0.2V118.7z M116.2,114.7c-0.2,0.6-0.3,1.2-0.5,1.8
		c-0.1,0.6-0.2,1.2-0.4,1.7c-0.1,0.5-0.2,1.2-0.4,1.9c-0.1,0.7-0.3,1.4-0.5,2.2c-0.2,0.8-0.4,1.6-0.5,2.4s-0.4,1.6-0.6,2.3
		s-0.4,1.5-0.6,2.1c1.4-0.8,2.8-1.3,4.1-1.6c1.4-0.3,2.8-0.5,4.3-0.5c1.8,0,3.4,0.3,4.8,0.9c1.4,0.6,2.4,1.5,3.2,2.6
		c0.8,1.1,1.1,2.4,1.1,3.8c0,1.9-0.4,3.5-1.3,4.8c-0.9,1.3-2.1,2.3-3.7,3.1c-1.6,0.7-3.6,1.2-5.8,1.4c-2.3,0.2-4.8,0.2-7.5-0.1
		l-1.2-4.4c1.9,0.3,3.7,0.5,5.5,0.5c1.8,0,3.4-0.2,4.8-0.5c1.4-0.3,2.6-0.9,3.4-1.6c0.9-0.8,1.3-1.8,1.3-3c0-1-0.4-1.9-1.3-2.6
		c-0.9-0.7-2.1-1.1-3.8-1.1c-2,0-3.8,0.3-5.4,1c-1.6,0.7-3,1.7-4,3c-0.2,0.2-0.3,0.5-0.5,0.7s-0.3,0.5-0.5,0.8l-4-1.4
		c0.6-1.2,1.2-2.6,1.8-4.2s1-3.1,1.5-4.7c0.4-1.6,0.8-3.1,1.1-4.4c0.3-1.4,0.5-2.5,0.6-3.3c0.1-0.7,0.2-1.3,0.2-1.9c0-0.5,0-1,0-1.6
		L116.2,114.7z"/>
	<path class="st1" d="M146.3,121.2c-0.1,0.5-0.2,1-0.4,1.8c-0.1,0.7-0.2,1.5-0.4,2.2c-0.1,0.8-0.2,1.5-0.3,2.2
		c-0.1,0.7-0.2,1.3-0.3,1.8c1.5-1.1,3.2-1.9,4.8-2.4c1.7-0.5,3.4-0.8,5.2-0.8c2,0,3.7,0.4,5.1,1.1c1.4,0.7,2.5,1.7,3.2,2.9
		c0.7,1.2,1.1,2.5,1.1,3.8c0,1.5-0.3,3-1,4.3c-0.7,1.3-1.7,2.4-3.2,3.4s-3.5,1.6-5.9,2c-2.4,0.4-5.4,0.4-8.9,0.1l-1.3-4.5
		c3.4,0.5,6.3,0.5,8.6,0.2c2.3-0.3,4.1-1,5.3-2c1.2-1,1.8-2.2,1.8-3.6c0-0.7-0.2-1.4-0.6-2c-0.4-0.6-1-1-1.8-1.4
		c-0.8-0.3-1.6-0.5-2.6-0.5c-1.9,0-3.7,0.3-5.4,1c-1.7,0.7-3,1.7-4.1,3c-0.3,0.4-0.5,0.7-0.7,1c-0.2,0.3-0.4,0.6-0.5,1l-3.9-1
		c0.1-0.7,0.3-1.4,0.4-2.3s0.3-1.9,0.4-2.9c0.1-1,0.3-2.1,0.4-3.1c0.1-1,0.2-2.1,0.3-3.1s0.2-1.9,0.2-2.8L146.3,121.2z M146.1,114.4
		c0.8,0.2,1.8,0.5,3.1,0.8s2.5,0.5,3.8,0.8c1.3,0.3,2.6,0.5,3.8,0.7c1.2,0.2,2.2,0.3,2.9,0.4l-1,4.1c-0.7-0.1-1.5-0.2-2.5-0.4
		s-2-0.4-3.1-0.6c-1.1-0.2-2.1-0.4-3.2-0.6c-1-0.2-2-0.4-2.9-0.6c-0.9-0.2-1.6-0.4-2.1-0.5L146.1,114.4z"/>
</g>
<g>
	<rect x="89.4" y="173.6" class="st1" width="55.7" height="4"/>
	<g>
		<polygon class="st1" points="131.8,192 129.1,189.1 143.5,175.6 129.1,162.2 131.8,159.3 149.4,175.6 		"/>
	</g>
</g>
</svg>
