<?xml version="1.0" encoding="utf-8"?>
<!-- Generator: Adobe Illustrator 28.2.0, SVG Export Plug-In . SVG Version: 6.00 Build 0)  -->
<svg version="1.1" id="レイヤー_1" xmlns="http://www.w3.org/2000/svg" xmlns:xlink="http://www.w3.org/1999/xlink" x="0px"
	 y="0px" viewBox="0 0 400 215.2" style="enable-background:new 0 0 400 215.2;" xml:space="preserve">
<style type="text/css">
	.st0{fill:#1A75BB;}
	.st1{fill:#25A9E0;}
	.st2{fill:#221E1F;}
</style>
<g>
	<path class="st0" d="M0,171.5c0,0,1.2,1.1,3.6,3.1c0.6,0.5,1.3,1,2,1.6c0.4,0.3,0.7,0.6,1.1,0.9c0.4,0.3,0.8,0.6,1.3,0.9
		c1.8,1.3,3.8,2.8,6.2,4.3c4.7,3,10.7,6.2,17.8,8.9c3.6,1.4,7.4,2.6,11.6,3.6c1,0.2,2.1,0.5,3.1,0.8c1.1,0.2,2.1,0.5,3.2,0.7
		c1.1,0.2,2.2,0.4,3.3,0.6c1.1,0.2,2.3,0.4,3.4,0.5c9.2,1.3,19.4,1.8,30.1,1.3c10.8-0.4,22.1-1.7,33.8-3.6c3-0.5,6-1,9-1.5
		c3-0.6,6-1.1,9-1.7c3-0.6,6.1-1.2,9.2-1.8c3.1-0.6,6.2-1.2,9.3-1.9c12.5-2.5,25.2-5.3,38-7.8c12.9-2.5,25.8-4.8,38.8-6.6
		c6.5-0.9,12.9-1.6,19.3-2.2c0.8-0.1,1.6-0.1,2.4-0.2c0.8-0.1,1.6-0.1,2.4-0.2c1.6-0.1,3.2-0.2,4.8-0.3c0.8-0.1,1.6-0.1,2.4-0.2
		c-0.1,0,0.3,0,0.3,0l0.1,0l0.3,0l0.6,0l1.2,0c1.5,0,3.1-0.1,4.6-0.1c12.9-0.3,25.2,0.7,36.6,2.5c11.5,1.8,22.1,4.4,31.7,7.4
		c1.2,0.4,2.4,0.7,3.6,1.1c0.3,0.1,0.6,0.2,0.9,0.3c0.3,0.1,0.6,0.2,0.9,0.3c0.6,0.2,1.1,0.4,1.7,0.6c1.1,0.4,2.2,0.8,3.3,1.2
		c0.6,0.2,1.1,0.4,1.6,0.6c0.3,0.1,0.5,0.2,0.8,0.3c0.3,0.1,0.5,0.2,0.8,0.3c2.1,0.8,4.2,1.7,6.2,2.5c0.5,0.2,1,0.4,1.5,0.6
		c0.5,0.2,1,0.4,1.4,0.6c1,0.4,1.9,0.9,2.8,1.3c1.8,0.8,3.6,1.6,5.3,2.5c1.7,0.8,3.3,1.7,4.9,2.4c0.4,0.2,0.8,0.4,1.2,0.6
		c0.4,0.2,0.7,0.4,1.1,0.6c0.7,0.4,1.5,0.8,2.2,1.2c1.4,0.8,2.7,1.5,4,2.2c5,2.9,8.8,5.3,11.4,7.1c2.6,1.7,3.9,2.7,3.9,2.7
		s-1.6-0.5-4.5-1.6c-0.7-0.3-1.5-0.5-2.4-0.9c-0.4-0.2-0.9-0.3-1.4-0.5c-0.5-0.2-1-0.3-1.5-0.5c-1.1-0.4-2.2-0.7-3.4-1.1
		c-0.6-0.2-1.2-0.4-1.9-0.6c-0.6-0.2-1.3-0.5-2-0.6c-1.4-0.4-2.8-0.8-4.3-1.3c-0.7-0.2-1.5-0.5-2.3-0.7c-0.4-0.1-0.8-0.3-1.2-0.4
		c-0.4-0.1-0.8-0.2-1.2-0.3c-1.6-0.5-3.4-0.9-5.1-1.4c-1.8-0.5-3.6-1-5.5-1.4c-0.9-0.2-1.9-0.5-2.9-0.7c-0.5-0.1-1-0.3-1.5-0.4
		c-0.5-0.1-1-0.2-1.5-0.3c-2-0.5-4.1-0.9-6.2-1.4c-0.3-0.1-0.5-0.1-0.8-0.2c-0.3-0.1-0.5-0.1-0.8-0.2c-0.5-0.1-1.1-0.2-1.6-0.3
		c-1.1-0.2-2.2-0.4-3.3-0.7c-0.6-0.1-1.1-0.2-1.7-0.3c-0.3-0.1-0.6-0.1-0.9-0.2c-0.3,0-0.6-0.1-0.9-0.1c-1.2-0.2-2.3-0.4-3.5-0.6
		c-9.4-1.6-19.7-2.8-30.5-3.4c-10.8-0.6-22.3-0.5-33.7,0.4c-1.5,0.1-3,0.3-4.6,0.4l-1.2,0.1l-0.6,0.1l-0.3,0l-0.1,0
		c-0.1,0,0.3,0,0.1,0c-0.7,0.1-1.5,0.2-2.2,0.3c-1.5,0.2-3,0.4-4.5,0.6c-0.8,0.1-1.5,0.2-2.3,0.3c-0.8,0.1-1.5,0.2-2.3,0.3
		c-3,0.4-6.1,0.8-9.2,1.3c-3.1,0.5-6.2,0.9-9.3,1.5c-12.4,2.1-25.1,4.5-37.8,7.1c-12.7,2.5-25.6,5-38.3,7.2
		c-3.2,0.5-6.4,1.1-9.6,1.6c-3.2,0.5-6.4,1-9.5,1.4c-3.2,0.4-6.4,0.9-9.5,1.2c-1.5,0.2-3.1,0.3-4.6,0.5c-0.8,0.1-1.5,0.2-2.3,0.3
		l-1.1,0.1l-0.7,0.1l-0.6,0.1c-12.5,1.2-24.8,1.6-36.5,0.9c-11.7-0.7-22.7-2.5-32.5-5.3c-1.2-0.4-2.5-0.7-3.6-1.1
		c-1.2-0.4-2.4-0.8-3.5-1.2c-1.2-0.4-2.3-0.9-3.4-1.3c-0.6-0.2-1.1-0.4-1.7-0.7c-0.5-0.2-1.1-0.5-1.6-0.7c-0.5-0.2-1.1-0.4-1.6-0.7
		c-0.5-0.2-1-0.5-1.6-0.7c-1-0.5-2-1-3-1.5c-1-0.5-2-1-2.9-1.5c-0.9-0.5-1.8-1.1-2.7-1.6c-0.2-0.1-0.4-0.3-0.7-0.4
		c-0.2-0.1-0.4-0.3-0.7-0.4c-0.4-0.3-0.9-0.5-1.3-0.8c-0.8-0.5-1.7-1.1-2.5-1.6c-0.8-0.6-1.6-1.1-2.3-1.6c-0.8-0.5-1.5-1.1-2.2-1.7
		c-2.8-2.2-5.2-4.4-7.3-6.4c-0.5-0.5-1-1-1.5-1.5c-0.5-0.5-0.9-1-1.4-1.5c-0.2-0.2-0.4-0.5-0.7-0.7c-0.2-0.2-0.4-0.5-0.6-0.7
		c-0.4-0.5-0.8-0.9-1.1-1.3c-0.4-0.4-0.7-0.8-1.1-1.2c-0.3-0.4-0.6-0.8-0.9-1.2c-0.6-0.8-1.1-1.5-1.6-2.1c-0.9-1.3-1.5-2.3-2-2.9
		C0.2,171.8,0,171.5,0,171.5z"/>
	<path class="st1" d="M0,10.2c0,0,1.3,1,3.7,3c0.6,0.5,1.3,1,2,1.5c0.4,0.3,0.8,0.6,1.2,0.9c0.4,0.3,0.9,0.6,1.3,0.9
		c1.8,1.3,3.9,2.6,6.3,4.1c4.8,2.8,10.8,5.9,18.1,8.4c3.6,1.2,7.5,2.4,11.7,3.3c1,0.2,2.1,0.5,3.2,0.7c1.1,0.2,2.2,0.4,3.3,0.6
		c1.1,0.2,2.2,0.3,3.3,0.5c1.1,0.2,2.3,0.3,3.4,0.4c9.3,1,19.4,1.1,30.1,0.4c10.7-0.8,22-2.4,33.6-4.7c3-0.6,5.9-1.2,8.9-1.8
		c3-0.6,5.9-1.3,8.9-2c3-0.7,6.1-1.4,9.1-2.1c3.1-0.7,6.1-1.5,9.2-2.2c12.3-3,24.9-6.1,37.6-9.1c12.7-2.9,25.6-5.7,38.4-7.9
		c6.4-1.1,12.8-2.1,19.2-2.9c0.8-0.1,1.6-0.2,2.4-0.3c0.8-0.1,1.6-0.2,2.4-0.3c1.6-0.2,3.2-0.3,4.8-0.5c0.8-0.1,1.6-0.2,2.4-0.2
		l0.3,0l0.1,0l0.3,0l0.6,0l1.2-0.1c1.5-0.1,3.1-0.2,4.6-0.3c12.9-0.7,25.1-0.2,36.5,1.2c11.5,1.4,22.1,3.6,31.8,6.2
		c1.2,0.3,2.4,0.7,3.6,1c0.3,0.1,0.6,0.2,0.9,0.2c0.3,0.1,0.6,0.2,0.9,0.3c0.6,0.2,1.2,0.4,1.7,0.5c1.1,0.4,2.3,0.7,3.4,1.1
		c0.6,0.2,1.1,0.3,1.7,0.5c0.3,0.1,0.5,0.2,0.8,0.3c0.3,0.1,0.5,0.2,0.8,0.3c2.1,0.8,4.2,1.5,6.2,2.2c0.5,0.2,1,0.4,1.5,0.5
		c0.5,0.2,1,0.4,1.5,0.6c1,0.4,1.9,0.8,2.9,1.2c3.7,1.5,7.2,3.1,10.3,4.5c1.6,0.7,3.1,1.5,4.5,2.2c1.4,0.7,2.8,1.4,4.1,2.1
		c5.1,2.7,9,5,11.6,6.7c2.6,1.6,4,2.5,4,2.5s-1.6-0.5-4.5-1.4c-0.7-0.2-1.5-0.5-2.4-0.8c-0.4-0.1-0.9-0.3-1.4-0.5
		c-0.5-0.1-1-0.3-1.5-0.5c-1.1-0.3-2.2-0.7-3.4-1c-1.2-0.4-2.5-0.8-3.9-1.2c-1.4-0.4-2.8-0.8-4.3-1.2c-1.5-0.4-3.1-0.9-4.7-1.3
		c-3.3-0.8-6.8-1.8-10.7-2.6c-7.6-1.7-16.3-3.3-25.7-4.6c-9.5-1.3-19.7-2.2-30.5-2.4c-10.8-0.3-22.2,0.2-33.7,1.5
		c-1.5,0.2-3,0.4-4.6,0.6l-1.1,0.1l-0.6,0.1l-0.3,0l-0.1,0c-0.1,0,0.3,0,0,0c-0.7,0.1-1.5,0.2-2.2,0.3c-1.5,0.2-3,0.5-4.5,0.7
		c-0.8,0.1-1.5,0.2-2.3,0.4c-0.8,0.1-1.5,0.3-2.3,0.4c-3,0.5-6.1,1-9.1,1.6c-3.1,0.6-6.1,1.1-9.2,1.8c-12.3,2.5-24.8,5.4-37.5,8.3
		c-12.6,2.9-25.3,5.9-37.9,8.5c-3.2,0.6-6.3,1.3-9.5,1.9c-3.2,0.6-6.3,1.2-9.4,1.7c-3.2,0.5-6.3,1.1-9.4,1.6
		c-3.1,0.4-6.2,0.9-9.2,1.3c-12.4,1.7-24.6,2.5-36.3,2.2c-11.6-0.3-22.7-1.7-32.6-4.1c-9.9-2.4-18.7-6-26-9.9c-3.6-2-6.9-4-9.8-6.2
		c-2.9-2.1-5.4-4.2-7.5-6.1c-0.6-0.5-1.1-1-1.5-1.5c-0.5-0.5-1-0.9-1.4-1.4c-0.2-0.2-0.5-0.5-0.7-0.7c-0.2-0.2-0.4-0.5-0.6-0.7
		c-0.4-0.4-0.8-0.9-1.2-1.3c-0.4-0.4-0.7-0.8-1.1-1.2c-0.3-0.4-0.7-0.8-1-1.2c-0.6-0.7-1.2-1.4-1.6-2c-0.9-1.2-1.6-2.2-2.1-2.8
		C0.2,10.5,0,10.2,0,10.2z"/>
	<g>
		<path class="st2" d="M8.2,100.6c4.5,1.9,9.9,5,12.5,7.5l-2.9,3.9c-2.5-2.5-7.8-5.8-12.3-7.8L8.2,100.6z M7.3,143.3
			c3.4-5.7,8.1-15.4,11.5-23.6l3.8,2.7c-3.1,7.7-7.3,16.7-10.4,22.2c0.3,0.4,0.4,0.8,0.4,1.2c0,0.3-0.1,0.5-0.2,0.7L7.3,143.3z
			 M21.2,92.8c-2.5-2.6-7.8-6.2-12.2-8.4l2.8-3.5c4.4,2.1,9.7,5.4,12.3,8.1L21.2,92.8z M72.6,120.7h-6.4c-0.2,4.7-0.4,8.6-0.7,11.7
			h6.7v4.3H65c-1.3,10.1-3.7,10.4-10.7,10.4c-1.7,0-3.7,0-5.7-0.1c-0.1-1.2-0.6-3.1-1.3-4.2c4,0.3,7.5,0.3,9.1,0.3
			c2.4,0,3.2-1.9,3.8-6.3H33l-0.6,3.6l-4.6-0.4c0.9-5,1.9-12,2.8-19.2h-7.5v-4.5h8c0.6-5.3,1.2-10.7,1.6-15.3h31.7l2.6,0.1
			c-0.1,0.4-0.1,1.1-0.1,1.5l-0.4,13.6h6.2V120.7z M72.1,93.9H35.2c-2.4,5.3-5.2,10.2-8.2,13.7c-0.9-0.8-2.6-2.2-3.7-2.9
			c4.9-5.5,9.2-15.1,11.8-24.6l5.9,1.6c-0.1,0.5-0.6,0.8-1.6,0.8c-0.7,2.3-1.5,4.6-2.4,6.9h35.1V93.9z M44.6,132.4
			c0.4-3.4,0.7-7.4,1.2-11.7H35.1c-0.5,4.1-1,8.1-1.5,11.7H44.6z M46.1,116.2c0.3-3.7,0.5-7.5,0.7-10.9H36.8
			c-0.4,3.5-0.8,7.2-1.2,10.9H46.1z M50,120.7c-0.4,4.2-0.7,8.4-1.1,11.7h12c0.3-3,0.5-6.8,0.7-11.7H50z M51.1,105.3
			c-0.3,3.5-0.5,7.2-0.8,10.9h11.5c0.1-3.2,0.2-6.9,0.4-10.9H51.1z"/>
		<path class="st2" d="M105.7,132.8c3.7,5.5,10.4,8.1,19.4,8.5c2.5,0.1,5.8,0.1,9.6,0.1c8.4,0,18.6-0.2,24.7-0.6
			c-0.6,1.1-1.3,3.2-1.6,4.6c-5,0.1-13.1,0.3-20.5,0.3c-4.6,0-8.9,0-12.1-0.1c-9.9-0.4-16.8-3-21.5-8.8c-3,3.2-6.1,6.4-8.7,8.9
			c0.1,0.6-0.1,0.9-0.6,1.2l-2.7-4.9c2.8-2.3,6.3-5.5,9.4-8.6v-19.7h-8.8V109h13.4V132.8z M102.8,97.3c-1.7-3.7-6-9.1-10.1-12.9
			l3.8-2.4c4.1,3.7,8.5,8.9,10.3,12.7L102.8,97.3z M119.8,108.2c-0.9,11.7-2.9,21.9-8.5,28.7c-0.7-1-2.2-2.3-3.2-3
			c6.8-8,7.7-22.2,7.9-38.9h-7.1v-4.2h10.3V80.2l6,0.4c-0.1,0.5-0.5,0.9-1.4,0.9v9.3h10.4v4c2-4.3,3.7-9.6,4.8-14.8l5.5,1.5
			c-0.1,0.4-0.6,0.7-1.4,0.7c-0.5,2-1.1,4-1.7,6h17.1v4.2h-18.6c-1,2.4-2.1,4.8-3.2,6.8H154l0.7-0.3l3.3,2.2c-0.1,0.3-0.6,0.5-1,0.5
			c-2,3.2-5.5,7.1-8.5,10v3.4h10.2v4.3h-10.2v13c0,2.2-0.4,3.5-2.1,4.1c-1.7,0.7-4.2,0.7-8.4,0.7c-0.2-1.2-0.9-2.8-1.5-4
			c1.5,0.1,2.9,0.1,4,0.1c1.2,0,2,0,2.4-0.1c0.8,0,1-0.2,1-0.9v-13h-10.2v-4.3h10.2v-6.6l2.2,0.1c1.6-1.7,3.2-3.7,4.5-5.5h-14.2
			v-3.9c-0.6,1-1.2,1.9-1.7,2.7c-0.7-0.7-2.4-2-3.4-2.6c0.9-1.2,1.7-2.8,2.5-4.5h-13.6c-0.1,3-0.2,6-0.4,9h9.4l2.3,0.1
			c-0.1,0.4-0.1,1-0.1,1.6c-0.5,20.6-0.9,27.1-2.5,29.3c-1,1.3-2,1.7-3.7,1.9c-0.7,0.1-1.7,0.1-2.7,0.1c-1,0-2.2,0-3.3-0.1
			c-0.1-1.2-0.5-3-1.2-4c2.3,0.2,4.4,0.2,5.3,0.2c0.9,0,1.4-0.1,1.8-0.9c0.9-1.4,1.5-7.3,1.9-24.1H119.8z"/>
		<path class="st2" d="M181.9,91c2.7,5.3,5.9,14,6.9,19.2l-4.8,1.6c-1-5-4-13.6-6.8-19.2L181.9,91z M235.9,91.8
			c-0.2,0.6-0.9,0.9-1.9,0.9c-7.6,25.4-19.4,41-41.9,50.8c-0.7-1-2.4-3-3.5-4c22-9.3,33.3-23.8,40.5-50L235.9,91.8z M204.8,86.9
			c1.7,6,3.5,14.9,3.8,20.5l-5.1,0.8c-0.4-5.7-2-14.3-3.7-20.4L204.8,86.9z"/>
		<path class="st2" d="M315.7,88.8c-0.1,0.3-0.6,0.5-0.9,0.6c-3.9,9.2-10.1,17.2-17.1,23c-1.1-0.9-3.1-2.2-4.4-3
			c6.6-4.8,12-11.8,14.3-17.9h-51.6v-4.9h54.3l0.8-0.4L315.7,88.8z M287.6,101.9c-0.1,0.6-0.7,1.1-1.7,1.2
			c-2.1,17-7.9,33.2-22.8,41.8c-1-0.9-2.9-2.5-4.2-3.3c14.7-8.1,19.9-23.1,21.7-40.5L287.6,101.9z"/>
		<path class="st2" d="M331.2,109.8h60.1v5.1h-57.4c-0.4,0.7-1.4,1.2-2.3,1.4L331.2,109.8z"/>
	</g>
</g>
</svg>
