<svg id="グループ_73" data-name="グループ 73" xmlns="http://www.w3.org/2000/svg" xmlns:xlink="http://www.w3.org/1999/xlink" width="146.153" height="26" viewBox="0 0 146.153 26">
  <defs>
    <clipPath id="clip-path">
      <rect id="長方形_98" data-name="長方形 98" width="146.153" height="26" fill="none"/>
    </clipPath>
  </defs>
  <g id="グループ_72" data-name="グループ 72" clip-path="url(#clip-path)">
    <path id="パス_245" data-name="パス 245" d="M146.153,26c-8.832,0-13.192-5.966-17.039-11.23C125.675,10.064,122.705,6,116.92,6s-8.755,4.064-12.195,8.77C100.879,20.034,96.519,26,87.687,26S74.5,20.034,70.651,14.77C67.212,10.064,64.242,6,58.458,6S49.7,10.064,46.266,14.77C42.419,20.034,38.059,26,29.229,26s-13.19-5.966-17.037-11.23C8.754,10.064,5.784,6,0,6V0C8.831,0,13.19,5.966,17.037,11.23,20.475,15.936,23.445,20,29.229,20s8.754-4.064,12.192-8.77C45.268,5.966,49.628,0,58.458,0S71.649,5.966,75.5,11.23C78.934,15.936,81.9,20,87.687,20s8.755-4.064,12.194-8.77C103.728,5.966,108.089,0,116.92,0s13.191,5.966,17.038,11.23c3.44,4.706,6.41,8.77,12.2,8.77Z" fill="#333"/>
  </g>
</svg>
