<?xml version="1.0" encoding="utf-8"?>
<!-- Generator: Adobe Illustrator 28.2.0, SVG Export Plug-In . SVG Version: 6.00 Build 0)  -->
<svg version="1.1" id="レイヤー_1" xmlns="http://www.w3.org/2000/svg" xmlns:xlink="http://www.w3.org/1999/xlink" x="0px"
	 y="0px" viewBox="0 0 2663.2 1128.3" style="enable-background:new 0 0 2663.2 1128.3;" xml:space="preserve">
<style type="text/css">
	.st0{fill:#79B964;}
	.st1{fill:#FFFFFF;}
	.st2{fill:none;stroke:#707070;}
	.st3{opacity:0.4;}
	.st4{fill:none;stroke:#00A5EA;stroke-linecap:round;stroke-linejoin:round;}
	.st5{fill:#FFA700;}
	.st6{fill:#FFCC00;}
	.st7{fill:#1A75BC;}
	.st8{fill:#27AAE1;}
	.st9{clip-path:url(#SVGID_00000024683014170195638180000000616215671410260096_);}
	.st10{fill:#C87700;}
	.st11{fill:#985A00;}
	.st12{fill:#959427;}
	.st13{fill:#B2AE35;}
	.st14{clip-path:url(#SVGID_00000178205231608429598270000011841793917228478138_);}
	.st15{clip-path:url(#SVGID_00000007419849636434429910000005338389942449149850_);}
	.st16{fill:#90C9CC;}
	.st17{fill:#F7C22E;}
	.st18{fill:#BEBCBC;}
	.st19{fill:#ECE7E7;}
	.st20{fill:#02777D;}
	.st21{fill:#EAEEEE;}
	.st22{clip-path:url(#SVGID_00000071540300679028307420000014566201999109961895_);}
	.st23{fill:#999428;}
	.st24{fill:#D23F00;}
	.st25{clip-path:url(#SVGID_00000019664188974678231390000007615332464697779901_);}
	.st26{clip-path:url(#SVGID_00000017478672149364554250000010492012795921194683_);}
	.st27{fill:#EA5A00;}
	.st28{fill:#8DAFB0;}
</style>
<g>
	<path id="パス_235_00000152971280462611174160000007261967116341080237_" class="st0" d="M2569.4,616c1.6,11,2.7,22.7-2.2,31.6
		c-2.7,5.5-7.6,8.2-11.3,12.4c-9.7,9.6-15.7,24.8-24.3,35.7c-8.6,12.1-20.7,19.5-33.5,20.6c-12.4,0.7-25.9-6.2-33-19.9
		c-2.7-4.8-4.3-11-8.1-15.1c-3.8-4.1-9.2-4.8-14.1-5.5c-11.8-2.4-23.8-3.1-35.7-2.1c-12,1-23.4,7.1-32.4,17.2
		c-4.9,6.2-8.7,13.8-15.1,17.2c-8.7,4.8-18.9-1.4-28.1,2.7c-8.1,4.1-13,15.1-20,22c-14.6,13.8-34.6,4.1-52.4,8.2
		c-7,1.4-14.6,6.9-15.7,15.8c-0.5,2.7,0,5.5-0.5,8.2c-1.6,7.6-9.2,11-15.1,11.7c-6.5,1.4-13.5,2.1-16.8,9.6c-1,2.6-1.7,5.4-2.2,8.2
		c-2.5,7.2-8.5,11.4-14.6,10.3c2.7,15.1-7.6,38.5-19.5,33.7c-9.2-3.4-18.4-6.9-27.6-11c-4.7,4.2-11.2,3.3-15.1-2.1
		c-1.6-2.1-2.7-5.5-4.9-6.9c-5.9-5.5-15.7,2.1-22.2-2.7c-3.2-2.1-4.9-6.9-5.9-11c-3.2-10.3-6.5-19.9-9.7-30.2
		c-1.6-4.6-2.7-9.4-3.2-14.4c-1.1-10.3,1.6-19.9,3.2-29.6c3.3-18.4,2.7-37.6-1.6-55.7c4.9-1.4,10.3-2.7,14.6-6.9
		c1.6-2.1,2.2-7.6,3.2-17.9c1.6-11,1.1-13.1,0.5-15.1c-2.2-6.2-7-8.2-6.5-9.6c0.5-1.4,7.6-1.4,32.4,6.2c0.5-10-0.4-20-2.7-29.6
		c-1.6-6.9-3.8-17.2-8.1-17.9c-1.6-0.1-3.2,0.7-4.3,2.1c-3.8,4.1-7.6,8.2-11.3,11.7c-8.1-3.4-9.2-17.9-5.4-26.8
		c3.8-9.6,10.8-15.8,15.7-24.8c4.9-8.2,7-21.3,1.6-28.9c-6.5-8.2-16.8-4.1-25.9-1.4c-26.5,8.2-55.1,0.7-82.2,4.8
		c-10.2,1.7-20.4,4.4-30.3,8.2c-33,12.4-65.9,25.4-98.4,37.8c-15.7,6.2-31.9,12.4-48.1,11.7s-33.5-8.2-43.2-25.4
		c-5.9-10.3-9.2-24.1-18.4-28.2c-3.8-2.1-8.1-1.4-12.4-1.4c-47,3.4-94,4.1-140.5,2.7c-5.9,0-11.9-0.7-16.2-5.5
		c-2.2-2.7-3.8-6.9-6.5-8.9c-3.8-3.4-9.2-3.4-13.5-3.4c-28.5,1.4-57.1,0-85.4-4.1c-12.4-1.4-25.9-4.8-33.5-17.2
		c-9.7-17.2-3.8-41.9-10.8-61.2c-9.7-24.1-35.7-26.8-56.7-21.3c-21.1,5.5-43.2,14.4-62.2,2.7c-5.9-3.4-11.3-9.6-17.8-12.4
		c-17.3-7.6-39.5,6.9-53.5,22.7c-18.4,1.4-37.3,3.4-55.1-3.4c-10.8-4.1-21.1-11-31.3-16.5c-19.5-9.6-41.6-13.8-62.2-7.6
		c-43.8,13.1-75.1,66-118.9,77c-21.1,5.5-43.2,0-64.3,3.4c-13,2.1-25.9,7.6-38.4,13.1c-10.3,4.1-18.4,11-29.2,11
		c-32.4-1.4-65.4-2.1-97.8-3.4c-15.1-0.7-30.8-1.4-43.2-12.4s-17.8-35.7-7-49.5c3.2-4.1,8.1-7.6,8.1-13.8c0-4.8-3.8-7.6-5.9-11
		c-10.8-15.1-3.8-38.5-5.4-58.4c-0.3-4.7-1.6-9.2-3.8-13.1c-5.9-8.9-17.3-6.9-25.4-0.7c-8.1,6.2-14.1,15.1-22.7,19.9
		c-14.1,7.6-29.7,0-42.7-9.6c-13-9.6-24.9-22.7-39.5-27.5c-9.7-3.4-20-2.7-29.2-8.9c-8.7-5.5-15.1-22-8.1-31.6
		c3.8-4.8,9.2-6.2,14.6-6.2c14.6,0,28.6,8.2,42.7,11.7c14.1,3.4,31.3,2.1,40.5-12.4c8.1-12.4,7.6-30.2,6.5-46.1
		c-0.5-14.4-1.6-28.2-2.2-42.6c-0.5-6.2-0.5-12.4-3.8-17.2c-2.9-4.1-6.7-7.2-10.8-8.9c-14.6-8.2-30.3-17.2-46.5-17.9
		c-16.2-0.7-33.5,8.2-40.5,26.8c-2.2,6.2-3.2,13.8-4.9,19.9c-8.7,38.9-31.7,70.2-61.6,83.9c-5.6,3-11.7,4.4-17.8,4.1
		c-10.8-0.7-20-9.6-29.2-15.8c-19.8-13.2-42.2-18.4-64.3-15.1c-11.3,2.1-22.7,5.5-34,4.8c-11.3-1.4-23.8-8.9-27-22.7
		c-19.5,11-45.4-6.9-48.6-33.7c-2.7-21.3,7-41.9,8.7-63.2c-8.1,1.4-15.7-8.2-17.8-18.6c-2.2-10.3,0-21.3,1.1-31.6
		c2.7-26.1,1.1-58.4-16.2-74.2c-16.7,15.8-31.3,34.8-43.3,56.4c-2.5,3.4-4,7.7-4.3,12.4c-0.5,8.9,5.9,15.1,9.7,22
		c7.6,14.4,4.3,33,4.3,50.9c0.5,41.3,22.2,85.9,4.3,120.3c-10.3,19.3-30.3,26.8-48.1,22.7s-33-19.3-44.9-36.4
		c-5.4-8.2-10.3-16.5-13-26.8c-4.3-17.2-0.5-35.7,1.1-53.6s1.1-38.5-9.7-50.2c-23.2,25.4-20,72.2-15.1,110.7
		c-5.5,1.5-11.1,2.7-16.8,3.4l-2.7,0.7c0,1.4-0.5,4.1-0.5,5.5c2.2,12.4-3.8,26.8,1.1,38.5c2.2,5.5,6.5,8.9,9.7,13.1
		c3.2,4.8,4.9,12.4,1.6,16.5c-1.1,1.4-2.7,2.1-3.2,4.1c-2.2,4.1,0.5,9.6-0.5,14.4s-4.9,7.6-8.1,9.6c-3.2,2.7-6.5,6.9-5.9,11.7
		c1.1,4.1,4.3,6.2,7,8.9c3.1,4.6,4.6,10.5,4.3,16.5c-0.2,14.4-5.1,28.1-13.5,37.8c-5.9,6.9-14.1,12.4-17.3,22
		c-1.9,6.1-2.5,12.8-1.6,19.3c0.5,19.9,0,42.6,0.5,62.6c3.9,7.5,5.7,16.5,4.9,25.4c-0.5,2.7-2.2,16.5-10.3,24.1
		c-3.8,3.4-6.5,3.4-12.4,8.9c-3.8,4.1-6,6.9-6,10.3c-0.2,2.2,0.2,4.3,1.1,6.2c9.2,20.6,34,28.9,34.6,52.3c9.7,0.7,18.9,1.4,28.6,2.1
		c-3.8,8.2,1.1,21.3,8.7,22c-4.9,2.1-4.9,11.7-0.5,15.8c3.8,4.1,9.7,4.1,14.6,3.4c20.5-1.4,41.6-2.7,62.2-4.1c-1.1,3.5-1.1,7.5,0,11
		c6,3.6,13.2,2.6,18.4-2.7c2.5-3.1,5.2-5.9,8.1-8.2c2.8-1.2,5.7-1.6,8.7-1.4c11.9,0.7,23.8,1.4,36.2,2.1c4.5-0.3,8.9,0.9,13,3.4
		c2.7,2.1,4.9,6.2,8.1,7.6c7.6,4.1,15.1-6.9,23.2-8.9c3.2-0.7,6.5-0.7,9.2-3.4c2.2-2.1,2.7-5.5,3.8-8.2c4.9-12.4,19.5-13.1,29.7-7.6
		c10.3,5.5,20,14.4,30.8,14.4c7.6,0,15.7-3.4,21.1,2.1c2.2,2.1,3.2,5.5,5.9,7.6c2.7,2.7,7,2.1,10.3,2.1l60-6.2
		c6.5-0.7,13.5-1.4,19.5,2.7c6.5,4.8,10.8,15.1,18.4,13.8c-3.8,9.6,2.2,22.7,10.3,23.4c1.9-0.3,3.8,0.2,5.4,1.4
		c3.2,2.7,2.7,8.9,1.6,14.4c11.4,5.5,23.6,7.6,35.7,6.2c4.3-0.7,8.7-2.1,10.8-6.2c2.2-4.8,1.6-11.7,5.4-15.1c2.2-1.2,4.6-1.6,7-1.4
		c18.4,1.4,35.1,5.5,53,6.9c2.7,8.2,10.8,15.1,17.3,10.3c3.8-2.7,5.9-8.2,9.2-12.4c6.3-6.7,15.6-5.6,20.8,2.3
		c0.1,0.1,0.2,0.3,0.3,0.4c0.8,2.1,1.9,4,3.2,5.5c2.7,2.7,6.5,2.1,10.3,2.7c3.8,0,7.6,3.4,7.6,7.6c-0.1,1.5-0.5,2.9-1.1,4.1
		c-0.5,3.4,2.2,6.2,4.9,6.9c2.7,0.3,5.4,0.3,8.1,0c13.5-0.7,25.4,13.1,38.9,12.4c15.7-1.4,28.1-22,43.8-20.6
		c9.7,1.4,18.4,11,28.1,10.3c5.8-0.1,11.1-4,14.1-10.3c0.9-2.9,2.4-5.5,4.3-7.6c1.8-1.3,4-1.5,5.9-0.7c7,0.7,15.1,2.1,17.8,10.3
		c1.6,4.1,1.1,9.6,2.7,13.1c2.7,6.2,9.2,6.2,14.6,8.2s10.3,9.6,7,15.1c11.9,3.4,23.8,6.2,36.2,9.6c-3.8,4.1-1.1,13.1,3.2,15.8
		c4.9,2.7,10.3,1.4,15.1,0.7c13.8-1.9,27.8-0.1,41.1,5.5c4.9,2.1,9.7,4.8,12.4,9.6c1.9,4.4,3.6,9,4.9,13.8
		c4.3,11.9,13.5,19.7,23.8,19.9c-2.8,9.7,0.8,20.4,8.1,24.8c2.7-0.7,4.9-0.7,7.6-1.4c-3.3-4.8-2.9-12.1,0.9-16.3
		c3.8-4.2,9.5-3.7,12.8,1.1c1,1.4,1.6,3.1,2,4.9c0.5,1.4,0.5,3.4,1.1,4.8c1.1,1.4,2.7,1.4,4.3,2.1c30.5,1.3,61,0.1,91.3-3.4
		c4.9-0.7,10.8-0.7,13.5,4.8c0.8,2.2,1.5,4.5,2.2,6.9c2.2,6.3,7.9,9.4,13,6.9c0,12.4,11.3,22.7,21.1,19.3c-7,11.7-3.2,28.2,1.1,41.3
		s10.3,27.5,7,41.3c-2.2,8.9-7.6,15.8-11.9,23.4c-4.3,7.6-8.1,17.9-4.9,26.1c3.2,9.6,13,14.4,15.7,24.8c3.8,16.5-13.5,34.4-5.9,48.8
		c14.6,4.8,30.3,5.5,45.4,6.9c4.3,0,9.2,0.7,13-2.7c3.8-2.7,5.4-10.3,2.2-14.4c6,0.4,12.1-0.5,17.8-2.7c-3.2-4.1-3.2-12.4,0.5-15.8
		c4.2-3.2,9.6-1.7,12.4,3.4c1.1,2.7,1.1,6.2,2.2,8.9c2.2,6.2,7.6,8.9,12.4,8.9c4.9,0.7,10.3-0.7,15.1-0.7c4.9,0.7,11.3,5.5,9.2,11.7
		c18,2,36,2.2,54,0.7c2.7,0,5.9-0.7,7-4.1c0.5-2.1,0-4.8,0.5-7.6c0.5-5.5,5.9-8.2,10.8-8.9c16.2-3.4,36.8-5.5,45.9,11.7
		c2.7,4.8,5.4,11,9.7,8.9c2.2-0.7,3.2-3.4,4.3-6.2c7-13.8,25.9-15.8,34.6-4.8c14.1,0,28.6,0.7,42.7,0.7c4.3,0,8.7,0,11.9-3.4
		c4.3-4.1,5.4-12.4,8.1-18.6c6.5-13.8,22.2-13.1,34.6-11.7c3.8,0.7,7.6,1.4,9.7,4.1c2.2,2.1,3.2,5.5,4.9,7.6c3.2,4.1,8.1,4.8,13,4.8
		c21.1-1.4,38.4-24.8,59.5-23.4c3.8,0,8.7,0.7,10.8-3.4c2.7-4.8-0.5-11,0-16.5c1.1-6.2,6.5-8.9,11.9-8.9c4.9,0,9.7,2.7,14.6,2.7
		c12.4,0,22.2-14.4,34-15.8c5.4-0.7,10.8,1.4,16.2-0.7c4.9-2.1,8.7-11.7,4.3-15.8c20.5,0.7,41.1,1.4,61.6,2.7
		c4.9,0,10.3,0.7,13.5,4.8c2.2,2.7,2.7,6.2,4.9,8.9c3.2,4.1,8.1,4.1,13,4.1c18.4-0.7,37.3-0.7,55.7-1.4c6.5,0,14.1-1.4,16.2-8.9
		c1.1-3.4,0.5-6.9,2.2-9.6c1.7-2.3,4-3.8,6.5-4.1c16.8-4.1,36.2,2.1,49.2-11.7c1.9-2.4,4.1-4.5,6.5-6.2c2.6-1.1,5.4-1.6,8.1-1.4
		c17.8,0.7,35.7-2.1,53.5,0.7c13.5,2.7,24.9-22.7,37.8-16.5c3.2,1.9,6.1,4.4,8.7,7.6c14.1,12.4,33.5,4.8,50.8,5.5
		c3.6-0.3,7.2,0.9,10.3,3.4c2,1.7,3.9,3.8,5.4,6.2c7.6,8.9,18.4,11.7,28.1,11c10.2-1.8,20-5.7,29.2-11.7
		c16.6-9.7,32.5-21.2,47.6-34.4c7.6-6.9,16.8-14.4,25.4-11c7,2.7,11.3,11,17.3,16.5c5.4,6.2,15.1,8.2,19.5,0.7
		c2.7-5.5,1.1-12.4,4.3-17.9c3.1-4,7.9-5.1,11.9-2.7c3.8,2.6,7.2,5.8,10.3,9.6c8.1,10.3,17.3,19.3,28.1,23.4
		c10.8,4.1,23.2,3.4,32.4-5.5c2.2-2.1,4.3-5.5,7-6.9c8.7-6.9,20.5,0,27.6,8.9c7.6,8.9,13.5,19.9,23.2,25.4
		c9.2,5.5,23.2-0.7,23.8-13.8c7.3,2.5,15.1-1,19.5-8.9c8.7,0,17.3,0.7,25.4,0.7c1.5,0.2,2.9-0.1,4.3-0.7c3.8-2.7,2.7-9.6,4.9-14.4
		c1.5-2.1,3.3-3.8,5.4-4.8c6.1-4.1,12.4-7.6,18.9-10.3c6.5-2.9,11.9-8.8,15.1-16.5c3.2-8.2,4.3-18.6,10.3-22.7
		c1.9-1.1,3.7-2.5,5.4-4.1c2.7-5.5-2.2-13.8,1.1-18.6c2.2-2.7,5.9-2.1,8.1-4.8c3.2-4.8-3.2-13.1-0.5-18.6c2.2-4.8,8.1-2.1,11.9-4.8
		c4.3-2.7,4.9-9.6,4.3-15.8c-0.5-6.2-1.1-12.4,1.6-17.2c2.2-4.1,6.5-4.8,9.2-8.9c3.2-4.8,2.7-12.4,1.1-17.9
		c-1.6-5.5-4.9-11-6.5-17.2c-3.8-15.8,4.3-33.7,16.2-40.6c3.8-2.7,8.7-4.1,11.9-8.2s3.8-11.7,0-15.1c-1.3-0.9-2.8-1.3-4.3-1.4
		c-16.2-4.1-26.5-24.1-35.1-42.6c-1-1.8-1.6-4-1.6-6.2c0.4-1.8,1.4-3.3,2.7-4.1c7.6-7.6,14.6-20.6,10.8-31.6
		c-2.7-7.6-9.7-11.7-11.3-19.9c-1.6-6.2,0.5-13.1,4.3-17.9c3.2-4.8,8.1-8.2,12.4-11.7c6.6-5.4,12.7-11.6,18.4-18.6
		c4.1-4.8,7.4-10.7,9.7-17.2c1.6-6.9,1.1-15.1-3.2-19.3c-3.8-4.1-8.7-4.1-13.5-2.1c-4.4,2.2-8.1,6.1-10.8,11
		c-6.5,9.6-10.8,21.3-16.8,31.6c-5.9,10.3-14.1,19.3-24.3,20.6c-4.3,0.7-9.2-0.7-13.5,0c-4.3,1.4-8.7,6.2-7.6,11.7"/>
	<g id="楕円形_36_00000095304754190508097320000007887738390078790544_" transform="translate(77.5 128.427)">
		<circle class="st1" cx="155.5" cy="258.4" r="70"/>
		<circle class="st2" cx="155.5" cy="258.4" r="67.7"/>
	</g>
	<g id="楕円形_36_00000144302929984978516250000012908496995052193153_" transform="translate(77.5 128.427)">
		<circle class="st1" cx="682.7" cy="521.4" r="70"/>
		<circle class="st2" cx="682.7" cy="521.4" r="67.7"/>
	</g>
	<g id="楕円形_36_00000134951611506242719470000001843834912115494052_" transform="translate(77.5 128.427)">
		<circle class="st1" cx="1042.1" cy="390.2" r="70"/>
		<circle class="st2" cx="1042.1" cy="390.2" r="67.7"/>
	</g>
	<g id="楕円形_36_00000101068924266069084580000009268254972308438179_" transform="translate(77.5 128.427)">
		<circle class="st1" cx="1398.9" cy="870.3" r="70"/>
		<circle class="st2" cx="1398.9" cy="870.3" r="67.7"/>
	</g>
	<g id="楕円形_36_00000021824818175363557910000006447157609572732589_" transform="translate(77.5 128.427)">
		<circle class="st1" cx="2100.5" cy="790.8" r="70"/>
		<circle class="st2" cx="2100.5" cy="790.8" r="67.7"/>
	</g>
	
		<g id="_67261588_更新済み__00000078745718303753862160000012881836805733776300_" transform="translate(664.75 42.421)" class="st3">
		<g id="グループ_21_00000096749078699998507240000011243250802897535124_" transform="translate(0.5 0.5)">
			<path id="パス_92_00000020364414603074537250000014815540617827090092_" class="st4" d="M977.2,321l49.5-28.6l-48.4,28.9
				l48.2-27.9l-46.9,28.3l46.6-26.9L981,322.2l44.7-25.9l-43.1,26.2l42.7-24.7l-41.2,25l40.6-23.5l-39,23.6l38.5-22.2L987,323.1
				l36.7-21.1l-34.4,21.3l33.4-19.3l-31,19.2l29.7-17.2l-28.1,17l27.3-15.8l-25.3,15.5l23.9-13.8l-21.4,13.4l19.8-11.5l-17.1,10.7
				l15.2-8.7l-10.1,6.8l5.6-3.3"/>
			<path id="パス_93_00000054264257391446142640000005833629387928075648_" class="st4" d="M928.5,322.2l94.4-54.5l-94,55
				l94.3-54.4l-93.5,55.2l94-54.3l-93.3,55L1024,270l-93.3,54.6l93.6-54.1l-93,54.5l93.3-53.9l-92.7,54.5l93-53.7l-92.1,54.5
				l92.5-53.4l-91.5,54.1l91.9-53.1l-91.1,53.6l91.4-52.8l-90.7,53.3l90.9-52.5l-90.2,53l90.4-52.2l-89.8,52.5l89.9-51.9l-88.9,52.5
				l89.1-51.5l-88.3,52l88.5-51l-87.3,51.6l87.4-50.4l-86.5,50.9l86.7-50l-85.7,50.4l85.7-49.5l-84.2,50l84.3-48.7l-82.8,49.2
				l82.9-47.9l-81.5,48.1l81.5-47l-80.5,47.3l80.5-46.5l-78.9,46.8l78.8-45.5l-76.9,45.7l76.8-44.4l-75.3,44.4l75.3-43.5l-74,43.4
				l73.9-42.6l-71.6,42.5l71.4-41.2l-69.2,41l18-10.4l-15.9,9.9l14.5-8.4l-9.1,6.5l5-2.9"/>
			<path id="パス_94_00000086662612901128085990000006564470071480894597_" class="st4" d="M862.8,312.6L983,243.1l-119.7,70.5
				l120.2-69.4l-119.8,70.3l120.1-69.4L864,315.3L984,245.9L864.3,316l119.9-69.3l-119.5,70.1l119.8-69.1l-119.5,69.8l120.3-69.4
				l-119.7,70.4l122.2-70.5l-121.7,71.3l123.7-71.4l-123,72.4L992,247.9l-124.8,73L993.3,248l-125.6,73.5l127.1-73.4l-126.6,74.2
				l128.1-73.9L869,323.3l129.1-74.5L869.6,324l129.7-74.9l-129.1,75.5l130.2-75.2l-129.4,76.1l131-75.6l-130.5,76.1l131.3-75.8
				l-130.7,76.3l131.6-76l-130.7,76.8l132.1-76.2l-131.2,77l132.5-76.4l-131.7,77.2l132.7-76.6l-131.7,77.3l132.9-76.7L876,330
				l133-76.8l-132.1,77.5l133.1-76.8l-132.3,77.3l133.1-76.8l-132.3,77.3l133-76.8L879.2,332l132.9-76.7L880,332.5l132.9-76.7
				l-132.1,77.1l132.7-76.6l-131.7,77.1l132.4-76.5l-131.7,76.9l132.3-76.4l-131.4,76.7l132-76.2l-130.7,76.7l131.5-75.9
				l-130.1,76.5l131-75.6l-129.5,76.1l130.2-75.2L889,336l129.6-74.8l-128,75.1l128.7-74.3l-127.5,74.5l128-73.9l-126.4,74.2
				l127-73.4l-125,73.5l125.7-72.6l-124,72.7l124.5-71.9l-122.6,71.8l123.1-71l-121.4,71l121.8-70.3l-119.9,70.1l120.2-69.4
				l-118,69.1l22.2-12.9l-20,12.4l18.6-10.7l-15.1,9.7l12.6-7.3"/>
			<path id="パス_95_00000111182156120135269550000001620227327289759881_" class="st4" d="M823.9,265.8l4.8-2.8l-8.9,6.4
				l112.5-65l-114.4,67.1l115.3-66.6l-116.4,68l117-67.5l-118.2,69.4l119-68.8l-119.8,69.9l120.3-69.4L814.4,277l121.3-70.1
				l-122,71.5l122.8-70.9l-123.3,72.1L937,208.2l-124.2,72.7l124.8-72.1l-125.2,73.2l125.8-72.6L812,283.2l126.7-73.1l-126.9,74.1
				l127.3-73.5l-127.5,74.5l128-73.9l-128.2,75L940.1,212l-128.8,75.7l129.5-74.8l-129.6,75.9l130.1-75.1L811.2,290l130.6-75.5
				L811.2,291l131-75.6l-131,77l131.5-75.9l-131.5,76.7L943,217l-131.6,76.9l132-76.2l-131.8,77.4l132.2-76.4L811.7,296L944,219.6
				l-132.1,77.2l132.4-76.5l-132.1,77.5l132.4-76.6l-132.3,77.2L944.8,222l-132.3,77.5L945,223l-132.1,77.5l132.3-76.4l-132,77.2
				l132.1-76.3l-131.7,77.5l132.8-76.7L814,303.4l135.6-78.3l-135.1,79.3l138-79.7L815,305.3l139.8-80.7L815.4,306l140.9-81.3
				l-140.4,82.2L958,224.8l-141.7,82.7l142.9-82.5l-142.6,83l143.7-82.9l-143.1,83.7l144.5-83.4l-143.8,84.1l145.2-83.8l-144.7,84.5
				L964.1,226L819,310.9l146.3-84.5l-145.8,85l146.7-84.7l-145.9,85.5l147.2-84.9l-146.5,85.6l147.4-85.1l-146.9,85.6l147.6-85.2
				l-147,85.8l147.8-85.4l-147.2,85.9l147.9-85.4l-147,86.1l148.1-85.4l-147.3,85.9L972.4,230L825,316l148-85.4l-146.8,86.2
				l147.9-85.4l-147,85.9L974.9,232l-146.4,85.9l147.3-85.1l-146.6,85.4l147.1-84.9L830,318.6l146.9-84.8l-146,85.1l146.5-84.6
				l-145.6,84.9l146.1-84.3l-144.6,84.9l145.4-84L834.1,320L979,236.3l-143.2,84l143.9-83l-142.9,83.2l143.3-82.7l-141.8,82.9
				l142.3-82.1l-140.9,82.3L981,239.3l-139.9,81.6l140.3-81l-138.9,81l139.3-80.4l-137.2,80.3l137.6-79.4l-134.8,79.1l135.3-78.1
				L852.1,319l8.9-5.1"/>
			<path id="パス_96_00000001649407048610401930000006665292809328447934_" class="st4" d="M897.7,204.6l4.9-2.8l-8.9,6.1
				l13.7-7.8l-15.6,10.1l18.4-10.7l-20.2,13l23-13.3l-24.4,15.4l27-15.6l-27.8,17.2l29.6-17.1l-30.2,18.2l31.4-18.1"/>
			<path id="パス_97_00000084521636620153943160000011340235429015811461_" class="st4" d="M848.1,219.8l5.5-3.2l-9.6,6.4
				l14.1-8.2l-16.4,10.5l19.6-11.3l-21.6,13.7l24.6-14.2l-25.7,15.7l27.6-15.9l-28.4,17.2l29.9-17.3l-31,19.2l33.2-19.2l-33.8,20.2
				l35.1-20.2l-35.9,22.1l38-21.9l-38.6,23.4l40.1-23.1L834.1,238l41.9-24.2l-42.4,25.6l43.8-25.3l-44.2,26.5l45.4-26.2L832.9,242
				l47.3-27.3l-47.6,28.6l48.7-28.1l-49,29.7l50.5-29.2L832.1,246l51.8-29.9l-51.9,30.6l52.6-30.3l-52.8,31.8L886,217l-54.1,32.6
				l87.1-50.3l-87.2,51.4l88.7-51.2l-88.7,52.3l90-52l-90,52.8l90.9-52.5L832,253.8l92.4-53.3L832,254.6l93.3-53.8l-93.2,54.7
				l94.1-54.4l-94,55.4l95.1-54.9l-94.9,56.1l96.2-55.5l-96,56.3l96.8-55.9l-96.7,56.6l97.5-56.2l-97.1,57.4l98.3-56.8L833.3,261
				l98.7-57"/>
		</g>
	</g>
	
		<g id="_67261588_更新済み_2_00000168829821295078388130000010037931557218811012_" transform="translate(814.5 104.669)" class="st3">
		<g id="グループ_21-2_00000137832560492041505770000015219859674334791328_" transform="translate(0.5 0.5)">
			<path id="パス_92-2_00000105427633568405890900000013753614103617006015_" class="st4" d="M1096.8,350.7l30.8-17.7l-30.1,18
				l30-17.3l-29.1,17.6l28.9-16.7l-28,16.9l27.8-16.1l-26.8,16.2l26.5-15.3l-25.6,15.5l25.2-14.6l-24.2,14.6l23.9-13.8l-23.1,13.9
				l22.8-13.1l-21.4,13.2l20.7-12l-19.3,12l18.5-10.7l-17.4,10.6l16.9-9.8l-15.7,9.6l14.8-8.6l-13.3,8.3l12.3-7.1l-10.6,6.7l9.4-5.4
				l-6.2,4.2l3.5-2.1"/>
			<path id="パス_93-2_00000118386546003825027600000003148842571716346303_" class="st4" d="M1066.6,351.4l58.6-33.8l-58.3,34.1
				l58.5-33.8l-58.1,34.3l58.3-33.7l-58,34.1l58.2-33.6L1068,353l58.1-33.6l-57.8,33.8l57.9-33.5l-57.5,33.8l57.8-33.3l-57.2,33.9
				l57.4-33.1l-56.8,33.6l57.1-33l-56.6,33.3l56.7-32.8l-56.3,33.1l56.4-32.6l-56,32.9l56.1-32.4l-55.8,32.6l55.8-32.2l-55.2,32.6
				l55.3-32l-54.8,32.3l55-31.7l-54.2,32l54.3-31.3L1074,357l53.8-31.1l-53.2,31.3l53.3-30.8l-52.3,31.1l52.4-30.3l-51.4,30.6
				l51.5-29.7l-50.6,29.9l50.6-29.2l-50,29.3l50-28.9l-49,29l48.9-28.3l-47.8,28.4l47.7-27.6l-46.8,27.6l46.7-27l-45.9,26.9
				l45.9-26.4l-44.5,26.4l44.3-25.6l-43,25.5l11.2-6.5l-9.9,6.2l9-5.2l-5.6,4l3.1-1.8"/>
			<path id="パス_94-2_00000087386241295832446160000008366857440317064578_" class="st4" d="M1025.8,345.5l74.6-43.1l-74.3,43.8
				l74.6-43.1l-74.4,43.7l74.6-43.1l-74.4,43.5l74.6-43.1l-74.3,43.5l74.5-43l-74.2,43.5l74.4-42.9l-74.2,43.3l74.7-43.1l-74.3,43.7
				l75.9-43.8l-75.6,44.3l76.8-44.3l-76.4,44.9l77.8-44.9l-77.5,45.3l78.3-45.3l-78,45.7l78.9-45.6l-78.6,46.1l79.5-45.9l-79.1,46.5
				l80.2-46.3l-79.8,46.7l80.5-46.5l-80.2,46.9l80.8-46.7l-80.4,47.3l81.3-47l-81.1,47.2l81.6-47l-81.2,47.4l81.7-47.2l-81.2,47.7
				l82-47.3l-81.5,47.8l82.3-47.5l-81.8,47.9l82.4-47.6l-81.8,48l82.5-47.6l-82.2,47.9l82.6-47.7l-82,48.1l82.6-47.7l-82.1,48
				l82.6-47.7l-82.1,48l82.6-47.7l-82.2,47.9l82.6-47.7l-82.1,47.9l82.5-47.6l-82,47.9l82.4-47.6l-81.8,47.9l82.2-47.5l-81.8,47.7
				l82.1-47.4l-81.6,47.6l81.9-47.3l-81.2,47.6L1121,312l-80.8,47.5l81.3-46.9l-80.4,47.3l80.9-46.7l-80,46.9l80.5-46.4l-79.5,46.7
				l79.9-46.1l-79.2,46.2l79.5-45.9l-78.5,46.1l78.9-45.6l-77.6,45.7l78.1-45.1l-77,45.1l77.3-44.6l-76.1,44.6l76.4-44.1l-75.4,44.1
				l75.6-43.7l-74.4,43.5l74.7-43.1l-73.3,42.9l13.8-8l-12.4,7.7l11.5-6.7l-9.4,6.1l7.8-4.5"/>
			<path id="パス_95-2_00000070096796425868922900000012783431722076526988_" class="st4" d="M1001.7,316.4l3-1.7l-5.5,4
				l69.8-40.3l-71.1,41.7l71.6-41.3l-72.3,42.2l72.7-41.9L996.5,322l73.9-42.7l-74.4,43.4l74.7-43.1l-75,43.8l75.3-43.5l-75.8,44.4
				l76.2-44L995,325l76.9-44.4l-77.1,45.1l77.5-44.8l-77.8,45.5l78.1-45.1l-78.3,45.8l78.7-45.4l-78.8,46l79-45.6L994,328.4
				l79.5-45.9L994,329.1l79.9-46.1l-80,47l80.4-46.4l-80.5,47.1l80.8-46.6l-80.8,47.4l81.1-46.9l-81.1,47.5l81.4-47l-81.4,47.8
				l81.7-47.2l-81.6,47.6l81.8-47.2l-81.8,47.8l81.9-47.3L994,334.6l82.1-47.4l-82,48l82.2-47.5l-82.1,48l82.2-47.5l-82.1,48.1
				l82.2-47.5l-82.2,48l82.3-47.5l-82.1,48.1l82.2-47.5L994.8,338l82.2-47.4l-81.9,48l82.1-47.4l-81.8,48.1l82.4-47.6l-82.2,48.1
				l84.2-48.6l-83.9,49.2l85.7-49.5l-85.4,50l86.8-50.1l-86.6,50.5l87.5-50.5l-87.2,51l88.3-51l-88,51.3l88.8-51.2l-88.5,51.6
				l89.2-51.5l-88.9,52l89.7-51.8l-89.3,52.3l90.2-52.1l-89.9,52.4l90.5-52.3l-90.1,52.7l90.8-52.4l-90.5,52.8l91.1-52.6l-90.6,53.1
				l91.4-52.8l-91,53.1l91.5-52.9l-91.2,53.2l91.7-52.9l-91.3,53.3l91.8-53l-91.4,53.3l91.8-53.1l-91.3,53.5l92-53.1l-91.5,53.4
				l91.9-53.1l-91.5,53.4l91.9-53.1l-91.2,53.5l91.8-53l-91.3,53.4l91.8-53l-90.9,53.4l91.5-52.8l-91,53l91.3-52.7l-90.8,53
				l91.2-52.6l-90.7,52.8l91-52.5l-90.4,52.7l90.7-52.4l-89.8,52.7l90.3-52.1l-89.7,52.3l90-52l-88.9,52.2l89.4-51.6l-88.8,51.7
				l89-51.3l-88,51.5l88.3-51l-87.5,51.1l87.8-50.7l-86.9,50.7l87.1-50.3l-86.2,50.3l86.5-49.9l-85.2,49.9l85.4-49.3l-83.7,49.1
				l84-48.5l-81.1,47.7l5.5-3.2"/>
			<path id="パス_96-2_00000176038611960362162490000012585039183720803498_" class="st4" d="M1047.5,278.4l3-1.8l-5.5,3.8
				l8.5-4.9l-9.7,6.2l11.4-6.6l-12.5,8.1l14.3-8.3l-15.1,9.6l16.8-9.7l-17.2,10.7l18.4-10.6l-18.7,11.3l19.5-11.2"/>
			<path id="パス_97-2_00000019646092844542974130000007316931234963230895_" class="st4" d="M1016.7,287.9l3.4-2l-6,4l8.8-5.1
				l-10.2,6.5l12.2-7l-13.4,8.5l15.3-8.8l-16,9.8l17.1-9.9l-17.7,10.7l18.6-10.7l-19.3,11.9l20.6-11.9l-21,12.6l21.8-12.6
				l-22.3,13.7l23.6-13.6l-24,14.5l24.9-14.3l-25.2,15.1l26-15l-26.3,15.9l27.2-15.7l-27.4,16.5l28.2-16.3l-28.4,17.2l29.4-17
				l-29.5,17.8l30.3-17.5l-30.4,18.4l31.4-18.1l-31.5,18.9l32.2-18.6l-32.2,19l32.7-18.8l-32.8,19.8l33.6-19.4l-33.6,20.2l54.1-31.2
				l-54.1,31.9l55.1-31.8l-55.1,32.5l55.9-32.3l-55.9,32.8l56.4-32.6l-56.4,33.4l57.4-33.1l-57.4,33.6l57.9-33.4l-57.9,34l58.5-33.8
				l-58.3,34.4l59.1-34.1l-59,34.9l59.8-34.5l-59.6,35l60.1-34.7l-60.1,35.1l60.5-34.9l-60.3,35.7l61-35.2l-60.9,35.6l61.3-35.4"/>
		</g>
	</g>
	<g id="_96071633_更新済み__00000170250852154610623320000005879565196853392772_" transform="translate(1022.346 0.013)">
		<path id="パス_98_00000125574006614596827630000004722475479856438401_" class="st5" d="M1434.5,335.8
			c-26.1,25.4-67.8,24.8-93.2-1.3c-25.4-26.1-24.8-67.8,1.3-93.2c26.1-25.4,67.8-24.8,93.2,1.3c8.1,8.3,13.8,18.6,16.6,29.8
			C1458.2,295.2,1451.4,319.4,1434.5,335.8z"/>
		<path id="パス_99_00000183212668132290215170000015019241736470299555_" class="st6" d="M1372,308.3c-1.1-0.2-2.1-0.7-3-1.2
			c-2.2-1.4-4.3-3.1-5.9-5.2c-0.9-1-1.6-2.1-2.3-3.3c-0.7-1.1-1.2-2.2-1.8-3.3c-0.7-1.7-1.1-3.5-1.3-5.3c-0.2-1.8-0.2-3.6,0.1-5.3
			c0.2-1.7,0.6-3.4,1.2-5.1c0.7-1.9,1.7-3.7,3-5.3c1.1-1.4,2.4-2.7,3.8-3.8c1.3-1,2.6-1.9,4-2.8c1.5-0.9,3.2-1.6,4.9-2.1
			c1.6-0.5,3.2-0.8,4.9-1c1.6-0.2,3.2-0.3,4.9-0.2c1.8,0.1,3.6,0.4,5.3,0.8c1.7,0.5,3.4,1.1,5.1,1.9c1.6,0.8,3,1.8,4.4,2.8
			c2.4,1.9,4.5,4.1,6.2,6.6c0.9,1.3,1.7,2.6,2.4,4c0.7,1.5,1.3,3,1.8,4.6c0.5,1.6,0.8,3.2,1.1,4.8c0.2,1.6,0.3,3.3,0.3,4.9
			c-0.1,1.8-0.3,3.5-0.7,5.3c-0.4,1.7-0.9,3.4-1.6,5.1c-0.6,1.6-1.4,3.2-2.2,4.8c-0.9,1.7-1.9,3.3-3,4.8c-2.2,3-4.9,5.5-7.9,7.7
			c-1.5,1.1-3.1,2.1-4.9,2.8c-1.6,0.8-3.3,1.4-5,2c-1.7,0.6-3.4,1-5.1,1.4c-1.8,0.4-3.6,0.6-5.4,0.7c-2,0.2-3.9,0.2-5.9-0.1
			c-1.9-0.2-3.8-0.5-5.7-1c-1.9-0.5-3.8-1.1-5.7-2c-1.9-0.8-3.7-1.8-5.5-2.9c-1.7-1.1-3.4-2.4-5-3.7c-2.4-2.2-4.7-4.6-6.8-7.1
			c-1.1-1.5-2.2-2.9-3.1-4.4c-0.9-1.5-1.8-3-2.6-4.6c-0.8-1.7-1.5-3.4-2-5.3c-0.5-1.9-0.8-3.9-0.9-5.9c0-1.9,0.1-3.9,0.4-5.8
			c0.3-1.8,0.7-3.6,1.3-5.4c0.6-1.7,1.2-3.5,2-5.1c0.8-1.8,1.7-3.6,2.8-5.3c1-1.6,2.2-3.2,3.4-4.6c1.2-1.5,2.5-2.8,3.8-4.2
			c1.2-1.2,2.5-2.4,3.8-3.6c1.4-1.2,2.9-2.4,4.4-3.4c1.4-1,2.9-2,4.4-2.8c1.5-0.9,3-1.7,4.5-2.5c1.6-0.8,3.2-1.5,4.9-2.2
			c1.7-0.7,3.5-1.3,5.3-1.8c1.8-0.5,3.6-0.9,5.4-1.1c1.8-0.3,3.6-0.5,5.5-0.6c2-0.1,4-0.1,6.1,0c2.1,0.2,4.2,0.5,6.2,1
			c1.9,0.5,3.8,1.1,5.7,1.8c1.9,0.7,3.8,1.5,5.6,2.4c1.8,0.9,3.5,1.8,5.3,2.8c1.8,1,3.4,2,5.1,3.2c1.7,1.1,3.3,2.3,4.9,3.6
			c2.6,2.2,5,4.5,7.2,7c1.3,1.6,2.5,3.3,3.6,5.1c1,1.7,1.9,3.4,2.7,5.1c0.8,1.6,1.4,3.4,2.2,5.1c0.7,1.6,1.2,3.3,1.8,5
			c0.5,1.7,0.9,3.4,1.3,5.1c0.4,1.6,0.7,3.3,0.9,5c0.3,1.8,0.3,3.6,0.4,5.3c0.1,1.9,0,3.8-0.1,5.7c-0.2,2-0.4,4-0.9,5.9
			c-0.4,2-0.9,3.9-1.6,5.9c-0.6,2-1.4,4-2.3,5.9c-0.9,2-1.9,3.9-3.1,5.7c-1,1.8-2.2,3.4-3.4,5c-1.2,1.6-2.4,3.1-3.8,4.6
			c-1.5,1.6-3.2,3.1-4.9,4.4c-1.7,1.3-3.5,2.6-5.3,3.6c-1.8,1.1-3.7,2.1-5.7,3c-1.8,0.9-3.7,1.6-5.7,2.4c-1.9,0.7-3.9,1.4-5.9,1.9
			c-2,0.5-4.1,0.9-6.1,1.2c-2,0.3-4,0.5-6,0.7c-2.1,0.1-4.2,0.2-6.3,0.2c-2.1,0-4.2-0.1-6.3-0.3c-2-0.2-4-0.5-6-0.9
			c-2.1-0.3-4.2-0.8-6.2-1.4c-2-0.6-4-1.3-6-2.1c-2-0.8-4-1.8-5.9-2.8c-1.9-1-3.7-2.2-5.5-3.4c-1.8-1.2-3.5-2.6-5.2-3.9
			c-1.6-1.3-3.1-2.7-4.6-4.1c-2.5-2.4-4.9-4.9-7.1-7.5c-1.3-1.5-2.5-3-3.6-4.6c-1.1-1.5-2.1-3-3.2-4.5c-1.1-1.8-2.2-3.5-3.1-5.3
			c-1-2-1.8-4-2.5-6.1c-0.7-1.9-1.2-3.8-1.8-5.8c-0.4-1.9-0.8-3.8-1.3-5.6c-0.4-1.9-0.7-3.8-0.9-5.7c-0.2-2-0.3-4-0.4-6.1
			c-0.1-2,0.1-4,0.2-6.1c0.1-2,0.3-3.9,0.5-5.9c0.3-2,0.6-4,1-6.1c0.4-2.1,1-4.1,1.6-6.1c0.6-2.1,1.4-4.1,2.3-6.1
			c0.9-2,1.9-4,2.9-5.9c1-2,2.2-3.8,3.3-5.7s2.4-3.7,3.6-5.5c1.3-1.8,2.6-3.5,4.1-5.1c1.4-1.6,2.9-3.2,4.4-4.7
			c1.6-1.5,3.3-3,5.1-4.3c1.6-1.3,3.3-2.6,5.1-3.7c1.7-1.1,3.4-2.2,5.2-3.2c1.7-1,3.5-1.9,5.4-2.7c1.9-0.9,3.8-1.6,5.8-2.4
			c2-0.7,4-1.3,6-1.8c2-0.5,4.1-0.8,6.2-1.1c2.1-0.3,4.1-0.4,6.2-0.5c2.2-0.1,4.4-0.1,6.5-0.1c2.2,0.1,4.2,0.3,6.3,0.5
			c2.2,0.2,4.3,0.5,6.5,0.9c2.2,0.3,4.2,0.8,6.4,1.3c2,0.5,4,1.1,6,1.7c2.1,0.6,4.1,1.3,6.1,2.1c2.1,0.8,4.2,1.8,6.2,2.8
			c2.1,1.1,4.1,2.3,6.1,3.6c1.8,1.3,3.5,2.7,5.3,4.1c2.8,2.4,5.3,5,7.7,7.8c1.4,1.6,2.7,3.3,4,4.9c1.3,1.7,2.5,3.4,3.7,5.2
			c1.2,1.8,2.4,3.7,3.5,5.7c1.1,1.8,2,3.6,2.9,5.5c0.9,1.8,1.6,3.6,2.4,5.5c0.7,1.8,1.3,3.6,2,5.3c0.6,1.8,1.1,3.5,1.7,5.3
			c0.5,1.8,1,3.6,1.4,5.3c0.5,1.8,0.9,3.7,1.1,5.5c0.3,2,0.5,3.9,0.5,5.9c0.1,1.9-0.1,3.8-0.1,5.7c-0.1,2-0.4,4-0.7,5.9
			c-0.4,2.1-0.9,4.1-1.6,6.1c-0.7,2.1-1.6,4.2-2.6,6.1c-0.9,1.8-2,3.5-3,5.2c-1,1.6-2.2,3.2-3.3,4.7s-2.4,3-3.7,4.4
			c-1.2,1.3-2.5,2.6-3.8,3.9c-1.3,1.3-2.7,2.6-4.1,3.8c-1.3,1.1-2.8,2.3-4.2,3.4c-1.5,1.2-3.1,2.2-4.7,3.3c-1.6,1.1-3.3,2-5,3
			s-3.4,1.8-5.2,2.6c-1.7,0.8-3.4,1.6-5.2,2.2c-1.8,0.7-3.6,1.3-5.4,1.9c-3.7,1.1-7.4,2-11.2,2.6c-1.8,0.3-3.6,0.5-5.5,0.7
			c-1.1,0.1-2.3,0.2-3.4,0.3c-4.5,1.2-9.2-1.5-10.4-6.1c-1.2-4.5,1.5-9.2,6.1-10.4c0.3-0.1,0.6-0.1,0.9-0.2l0,0
			c1.1-0.1,2.2-0.2,3.3-0.3c1.6-0.1,3.2-0.3,4.8-0.5c1.5-0.2,3.1-0.5,4.6-0.8c1.6-0.3,3-0.7,4.6-1.1c1.5-0.5,3-0.9,4.4-1.5
			c1.5-0.6,3-1.1,4.4-1.8c1.5-0.7,2.9-1.3,4.4-2.1c1.3-0.7,2.8-1.6,4.1-2.4c1.3-0.9,2.6-1.7,3.8-2.6c1.3-0.9,2.5-2,3.7-3
			c1.1-0.9,2.2-2,3.2-3c1.1-1.1,2.2-2.2,3.2-3.4c1-1.1,2-2.2,2.9-3.4c1-1.2,1.8-2.5,2.6-3.8c0.8-1.3,1.6-2.7,2.3-4.1
			c0.7-1.3,1.2-2.6,1.6-4c0.4-1.4,0.7-2.8,0.9-4.2c0.2-1.4,0.4-2.9,0.5-4.3c0.1-1.5,0.1-3,0-4.4c-0.1-1.4-0.3-2.8-0.5-4.2
			c-0.3-1.5-0.7-2.9-1.1-4.4c-0.4-1.6-0.9-3.1-1.3-4.6c-0.5-1.5-0.9-3-1.6-4.5c-0.5-1.5-1.2-3-1.9-4.4c-0.7-1.6-1.4-3-2.2-4.5
			c-0.9-1.6-1.8-3.2-2.8-4.8c-1-1.5-1.9-3-3-4.4c-1.1-1.5-2.2-3-3.4-4.4c-1.2-1.5-2.5-2.9-3.8-4.3c-1-1.1-3.7-3.8,1.1,1.1
			c1.8,1.8-3.6-3.8-1.8-1.9c-1.2-1.2-2.6-2.4-4-3.4c-1.3-1.1-2.7-2.1-4.1-3c-1.6-0.9-3-1.7-4.6-2.4c-1.6-0.7-3.2-1.3-4.9-1.9
			c-1.8-0.5-3.6-1-5.3-1.6c-1.8-0.5-3.6-0.9-5.4-1.3s-3.6-0.7-5.5-0.9c-1.8-0.3-3.7-0.4-5.5-0.5c-1.7-0.1-3.4-0.2-5.1-0.1
			c-1.7,0-3.4,0.1-5.1,0.3c-1.6,0.1-3.3,0.5-4.9,0.7c-1.6,0.3-3.1,0.8-4.6,1.3c-1.5,0.5-3,1-4.4,1.7c-1.5,0.7-3,1.3-4.4,2.2
			c-1.4,0.7-2.8,1.6-4.2,2.5c-1.4,0.9-2.8,2-4.2,3c-1.3,1.1-2.7,2.2-4,3.4c-1.2,1.2-2.4,2.4-3.5,3.7c-1.2,1.3-2.2,2.7-3.2,4.1
			c-1.1,1.6-2.1,3.1-3.1,4.7s-2,3.2-2.8,4.9c-0.8,1.6-1.6,3.2-2.3,4.8c-0.6,1.6-1.2,3.1-1.7,4.6c-0.5,1.6-0.9,3.2-1.1,4.9
			c-0.3,1.6-0.5,3.3-0.7,4.9c-0.2,1.7-0.3,3.4-0.3,5.1c-0.1,1.6-0.1,3.2-0.1,4.9c0,1.5,0.2,3,0.4,4.5c0.3,1.6,0.5,3,0.9,4.6
			c0.4,1.6,0.7,3.3,1.2,4.9c0.5,1.6,0.9,3.1,1.6,4.6c0.6,1.4,1.3,2.7,2,4c0.8,1.3,1.6,2.7,2.6,4c0.9,1.3,1.9,2.6,2.9,3.9
			c1,1.3,2.2,2.5,3.2,3.7c0.6,0.6,1.1,1.3,1.8,1.9l0.6,0.6c-2.8-2.9-3.2-3.2-1.8-1.9c1.1,1.3,2.6,2.4,3.8,3.6
			c1.3,1.1,2.7,2.4,4.1,3.4c1.3,1.1,2.8,2,4.2,3c1.3,0.9,2.7,1.7,4.2,2.4c1.5,0.7,3,1.3,4.4,1.9c1.5,0.5,3,0.9,4.5,1.3
			c1.7,0.3,3.4,0.5,5.1,0.8c1.7,0.2,3.4,0.4,5.1,0.4c1.7,0.1,3.4,0.1,5.1,0c1.6-0.1,3.2-0.2,4.9-0.4c1.6-0.2,3-0.5,4.6-0.7
			c1.5-0.3,3-0.8,4.5-1.3c1.6-0.5,3.1-1.3,4.6-2c1.5-0.6,2.9-1.4,4.3-2.2c1.4-0.8,2.7-1.7,3.9-2.6c1.1-0.8,2.2-1.8,3.2-2.8
			c1-1.1,1.9-2.2,2.8-3.4c0.9-1.3,1.8-2.6,2.6-4c0.8-1.4,1.6-2.8,2.2-4.2c0.6-1.4,1.2-2.8,1.6-4.3c0.4-1.5,0.8-3,1.1-4.4
			c0.3-1.4,0.4-2.8,0.5-4.2c0.1-1.3,0.1-2.5-0.1-3.8c-0.1-1.3-0.2-2.6-0.5-3.8c-0.3-1.3-0.6-2.7-0.9-4c-0.3-1.3-0.7-2.6-1.1-3.8
			c-0.5-1.3-1.1-2.7-1.6-4c-0.6-1.4-1.2-2.7-1.9-4c-0.6-1.2-1.3-2.4-2.2-3.5c-0.8-1.1-1.7-2.1-2.6-3c5.4,5.5,1.2,1.1-0.1-0.1
			c-1.1-1.1-2.2-2-3.4-2.9c-1.3-0.9-2.7-2-4.2-2.8c-1.4-0.9-2.9-1.8-4.4-2.6c-1.4-0.7-2.8-1.5-4.2-2.1c-1.4-0.6-2.8-1.1-4.2-1.6
			c-1.3-0.4-2.6-0.7-3.9-0.9c-1.3-0.3-2.6-0.3-3.8-0.3c-1.4,0-2.8,0.1-4.2,0.3c-1.3,0.2-2.6,0.4-3.9,0.7c-1.2,0.3-2.4,0.7-3.6,1.1
			c-1.3,0.5-2.5,1.1-3.7,1.6c-1.3,0.6-2.6,1.3-3.8,2c-1.2,0.7-2.4,1.5-3.5,2.2c-1,0.7-2,1.4-3,2.2c-1.1,0.9-2.1,1.9-3.1,2.9
			c-1,1-1.9,2-2.8,3c-0.9,1.1-1.7,2.2-2.5,3.4c-0.7,1.1-1.3,2.3-1.8,3.4c-0.5,1.2-0.9,2.4-1.3,3.6c-0.3,1.1-0.5,2.2-0.7,3.3
			c-0.1,1-0.1,1.9,0,2.9c0.1,0.9,0.4,1.7,0.7,2.6c0.4,1,0.9,1.9,1.5,2.8c0.6,1.1,1.3,2.1,2.1,3.1c0.8,1,1.6,2,2.5,3
			c0.3,0.3,0.6,0.7,0.9,0.9l0.5,0.5c-4.7-4.9-2.6-2.6-1.6-1.6c1,1,2,2,3.1,2.8c1,0.8,2.1,1.6,3.3,2.2c1.1,0.6,2.2,1.2,3.4,1.6
			c1.1,0.4,2.2,0.7,3.3,0.9c1.1,0.2,2.1,0.3,3.2,0.3c1.2-0.1,2.4-0.1,3.6-0.3c1.2-0.2,2.4-0.5,3.6-0.9c1.1-0.3,2.3-0.7,3.3-1.2
			c1-0.4,1.9-0.9,2.8-1.6c0.9-0.6,1.7-1.3,2.4-2c0.8-0.8,1.6-1.6,2.2-2.6c0.7-0.9,1.3-1.8,1.8-2.8c0.6-1.1,1.1-2.2,1.5-3.3
			c0.3-0.9,0.6-1.9,0.8-2.8c0.1-0.8,0.2-1.6,0.1-2.4c0-0.9-0.1-1.7-0.3-2.6c-0.2-0.9-0.5-1.7-0.8-2.5c-0.3-0.8-0.8-1.6-1.3-2.3
			c-0.5-0.7-1.1-1.4-1.7-2c-0.9-1,0.1,0.1-0.5-0.5l-0.3-0.3c4.8,4.9,3,3.2,2.1,2c-0.5-0.6-1.1-1.2-1.7-1.7c-0.6-0.5-1.3-0.9-2-1.2
			c-0.7-0.3-1.5-0.6-2.3-0.7c-0.9-0.2-1.8-0.2-2.7-0.1c-0.7,0-1.5,0-2.2,0.3c-0.6,0.1-1.3,0.3-1.9,0.6c-0.7,0.3-1.3,0.8-2,1.2
			c-0.6,0.4-1.1,0.9-1.5,1.4c-0.3,0.4-0.5,0.8-0.7,1.3c-0.2,0.7-0.3,1.4-0.3,2.1c0,0.5,0,1.1,0.2,1.6c0.1,0.3,0.4,1,0.6,1
			c0.4,0.7,0.8,1.3,1.3,2c0.4,0.5,0.8,0.9,1.2,1.2c-0.9-0.9-1.9-1.9-2.8-2.8c0.1,0.1,0.3,0.3,0.2,0.4c0,0.1-0.2,0-0.1,0
			c0.1,0.2,0.3,0.2,0.4,0.4c0.3,0.4,0.3,0.3-0.2,0.5c4.5,0.5,7.7,4.6,7.2,9.1c-0.5,4.5-4.6,7.7-9.1,7.2
			C1372.7,308.4,1372.3,308.4,1372,308.3z"/>
		<path id="パス_100_00000039849974332799485030000006224042719711587507_" class="st6" d="M1403.6,155.9c0.1,0.9,0.1,1.7,0,2.6
			v3.4c0,1.6-0.1,3.2-0.1,4.9c-0.1,1.8-0.1,3.6-0.2,5.3c-0.1,1.9-0.1,3.8-0.2,5.7c-0.1,2-0.2,4.1-0.3,6.1c0,0.3,0,0.7-0.1,1
			c0.1,5.1-3.9,9.2-9,9.3s-9.2-3.9-9.3-9c0-0.4,0-0.8,0.1-1.1l0,0c0-0.3,0.1-0.7,0.1-1.1c0.1-2,0.3-3.9,0.3-5.9c0.1-2,0.1-4,0.3-5.9
			c0.1-1.8,0.2-3.6,0.3-5.5c0.1-1.5,0.3-3,0.3-4.5c0.1-1.3,0.2-2.6,0.3-3.8c0.1-0.6,0.1-1.1,0.2-1.6c-0.2-4.8,3.6-8.8,8.4-9
			c4.8-0.2,8.8,3.6,9,8.4C1403.6,155.4,1403.6,155.6,1403.6,155.9z"/>
		<path id="パス_101_00000023240412809783300450000013747434794868192175_" class="st6" d="M1474.6,177.8c-0.1,1-0.4,2-0.7,3
			c-0.3,1.1-0.8,2-1.2,3.1c-0.5,1.3-1.1,2.6-1.8,3.8c-0.7,1.4-1.5,2.9-2.2,4.3c-0.7,1.3-1.5,2.8-2.2,4.2c-0.8,1.6-1.6,3.2-2.4,4.8
			c-0.5,1-1,2-1.5,3.1c-1.6,4.7-6.7,7.3-11.5,5.7c-4.7-1.6-7.3-6.7-5.7-11.5c0.1-0.3,0.2-0.7,0.4-1l0,0c0.5-1.1,1.1-2.4,1.7-3.5
			c0.8-1.6,1.6-3.2,2.4-4.7c0.8-1.6,1.6-3.2,2.5-4.7c0.7-1.3,1.5-2.6,2.2-3.9c0.6-1.1,1.2-2.2,1.8-3.3c0.4-0.7,0.8-1.5,1.1-2.2
			c0.6-1.3-0.2,0.7,0.3-0.1c0.5-4.7,4.7-8.1,9.5-7.6c4.7,0.5,8.1,4.7,7.6,9.5C1474.7,177.1,1474.7,177.4,1474.6,177.8z"/>
		<path id="パス_102_00000176033818776066655660000004910557700250495402_" class="st6" d="M1326.2,170.4c0-0.1-0.1-0.2-0.1-0.3
			C1326.2,170.1,1326.2,170.3,1326.2,170.4c0.1,0,0-0.3,0.1-0.3c0.1,0.1,0.1,0.2,0.3,0.3c0.5,0.7,0.9,1.4,1.4,2.1c0.6,1,1.3,2,2,2.9
			c0.9,1.2,1.8,2.5,2.6,3.7l2.8,4.4c1,1.6,1.9,3.3,2.9,4.9c0.1,0.3,0.3,0.5,0.5,0.8c2.4,4.4,0.8,9.9-3.6,12.3
			c-4.4,2.4-9.9,0.8-12.3-3.6c-0.2-0.3-0.3-0.6-0.5-1l0,0c-0.1-0.3-0.3-0.5-0.5-0.8c-0.9-1.6-1.7-3.1-2.6-4.5
			c-0.9-1.4-1.8-2.9-2.7-4.3c-0.9-1.3-1.7-2.6-2.5-4c-0.6-1-1.2-2.1-1.8-3.1c-0.4-0.7-0.8-1.6-1.3-2.3c-0.5-0.9-0.9-1.9-1.2-2.8
			c-1.6-4.5,0.7-9.4,5.2-11c4.5-1.6,9.4,0.7,11,5.2C1326,169.7,1326.1,170.1,1326.2,170.4z"/>
		<path id="パス_103_00000025429587851858384070000018335039965374743462_" class="st6" d="M1273.6,216.3c0.6,0.3,1.1,0.5,1.6,0.9
			c0.9,0.3,1.7,0.8,2.4,1.3c1,0.5,1.9,1.1,2.8,1.6c1.1,0.7,2.4,1.2,3.5,1.8l4.2,2c1.6,0.7,3.2,1.6,4.8,2.4c1.7,0.8,3.4,1.8,5,2.8
			c0.9,0.5,1.7,1,2.5,1.6c3.9,3.1,4.7,8.7,1.6,12.7c-3.1,3.9-8.7,4.7-12.7,1.6c-0.3-0.2-0.5-0.4-0.8-0.7l0,0
			c-0.7-0.4-1.5-0.8-2.2-1.2c-1.5-0.9-3-1.6-4.5-2.4c-1.5-0.8-3-1.5-4.4-2.2c-1.6-0.7-3.1-1.6-4.6-2.4c-1.3-0.7-2.6-1.6-3.9-2.4
			c-1-0.7-2-1.2-3-1.9c-0.8-0.4-1.5-0.9-2.2-1.3c-1.2-0.6-0.4-0.4-1.3-0.9c-3.8-2.9-4.6-8.3-1.7-12.1c2.9-3.8,8.3-4.6,12.1-1.7
			C1273.1,215.9,1273.3,216.1,1273.6,216.3z"/>
		<path id="パス_104_00000080914123949158470520000004384459300333254295_" class="st6" d="M1282.6,355c-1.4,1.3-0.8,0.7-0.2,0.2
			c0.9-1,1.9-2,2.9-3c1.6-1.5,3-3,4.6-4.4c1.6-1.4,3.2-2.8,4.7-4.2c0.9-0.9,1.8-1.7,2.8-2.4c3-4,8.7-4.9,12.8-1.8
			c4,3,4.9,8.7,1.8,12.8c-0.2,0.3-0.4,0.5-0.7,0.8l0,0c-0.7,0.6-1.3,1.1-2,1.7c-1.7,1.6-3.3,3.2-5.1,4.8c-1.6,1.3-3.1,2.7-4.6,4
			c-1.1,1-2.4,1.8-3.5,2.9c-1.1,1.1-2.4,2-3.6,3c-3.7,3-9.2,2.4-12.2-1.4s-2.4-9.2,1.4-12.2C1282,355.4,1282.3,355.2,1282.6,355z"/>
		<path id="パス_105_00000181045883206608540080000011775617631513006745_" class="st6" d="M1333,399.9c-0.1,0.2-0.4,0.7-0.3,0.5
			C1332.6,400.2,1332.8,400.1,1333,399.9c0.1-0.1-0.1,0.1-0.1,0.2C1332.8,400.2,1332.9,400,1333,399.9c0.4-0.9,0.8-1.8,1.2-2.7
			c0.6-1.3,1.2-2.7,1.8-4c0.7-1.8,1.6-3.6,2.4-5.5l2.6-5.5c0.4-0.9,0.9-1.8,1.3-2.6c1.6-4.8,6.8-7.3,11.6-5.6
			c4.8,1.6,7.3,6.8,5.6,11.6c-0.1,0.3-0.2,0.6-0.4,0.9l0,0c-0.4,0.9-0.9,1.8-1.3,2.7c-0.9,1.7-1.7,3.5-2.6,5.3
			c-0.8,1.6-1.6,3.2-2.4,4.8c-0.7,1.5-1.3,3-2.2,4.4c-0.5,1.1-1.1,2-1.7,3c-0.6,1.1-1.3,2.2-2,3.2c-2.6,4-7.9,5.2-11.9,2.7
			c-4-2.6-5.2-7.9-2.7-11.9C1332.6,400.4,1332.8,400.1,1333,399.9z"/>
		<path id="パス_106_00000119078896804861259810000006871651736581912231_" class="st6" d="M1475.4,349c0.4,0.4,0.8,0.7,1.2,1
			c0.7,0.5,1.3,0.9,2.1,1.4c1.2,0.7,2.2,1.6,3.4,2.3c1.4,1.1,3,2,4.4,3c1.7,1.1,3.3,2.4,4.8,3.7c1.6,1.1,3,2.5,4.5,3.8
			c0.9,0.7,1.6,1.6,2.6,2.3c3.4,3.6,3.2,9.4-0.4,12.8c-3.6,3.4-9.4,3.2-12.8-0.4c-0.2-0.3-0.5-0.5-0.7-0.8l0,0
			c-0.9-0.9-2-1.7-2.9-2.6c-1.3-1.1-2.7-2.2-4-3.4c-1.3-0.9-2.6-1.9-4-2.8c-1.5-1-2.9-2.2-4.4-3.2c-1.3-1-2.6-2-3.9-3.2
			c-1-0.9-2-1.8-2.8-2.8c-0.5-0.6-0.9-1.1-1.3-1.6c-3-3.7-2.4-9.2,1.4-12.2c3.7-3,9.2-2.4,12.2,1.4
			C1474.9,348.3,1475.2,348.7,1475.4,349z"/>
		<path id="パス_107_00000163030358145684572210000000139207043232263556_" class="st6" d="M1492.1,294c0.8-0.2,1.7-0.2,2.6-0.2
			c2.7,0,5.3,0.2,7.9,0.7l4.2,0.4c1.8,0.2,3.4,0.4,5.2,0.6c2,0.2,4,0.4,5.9,0.7c1.8,0.3,3.6,0.7,5.4,1.1c4.7,1.7,7.1,7,5.4,11.7
			c-1.7,4.7-7,7.1-11.7,5.4c-0.4-0.2-0.8-0.3-1.2-0.6l0,0c-1.5-0.2-3-0.5-4.5-0.6l-5.9-0.8c-1.7-0.2-3.4-0.5-5.1-0.7
			c-1.3-0.2-2.8-0.4-4.1-0.7c-4.2-0.7,6,0.7,2,0.1c-0.4-0.1-1-0.1-1.3-0.3c-4.5,1.6-9.5-0.8-11.1-5.3c-1.6-4.5,0.8-9.5,5.3-11.1
			C1491.4,294.2,1491.7,294.1,1492.1,294z"/>
		<path id="パス_108_00000129195235517717161370000013289382638658328204_" class="st6" d="M1485.4,236.6
			c-0.4,0.2,1.5-0.7,1.7-0.8c1.3-0.6,2.7-1.2,4-1.7c1.6-0.5,3.3-1.1,4.9-1.6c2-0.7,4-1.3,6.1-2c2.3-0.7,4.6-1.3,7-2
			c1.6-0.4,3.1-0.7,4.6-1.1c4.3-2.6,9.8-1.2,12.4,3.1c2.6,4.3,1.2,9.8-3.1,12.4c-0.3,0.2-0.6,0.4-1,0.5l0,0
			c-1.7,0.7-3.5,1.3-5.3,1.8c-2.2,0.5-4.3,1.1-6.4,1.6c-2,0.6-4,1-6,1.7c-1.8,0.5-3.4,1.1-5.2,1.4c-1.1,0.2-2.1,0.4-3.1,0.7
			c-0.8,0.2-1.5,0.5-2.2,0.8c-3.9,2.7-9.3,1.6-11.9-2.3c-2.7-3.9-1.6-9.3,2.3-11.9C1484.6,237,1485,236.8,1485.4,236.6z"/>
		<path id="パス_109_00000002345637549081634980000008125520356441217924_" class="st6" d="M1424,385.1V385
			c0.5,1.6,0.1,0.1,0.4,1.3c0.4,1.1,0.7,2.2,0.9,3.4l0.8,3.8c0.3,1.6,0.6,3.2,0.8,4.7c0.3,1.5,0.6,3,0.9,4.4c0.4,1.6,0.7,3.3,1,5
			c0.3,1.7,0.8,3.4,1,5.1c0.7,4.9-2.6,9.5-7.6,10.3s-9.5-2.6-10.3-7.6c-0.1-0.3-0.1-0.7-0.1-1l0,0c-0.5-1.6-0.7-3.3-1-5l-1-5.1
			c-0.3-1.7-0.6-3.3-0.9-5c-0.2-1.3-0.4-2.8-0.7-4.1c-0.2-1.1-0.3-2.4-0.6-3.5c-0.1-0.7-0.3-1.4-0.5-2.1c-0.3-1.2-0.2-1.2-0.4-1.8
			c-1.1-4.7,1.9-9.3,6.6-10.4c4.7-1.1,9.3,1.9,10.4,6.6C1423.9,384.4,1424,384.7,1424,385.1z"/>
		<path id="パス_110_00000140721508026596150670000015828855438404808084_" class="st6" d="M1255.3,283.2c-0.1,0.1,0.3,0.1,1,0.1
			c0.7,0.1,1.5,0.1,2.3,0.2c1,0.1,2,0.2,3,0.1c1.3,0.1,2.6,0,3.9,0.1c1.5,0,2.9,0.1,4.4,0.1c1.8-0.1,3.6-0.1,5.4-0.1
			c2,0,3.9,0.1,5.8,0.2l3.1,0.2c4.9-1.1,9.8,2.1,10.8,7c1.1,4.9-2.1,9.8-7,10.8c-0.4,0.1-0.9,0.2-1.3,0.2l0,0
			c-0.9-0.1-1.8-0.2-2.6-0.3c-1.8-0.1-3.5-0.3-5.2-0.4c-1.6-0.1-3.2-0.1-4.7-0.1c-1.7,0.1-3.3,0.1-5,0c-1.4,0-2.8-0.2-4.2-0.1
			l-3.8-0.2c-0.9-0.1-1.8-0.1-2.7-0.3c-0.7-0.1-1.5-0.2-2.2-0.3c-4.7,0.6-9.1-2.7-9.7-7.5c-0.6-4.7,2.7-9.1,7.5-9.7
			C1254.5,283.2,1254.9,283.2,1255.3,283.2z"/>
	</g>
	<g id="_151221679_更新済み__00000073000282205310413970000006861921553953405845_" transform="translate(86 330.849)">
		<path id="パス_111_00000071558923461593854350000015263238888408401591_" class="st7" d="M262.4,666
			c19.3-23.6,34.8-27.2,34.8-27.2c2.2-2.5-4.2-9.7-4.2-9.7c5.1-0.8,12.4,7.8,12.4,7.8s1.3,1.6,1.8,2.4c0,0-0.8-1.4-1.4-2.4
			c23.8-3,30.5,8.2,30.5,8.2c3.5,4.5,1.6,12,1,13.8l-1.1-1.4l0.9,1.9c0.7,1.5,1.3,3,1.8,4.6c0.3,1.1-0.1,2.3-1,3l0,0
			c-0.7,0.5-1.2,0.1-1.8-0.6l-2.4-3.2c-2.7-2.6-6-4.3-9.7-5l0,0.5c0,0,3.5,8.7-5.4,16.5c-0.1,0.1-0.3,0.1-0.4,0
			c-0.1-0.1-0.1-0.2-0.1-0.2c0.9-2.5,0.9-5.2,0.2-7.8c-1.3-3.1-2.3-6.4-3-9.7l0-0.2c-0.9,0-1.6,0-2.1,0c0.6-0.6,1-1.3,1.4-2
			c-0.6,0.7-1.3,1.4-2,2.1c-7.8,7.1-14.1,7.9-16.6,7.9c-0.1,0-0.3-0.1-0.3-0.3c0-0.1,0.1-0.2,0.2-0.2c2-1.2,3.6-3,4.5-5.2
			c-7.6-1.1-35.2,10.5-35.2,10.5c-2.1,16.7-8.4,16.9-8.4,16.9c4.3-5.7,0.3-13.8,0.3-13.8c-0.4-0.8-0.9-1.5-1.5-2.1
			c0.3,0.5,0.6,1.1,0.8,1.7c-6.5-4.3-11.3-3.3-11.3-3.3C249.8,663.5,262.4,666,262.4,666z"/>
		<path id="パス_112_00000178197854524723175970000013258414339738165172_" class="st8" d="M139.9,647.5
			c28.3-61.5,59.5-77.9,59.5-77.9c3.3-6.5-14.4-18.4-14.4-18.4c10.5-4.6,31,9.9,31,9.9s3.6,2.6,5.2,4.1c0,0-2.4-2.7-4.3-4.4
			c49.5-19.9,70.1,0.5,70.1,0.5c10.1,7.8,10.2,25,10,29.2l-3.1-2.5l3,3.4c2.4,2.8,4.5,5.7,6.4,8.8c1.3,2.2,1.2,4.9-0.4,6.9l0,0
			c-1.2,1.5-2.6,0.8-4.1-0.4l-7-5.5c-6.8-4.4-15.5-5.6-23.6-5.3l0.4,1c0,0,12.4,16.6-2.3,38.4c-0.2,0.3-0.6,0.4-0.9,0.2
			c-0.2-0.1-0.3-0.3-0.3-0.6c0.1-3.8-0.1-11.6-3.9-16.8c-4.4-6-8.4-12.4-11.9-19.1l-0.2-0.4c-1.9,0.5-3.5,0.9-4.5,1.3
			c0.9-1.6,1.5-3.3,1.8-5.1c-0.9,1.9-2,3.8-3.2,5.6c-12.8,19.6-25.8,24.8-31.3,26.2c-0.3,0.1-0.6-0.1-0.7-0.4
			c-0.1-0.2,0-0.4,0.2-0.6c5.5-4.7,6.8-13.6,6.8-13.6c-16.9,2-69.8,42.4-69.8,42.4c4.8,37.1-8.6,41.1-8.6,41.1c6-14.6-7-29.8-7-29.8
			c-1.3-1.4-2.8-2.7-4.4-3.8c0.9,1,1.8,2.1,2.6,3.1c-16.3-5.6-26.2-0.8-26.2-0.8C111.6,649.2,139.9,647.5,139.9,647.5z"/>
		<g id="グループ_22_00000120538364613577590400000000125062761141422735_" transform="translate(10.39 71.942)">
			<path id="パス_113_00000168098903850194813850000011896342962032128140_" class="st7" d="M117.6,638.4c0,0,0.7,0.6,2,1.8
				c0.3,0.3,0.7,0.6,1.1,0.9c0.2,0.2,0.4,0.3,0.7,0.5c0.2,0.2,0.5,0.4,0.7,0.5c1,0.7,2.2,1.6,3.5,2.4c3.2,2,6.6,3.7,10.2,5.1
				c2.2,0.8,4.4,1.5,6.6,2.1c0.6,0.1,1.2,0.3,1.8,0.4c0.6,0.1,1.2,0.3,1.9,0.4s1.3,0.2,1.9,0.3s1.3,0.2,1.9,0.3
				c5.7,0.8,11.4,1,17.2,0.8c6.5-0.3,12.9-1,19.3-2.1c1.7-0.3,3.4-0.6,5.1-0.9c1.7-0.3,3.4-0.6,5.1-1s3.5-0.7,5.2-1
				c1.8-0.4,3.5-0.7,5.3-1.1c7.1-1.5,14.4-3,21.7-4.4c7.3-1.4,14.7-2.8,22.1-3.8c3.7-0.5,7.4-0.9,11-1.3c0.4,0,0.9-0.1,1.4-0.1
				s0.9-0.1,1.4-0.1c0.9-0.1,1.8-0.1,2.7-0.2c0.4,0,0.9-0.1,1.4-0.1c0.1,0,0.1,0,0.2,0h0.2l0.3,0l0.7,0c0.9,0,1.8-0.1,2.6-0.1
				c7-0.1,14,0.3,20.9,1.4c6.1,1,12.1,2.4,18.1,4.2c0.7,0.2,1.4,0.4,2,0.6c0.2,0.1,0.3,0.1,0.5,0.1c0.2,0.1,0.3,0.1,0.5,0.2
				c0.3,0.1,0.7,0.2,1,0.4l1.9,0.7c0.3,0.1,0.6,0.2,0.9,0.3c0.1,0.1,0.3,0.1,0.5,0.2c0.2,0.1,0.3,0.1,0.4,0.2c1.2,0.5,2.4,1,3.5,1.4
				c0.3,0.1,0.6,0.2,0.8,0.4c0.3,0.1,0.6,0.2,0.8,0.4c0.5,0.2,1.1,0.5,1.6,0.7c1,0.5,2.1,0.9,3,1.4s1.9,0.9,2.8,1.4
				c0.2,0.1,0.4,0.2,0.7,0.3s0.4,0.2,0.6,0.3l1.2,0.7c0.8,0.4,1.6,0.9,2.3,1.3c2.8,1.7,5,3,6.5,4.1c1.4,1,2.2,1.5,2.2,1.5
				s-0.9-0.3-2.5-0.9c-0.4-0.1-0.9-0.3-1.4-0.5c-0.2-0.1-0.5-0.2-0.8-0.3s-0.6-0.2-0.9-0.3c-0.6-0.2-1.3-0.4-1.9-0.6
				c-0.3-0.1-0.7-0.2-1.1-0.4c-0.4-0.1-0.7-0.3-1.1-0.4c-0.8-0.2-1.6-0.5-2.4-0.7c-0.4-0.1-0.9-0.3-1.3-0.4
				c-0.2-0.1-0.4-0.1-0.7-0.2c-0.2-0.1-0.5-0.1-0.7-0.2c-0.9-0.3-1.9-0.5-2.9-0.8c-1-0.3-2.1-0.5-3.1-0.8c-0.5-0.1-1.1-0.3-1.6-0.4
				l-0.8-0.2c-0.3-0.1-0.6-0.1-0.9-0.2c-1.2-0.3-2.3-0.5-3.6-0.8l-0.4-0.1c-0.1,0-0.3-0.1-0.5-0.1c-0.3-0.1-0.6-0.1-0.9-0.2
				c-0.6-0.1-1.3-0.2-1.9-0.4c-0.3-0.1-0.6-0.1-1-0.2c-0.2,0-0.3-0.1-0.5-0.1s-0.3-0.1-0.5-0.1l-2-0.3c-5.8-1-11.6-1.6-17.4-2
				c-6.4-0.4-12.8-0.3-19.2,0.2c-0.9,0.1-1.7,0.2-2.6,0.2l-0.7,0.1l-0.3,0l-0.2,0h-0.1c-0.1,0,0.2,0,0,0c-0.4,0.1-0.9,0.1-1.3,0.1
				c-0.9,0.1-1.7,0.2-2.6,0.3c-0.4,0.1-0.9,0.1-1.3,0.2s-0.9,0.1-1.3,0.2c-1.7,0.2-3.5,0.5-5.2,0.8s-3.5,0.5-5.3,0.9
				c-7.1,1.2-14.3,2.6-21.5,4c-7.3,1.4-14.6,2.9-21.8,4.1c-1.8,0.3-3.6,0.6-5.4,0.9c-1.8,0.3-3.6,0.5-5.4,0.8s-3.6,0.5-5.4,0.7
				c-0.9,0.1-1.8,0.2-2.6,0.3c-0.4,0.1-0.9,0.1-1.3,0.1l-0.7,0.1l-0.4,0l-0.3,0c-6.9,0.7-13.9,0.9-20.8,0.5
				c-6.3-0.3-12.5-1.4-18.6-3c-0.7-0.2-1.4-0.4-2.1-0.6l-2-0.7c-0.7-0.2-1.3-0.5-1.9-0.7c-0.3-0.1-0.6-0.2-1-0.4
				c-0.3-0.1-0.6-0.3-0.9-0.4c-0.3-0.1-0.6-0.2-0.9-0.4c-0.3-0.2-0.6-0.3-0.9-0.4c-0.6-0.3-1.2-0.5-1.7-0.8
				c-0.6-0.3-1.1-0.6-1.6-0.9l-1.6-0.9c-0.1-0.1-0.3-0.1-0.4-0.2c-0.1-0.1-0.3-0.2-0.4-0.2c-0.2-0.1-0.5-0.3-0.7-0.5
				c-0.5-0.3-1-0.6-1.4-0.9c-0.5-0.3-0.9-0.6-1.3-0.9s-0.8-0.6-1.2-1c-1.5-1.1-2.9-2.4-4.2-3.7c-0.3-0.3-0.6-0.6-0.9-0.9
				c-0.3-0.3-0.5-0.6-0.8-0.8c-0.1-0.1-0.2-0.3-0.4-0.4c-0.1-0.1-0.2-0.3-0.3-0.4c-0.2-0.3-0.4-0.5-0.7-0.8
				c-0.2-0.2-0.4-0.5-0.6-0.7s-0.4-0.5-0.5-0.7c-0.3-0.4-0.6-0.8-0.9-1.2c-0.5-0.7-0.9-1.3-1.1-1.7
				C117.8,638.8,117.7,638.6,117.6,638.4z"/>
			<path id="パス_114_00000098187038602983628370000006590083212374951316_" class="st8" d="M136.6,664c0,0,0.6,0.5,1.8,1.5
				c0.3,0.2,0.6,0.5,1,0.7c0.2,0.1,0.4,0.3,0.6,0.4c0.2,0.2,0.4,0.3,0.6,0.4c0.9,0.6,1.9,1.3,3.1,2c2.8,1.7,5.8,3,8.9,4.1
				c1.9,0.6,3.8,1.2,5.7,1.6c0.5,0.1,1,0.2,1.6,0.3c0.5,0.1,1.1,0.2,1.6,0.3c0.5,0.1,1.1,0.2,1.6,0.2c0.6,0.1,1.1,0.1,1.7,0.2
				c4.9,0.5,9.9,0.6,14.8,0.2c5.5-0.4,11.1-1.2,16.5-2.3c1.5-0.3,2.9-0.6,4.4-0.9c1.5-0.3,2.9-0.6,4.4-1c1.5-0.3,3-0.7,4.5-1
				s3-0.7,4.5-1.1c6.1-1.5,12.2-3,18.5-4.4c6.3-1.4,12.6-2.8,18.9-3.9c3.2-0.5,6.3-1,9.4-1.4c0.4-0.1,0.8-0.1,1.2-0.1
				s0.8-0.1,1.2-0.1c0.8-0.1,1.6-0.2,2.3-0.2l1.2-0.1l0.2,0h0.1l0.1,0l0.3,0l0.6,0c0.7-0.1,1.5-0.1,2.2-0.1c6-0.3,12-0.1,18,0.6
				c5.3,0.6,10.5,1.7,15.6,3.1c0.6,0.2,1.2,0.3,1.8,0.5l0.4,0.1c0.1,0,0.3,0.1,0.4,0.1c0.3,0.1,0.6,0.2,0.8,0.3
				c0.6,0.2,1.1,0.4,1.7,0.5c0.3,0.1,0.5,0.2,0.8,0.3c0.1,0,0.3,0.1,0.4,0.1c0.1,0,0.3,0.1,0.4,0.1c1,0.4,2.1,0.7,3.1,1.1
				c0.2,0.1,0.5,0.2,0.7,0.3c0.2,0.1,0.5,0.2,0.7,0.3c0.5,0.2,0.9,0.4,1.4,0.6c1.9,0.7,3.5,1.5,5.1,2.2c0.8,0.3,1.5,0.7,2.2,1.1
				s1.4,0.7,2,1c2.5,1.3,4.4,2.4,5.7,3.3c1.3,0.8,2,1.2,2,1.2s-0.8-0.2-2.2-0.7c-0.4-0.1-0.7-0.2-1.2-0.4c-0.2-0.1-0.4-0.1-0.7-0.2
				c-0.2-0.1-0.5-0.1-0.7-0.2c-0.5-0.1-1.1-0.3-1.7-0.5c-0.6-0.2-1.2-0.4-1.9-0.6c-0.7-0.2-1.4-0.4-2.1-0.6s-1.5-0.4-2.3-0.6
				c-1.6-0.4-3.4-0.9-5.3-1.3c-3.8-0.9-8-1.6-12.7-2.3c-5-0.7-10-1.1-15-1.2c-5.5-0.1-11,0.1-16.5,0.7l-2.2,0.3l-0.6,0.1l-0.3,0
				l-0.1,0h-0.1c0,0,0.1,0,0,0l-1.1,0.2l-2.2,0.3l-1.1,0.2c-0.4,0.1-0.7,0.1-1.1,0.2c-1.5,0.3-3,0.5-4.5,0.8c-1.5,0.3-3,0.6-4.5,0.9
				c-6.1,1.2-12.2,2.6-18.4,4.1c-6.2,1.4-12.4,2.9-18.6,4.2c-1.6,0.3-3.1,0.6-4.7,0.9c-1.6,0.3-3.1,0.6-4.6,0.9
				c-1.5,0.3-3.1,0.5-4.6,0.8c-1.5,0.2-3,0.4-4.5,0.7c-5.9,0.8-11.9,1.2-17.8,1.1c-5.4-0.1-10.8-0.8-16-2c-4.4-1.1-8.7-2.7-12.8-4.9
				c-3.1-1.7-5.9-3.7-8.5-6c-0.3-0.2-0.5-0.5-0.8-0.7c-0.2-0.2-0.5-0.5-0.7-0.7l-0.3-0.3c-0.1-0.1-0.2-0.2-0.3-0.3l-0.6-0.6
				c-0.2-0.2-0.4-0.4-0.5-0.6c-0.2-0.2-0.3-0.4-0.5-0.6c-0.3-0.4-0.6-0.7-0.8-1c-0.5-0.6-0.8-1.1-1-1.4
				C136.7,664.2,136.6,664,136.6,664z"/>
		</g>
	</g>
	<g id="グループ_54_00000171679998161307258440000007340344327548120717_" transform="translate(817.886 244.192)">
		<g>
			<defs>
				<rect id="SVGID_1_" x="997.3" y="444.5" width="96.9" height="160.6"/>
			</defs>
			<clipPath id="SVGID_00000124844899706294856750000002610206592059778181_">
				<use xlink:href="#SVGID_1_"  style="overflow:visible;"/>
			</clipPath>
			
				<g id="グループ_26_00000094611287869754009180000004698103012261688755_" style="clip-path:url(#SVGID_00000124844899706294856750000002610206592059778181_);">
				<path id="パス_115_00000035525198268528049030000000694827334116544190_" class="st10" d="M1046.9,605.1
					c-3.7,0-6.9-1.9-7.5-4.5c-1.4-6-3.2-16.2-0.4-21.1c0.9-1.6,5.5-2.9,7.2-2.9c1.5,0,6.9,0.7,7.9,2c3.4,4.6,2.1,15.4,0.9,21.7
					c-0.5,2.7-3.7,4.7-7.5,4.7L1046.9,605.1z"/>
				<path id="パス_116_00000034772614543716255370000010790513147884365697_" class="st11" d="M1046.1,578.4c-1.7,0-7.1,1.1-8,2.7
					c-1.2,2.1-0.7,5.3-0.6,8.7c6.2-0.5,12.4-0.5,18.6,0c0-3.7,1-7-0.5-9.2C1054.6,579.2,1047.7,578.4,1046.1,578.4"/>
				<path id="パス_117_00000027593261815953219070000017718923594503251610_" class="st12" d="M1047.7,586.1c0,0-46.2,5-46.2-20.5
					c0-25.5,18.3-26,18.3-26s-23-4.4-22.4-20.5c0.6-16,24.6-19.4,24.6-19.4s-16.8-7.8-16.8-23.3s12.7-32,34.9-32
					c22.1,0,32.3,16.5,32.8,27.5c0.6,11.1-12.7,24.9-12.7,24.9s17.2,4.4,17.7,17.7c0.6,13.3-6.6,20.5-14.4,22.7
					c18.3,3.3,30.7,10.7,30.7,24.6C1094.2,577.4,1076,583.5,1047.7,586.1"/>
				<path id="パス_118_00000143618155398948985840000004367674425762356896_" class="st12" d="M1047.7,586.1c0,0-46.2,5-46.2-20.5
					c0-25.5,18.3-26,18.3-26s-23-4.4-22.4-20.5c0.6-16,24.6-19.4,24.6-19.4s-16.8-7.8-16.8-23.3s12.7-32,34.9-32
					c22.1,0,32.3,16.5,32.8,27.5c0.6,11.1-12.7,24.9-12.7,24.9s17.2,4.4,17.7,17.7c0.6,13.3-6.6,20.5-14.4,22.7
					c18.3,3.3,30.7,10.7,30.7,24.6C1094.2,577.4,1076,583.5,1047.7,586.1"/>
				<path id="パス_119_00000065034523183724672560000015860943016508838067_" class="st13" d="M1041.7,586.1c0,0-40.8,5-40.8-20.5
					c0-25.5,16.1-26,16.1-26s-20.3-4.4-19.8-20.5c0.5-16,21.7-19.4,21.7-19.4s-14.8-7.8-14.8-23.3c0-15.5,11.2-32,30.7-32
					c19.5,0,28.4,16.5,28.9,27.5c0.5,11.1-11.2,24.9-11.2,24.9s15.1,4.4,15.6,17.7c0.5,13.3-5.9,20.5-12.7,22.7
					c16.1,3.3,27.1,10.7,27.1,24.6C1082.7,577.4,1066.7,583.5,1041.7,586.1"/>
			</g>
		</g>
	</g>
	<g id="グループ_58_00000092428947359630168700000010311804955147595413_" transform="translate(228 153.427)">
		<g>
			<defs>
				<rect id="SVGID_00000140698995640100809940000007591629634148131714_" x="278" y="333.8" width="96.9" height="160.6"/>
			</defs>
			<clipPath id="SVGID_00000152954633115022305480000006075883694315410048_">
				<use xlink:href="#SVGID_00000140698995640100809940000007591629634148131714_"  style="overflow:visible;"/>
			</clipPath>
			
				<g id="グループ_26-2_00000103975077987443215120000003970171226019344550_" style="clip-path:url(#SVGID_00000152954633115022305480000006075883694315410048_);">
				<path id="パス_115-2_00000137811023542651892620000014374476512392587151_" class="st10" d="M327.6,494.4
					c-3.7,0-6.9-1.9-7.5-4.5c-1.4-6-3.2-16.2-0.4-21.1c0.9-1.6,5.5-2.9,7.2-2.9c1.5,0,6.9,0.7,7.9,2c3.4,4.6,2.1,15.4,0.9,21.7
					c-0.5,2.7-3.7,4.7-7.5,4.7L327.6,494.4z"/>
				<path id="パス_116-2_00000083072593521321869180000004319186384381118085_" class="st11" d="M326.9,467.7
					c-1.7,0-7.1,1.1-8,2.7c-1.2,2.1-0.7,5.3-0.6,8.7c6.2-0.5,12.4-0.5,18.6,0c0-3.7,1-7-0.5-9.2
					C335.4,468.6,328.4,467.7,326.9,467.7"/>
				<path id="パス_117-2_00000010994270510890386370000002721577052239299996_" class="st12" d="M328.4,475.4
					c0,0-46.2,5-46.2-20.5c0-25.5,18.3-26,18.3-26s-23-4.4-22.4-20.5c0.6-16,24.6-19.4,24.6-19.4s-16.8-7.8-16.8-23.3
					c0-15.5,12.7-32,34.9-32s32.3,16.5,32.8,27.5s-12.7,24.9-12.7,24.9s17.2,4.4,17.7,17.7c0.6,13.3-6.6,20.5-14.4,22.7
					c18.3,3.3,30.7,10.7,30.7,24.6C374.9,466.7,356.8,472.8,328.4,475.4"/>
				<path id="パス_118-2_00000165228290707513252240000008304852635436875157_" class="st12" d="M328.4,475.4
					c0,0-46.2,5-46.2-20.5c0-25.5,18.3-26,18.3-26s-23-4.4-22.4-20.5c0.6-16,24.6-19.4,24.6-19.4s-16.8-7.8-16.8-23.3
					c0-15.5,12.7-32,34.9-32s32.3,16.5,32.8,27.5s-12.7,24.9-12.7,24.9s17.2,4.4,17.7,17.7c0.6,13.3-6.6,20.5-14.4,22.7
					c18.3,3.3,30.7,10.7,30.7,24.6C374.9,466.7,356.8,472.8,328.4,475.4"/>
				<path id="パス_119-2_00000167385909445750528980000010920266420697602712_" class="st13" d="M322.5,475.4
					c0,0-40.8,5-40.8-20.5c0-25.5,16.1-26,16.1-26s-20.3-4.4-19.8-20.5c0.5-16,21.7-19.4,21.7-19.4s-14.8-7.8-14.8-23.3
					c0-15.5,11.2-32,30.7-32s28.4,16.5,28.9,27.5s-11.2,24.9-11.2,24.9s15.1,4.4,15.6,17.7c0.5,13.3-5.9,20.5-12.7,22.7
					c16.1,3.3,27.1,10.7,27.1,24.6C363.4,466.7,347.4,472.8,322.5,475.4"/>
			</g>
		</g>
	</g>
	<g id="グループ_56_00000136384146925339753190000010362723350892207758_" transform="translate(600 224.51)">
		<path id="パス_141_00000150814948675628679970000014716120625828126349_" class="st1" d="M731.6,502.3l0.2,28.8l328.5-1.7
			l-0.2-28.8L731.6,502.3z"/>
		<g id="グループ_31_00000020373020946904048330000000283464782793677965_">
			<g>
				<defs>
					<rect id="SVGID_00000057864913875089564290000017239847696317212578_" x="731.6" y="420.5" width="328.7" height="110.6"/>
				</defs>
				<clipPath id="SVGID_00000052075489583663938590000003049376553629052068_">
					<use xlink:href="#SVGID_00000057864913875089564290000017239847696317212578_"  style="overflow:visible;"/>
				</clipPath>
				
					<g id="グループ_30_00000103949571957492605690000000542372086487017886_" style="clip-path:url(#SVGID_00000052075489583663938590000003049376553629052068_);">
					<path id="パス_142_00000017485165725741908080000007611635768563254714_" class="st16" d="M949.8,485.7l-1.7,0
						c-1.8,0-3.3-1.4-3.3-3.2l0-1.7c0-1.8,1.4-3.3,3.2-3.3l1.7,0c1.8,0,3.3,1.4,3.3,3.2l0,1.7C953,484.2,951.6,485.7,949.8,485.7"/>
					<path id="パス_143_00000103239166443330574160000003916977135456425638_" class="st16" d="M795,487.9l-1.7,0
						c-1.8,0-3.3-1.4-3.3-3.2l0-1.7c0-1.8,1.4-3.3,3.2-3.3l1.7,0c1.8,0,3.3,1.4,3.3,3.2l0,1.7C798.3,486.4,796.8,487.9,795,487.9"/>
					<path id="パス_144_00000088120776753161583180000009833686128041999536_" class="st17" d="M933.1,494.7l-122.6,1.7
						c-17.7,0.3-16.9-14.3-17.1-32c-0.2-13.2,9-27.7,32-38c16.5-7.4,74.2-8.3,90.7-1c21.8,9.6,31.2,23.8,31.3,36.8
						C947.6,480,950.8,494.4,933.1,494.7"/>
					<path id="パス_145_00000149359394455686624320000006101439847899152278_" class="st18" d="M833.5,434.3
						c-17.9,4.8-29.9,13-32.7,20.6c0,0-3.3,7.4,1.7,10.7c3.1,2.2,12,0.9,19.6,0.8l11.9-0.2L833.5,434.3z"/>
					<path id="パス_146_00000060718493011661584350000007575510486955529120_" class="st18" d="M907.3,433.2
						c18,4.3,30.3,12.1,33.3,19.6c0,0,3.5,7.3-1.4,10.8c-3.1,2.2-11.9,1.3-19.5,1.4l-11.9,0.2L907.3,433.2z"/>
					<path id="パス_147_00000154384857979866511130000008810674169426112914_" class="st19" d="M907.3,433.2
						c16.2,4.3,27.2,12.2,29.9,19.7c0,0,3.1,7.3-1.2,10.8c-2.8,2.2-10.7,1.3-17.5,1.4l-10.7,0.2L907.3,433.2z"/>
					<path id="パス_148_00000091725704726440504650000007498712679996460431_" class="st18" d="M869,431.1
						c-9.9,0.1-19.7,0.7-29.5,1.9l0.5,33.2l29.6-0.4L869,431.1z"/>
					<path id="パス_149_00000093165778770560429960000013209969353015846846_" class="st19" d="M865.9,431.1
						c-8.8,0.1-17.7,0.7-26.4,1.9l0.5,33.2l26.4-0.4L865.9,431.1z"/>
					<path id="パス_150_00000152954321339248410920000007266148843849948086_" class="st18" d="M875.3,431l0.5,34.7l27.1-0.4
						l-0.5-33C893.4,431.3,884.4,430.9,875.3,431"/>
					<path id="パス_151_00000010996487879472433190000001120902145719439265_" class="st19" d="M875.3,431l0.5,34.7l23.7-0.3
						l-0.5-33.4C891.2,431.1,883.3,430.8,875.3,431"/>
					<path id="パス_152_00000121281413826980736470000012724068718249201805_" class="st18" d="M880.4,495.8L866,496
						c-2.2,0-4-1.7-4.1-4l-0.3-19.8c0-2.2,1.7-4,4-4.1l14.5-0.2c2.2,0,4,1.7,4.1,4l0.3,19.8C884.4,493.9,882.7,495.8,880.4,495.8"/>
					<path id="パス_153_00000021825729100007328090000009591987024799471495_" class="st17" d="M879.4,493.4l-12.3,0.2
						c-1.5,0-2.8-1.2-2.8-2.7c0,0,0,0,0,0l-0.2-17.1c0-1.5,1.2-2.8,2.7-2.8l12.3-0.2c1.5,0,2.8,1.2,2.8,2.7l0.2,17.1
						C882.1,492.1,880.9,493.4,879.4,493.4"/>
					<path id="パス_154_00000104695222362240505980000013270677295953752736_" class="st20" d="M846.5,494.1
						c0.1,9.4-7.4,17.1-16.8,17.2c-9.4,0.1-17.1-7.4-17.2-16.8c-0.1-9.4,7.4-17.1,16.8-17.2C838.7,477.2,846.4,484.7,846.5,494.1
						C846.5,494.1,846.5,494.1,846.5,494.1"/>
					<path id="パス_155_00000176734200385339197500000008686744980935156373_" class="st21" d="M839.6,494.3
						c0.1,5.8-4.5,10.5-10.3,10.6c-5.8,0.1-10.5-4.5-10.6-10.3c-0.1-5.8,4.5-10.5,10.3-10.6c0,0,0,0,0,0
						C834.8,483.9,839.5,488.5,839.6,494.3"/>
					<path id="パス_156_00000132791991619127680210000009148943641448209078_" class="st16" d="M834,494.2c0,2.6-2.1,4.8-4.7,4.9
						c-2.6,0-4.8-2.1-4.9-4.7c0-2.6,2.1-4.8,4.7-4.9C831.7,489.4,833.9,491.5,834,494.2C834,494.2,834,494.2,834,494.2"/>
					<path id="パス_157_00000079484752716377505120000002384652161451990435_" class="st20" d="M931.1,494.7
						c0.1,9.4-7.4,17.1-16.8,17.2c-9.4,0.1-17.1-7.4-17.2-16.8c-0.1-9.4,7.4-17.1,16.8-17.2C923.2,477.8,930.9,485.3,931.1,494.7
						C931.1,494.7,931.1,494.7,931.1,494.7"/>
					<path id="パス_158_00000103237294747053260580000017348791738252439941_" class="st21" d="M924.2,494.9
						c0.1,5.8-4.5,10.5-10.3,10.6c-5.8,0.1-10.5-4.5-10.6-10.3s4.5-10.5,10.3-10.6c0,0,0,0,0,0C919.3,484.5,924.1,489.1,924.2,494.9
						"/>
					<path id="パス_159_00000032621728900369558860000012437499343361500068_" class="st16" d="M918.5,494.8
						c0,2.6-2.1,4.8-4.7,4.9c-2.6,0-4.8-2.1-4.9-4.7c0-2.6,2.1-4.8,4.7-4.9C916.3,490,918.5,492.1,918.5,494.8
						C918.5,494.8,918.5,494.8,918.5,494.8"/>
					<path id="パス_160_00000168081020683164090280000015379822916881076653_" class="st19" d="M830.2,435.2
						c-16.3,4.8-27.3,12-29.8,19.6c0,0-2.5,6.8,1.5,10.7c3.5,3.4,28.7,0.7,28.7,0.7L830.2,435.2z"/>
					<path id="パス_161_00000080921344692933840960000009657911432803727801_" class="st1" d="M815.8,442.6
						c-5.4,2.1-9.8,6.3-12.3,11.6c-0.6,1.3,1.4,1.8,2,0.6c2.2-4.7,6.2-8.5,11-10.3c0.5-0.2,0.8-0.7,0.7-1.3s-0.7-0.8-1.3-0.7
						C815.9,442.6,815.9,442.6,815.8,442.6"/>
					<path id="パス_162_00000003105625797324459470000013898420324534933641_" class="st1" d="M844.8,434.2l-1.8,0.3
						c-0.6,0.1-1,0.7-1,1.3c0.1,0.5,0.5,0.9,1.1,0.8c0,0,0.1,0,0.1,0l1.8-0.3c0.6-0.1,1-0.7,1-1.3c-0.1-0.5-0.5-0.9-1.1-0.8
						C844.9,434.2,844.9,434.2,844.8,434.2"/>
				</g>
			</g>
		</g>
	</g>
	<g id="グループ_55_00000158722701718503296760000015302975399901557422_" transform="translate(542.058 300.618)">
		<g>
			<defs>
				<rect id="SVGID_00000155860919836326739370000005865005474302656135_" x="661" y="513.3" width="92.1" height="83.9"/>
			</defs>
			<clipPath id="SVGID_00000051357775115625469890000009259697312557617819_">
				<use xlink:href="#SVGID_00000155860919836326739370000005865005474302656135_"  style="overflow:visible;"/>
			</clipPath>
			
				<g id="グループ_34_00000029756789995098351200000015913221472263002774_" style="clip-path:url(#SVGID_00000051357775115625469890000009259697312557617819_);">
				<path id="パス_163_00000022519373902627424980000000324384743489261206_" class="st23" d="M704.1,597.2c0,0,4.7-32.6-2.3-45.5
					c-3.7-7.2-8.9-13.5-15.2-18.6v-7c0,0,18.6,9.3,22.1,26.8c3.5,17.5,3.5,31.5,0,44.3L704.1,597.2z"/>
				<path id="パス_164_00000142876953823113950780000018269151083729282238_" class="st24" d="M690.1,527.9
					c0,8-6.5,14.6-14.6,14.6c-8,0-14.6-6.5-14.6-14.6c0-8,6.5-14.6,14.6-14.6c0,0,0,0,0,0C683.6,513.3,690.1,519.8,690.1,527.9"/>
				<path id="パス_165_00000033349160186477911400000002183262088722855826_" class="st23" d="M706.4,554.1c0,0,4.7-22.1,21-15.1
					c4.7-3.5,3.5-4.7,3.5-4.7s-5.8-7-16.3-2.3c-6,2.4-10.4,7.7-11.7,14L706.4,554.1z"/>
				<path id="パス_166_00000029739114298417822500000011860725177431862674_" class="st23" d="M705.3,595.3c0,0,12.6-7.7,5.7-21.7
					c-6.9-14-26.4-10.6-45.5-0.1C685.8,573.5,705.3,595.3,705.3,595.3"/>
				<path id="パス_167_00000100368718931087206540000015088109635101815995_" class="st24" d="M753,544.2c0,8-6.5,14.6-14.6,14.6
					c-8,0-14.6-6.5-14.6-14.6c0-8,6.5-14.6,14.6-14.6S753,536.1,753,544.2L753,544.2"/>
			</g>
		</g>
	</g>
	<g id="グループ_57_00000048489970122314110280000004288217254284368284_" transform="translate(879.838 226.685)">
		<g>
			<defs>
				<rect id="SVGID_00000031194467734382965950000013167418396015037367_" x="1072.8" y="423.1" width="95.8" height="117.1"/>
			</defs>
			<clipPath id="SVGID_00000075129570773927523270000015084004168935393168_">
				<use xlink:href="#SVGID_00000031194467734382965950000013167418396015037367_"  style="overflow:visible;"/>
			</clipPath>
			
				<g id="グループ_36_00000050632366525327952250000004413779507974806453_" style="clip-path:url(#SVGID_00000075129570773927523270000015084004168935393168_);">
				<path id="パス_168_00000025407303107233546040000007051141838960937630_" class="st23" d="M1103.6,540.2
					c-1-0.3-0.9-1.4-1.2-2.4c-2-6.9-6.3-33.6,4.3-50.8c10.8-17.6,29.7-31.6,39.4-27.7c1,0.4,3.2,1.6,3.2,2.5c0,0.8-0.6,1.4-1.4,1.4
					c-0.8,0-1.6-0.2-2.3-0.5c-11-3.6-25.7,9.2-36,25.8c-10.3,16.8-5,41.6-3.7,49.8c0,0.2,0,0.5-0.1,0.7c-0.3,0.7-1,1.2-1.7,1.1
					L1103.6,540.2z"/>
				<path id="パス_169_00000180340297350628279130000009937451454455543460_" class="st23" d="M1117.9,473.8
					c0,0,7.4-13.8,5.5-20.3s-5.5-8.3-4.6-10.1c0.9-1.8,2.8-1.8,4.6,0.9c2.3,3.6,3.6,7.7,3.7,12c0,3.8-0.9,7.4-4.6,14.7
					C1118.9,473.8,1117.9,473.8,1117.9,473.8"/>
				<path id="パス_170_00000079471372419645504890000016289796836513377419_" class="st23" d="M1108.7,488.6
					c0,0,5.5-12.9,15.7-11.1c10.1,1.8,10.1,12,10.1,12.9c-0.8,1.3-1.7,2.6-2.8,3.7c0,0-0.9-12.9-8.3-12.9
					c-7.4,0-17.5,12.9-19.4,19.4C1105.2,496.4,1106.8,492.4,1108.7,488.6"/>
				<path id="パス_171_00000107563315773294425680000018230809815691174832_" class="st23" d="M1104.1,496.9c2-8,0.3-16.4-4.6-23
					c-7.7-10.3-12.3-14.2-25.5-12.5c-0.7,0.1-1.3,0.8-1.2,1.5c0,0.3,0.2,0.6,0.5,0.9c10.1,8.3,13.5,14.7,16.9,26.7
					c3.7,12.9,12,47,12,47s-1.8-23-0.9-29.5C1101.9,504.2,1102.8,500.4,1104.1,496.9"/>
				<path id="パス_172_00000039124110332406887540000016308769631109300656_" class="st24" d="M1128.1,434.7
					c0,6.4-5.2,11.5-11.5,11.5s-11.5-5.2-11.5-11.5c0-6.4,5.2-11.5,11.5-11.5C1122.9,423.1,1128.1,428.3,1128.1,434.7
					C1128.1,434.7,1128.1,434.7,1128.1,434.7"/>
				<path id="パス_173_00000034773642556979071350000001054885163323423649_" class="st24" d="M1168.6,466
					c0,6.4-5.2,11.5-11.5,11.5s-11.5-5.2-11.5-11.5s5.2-11.5,11.5-11.5l0,0C1163.5,454.5,1168.6,459.6,1168.6,466L1168.6,466"/>
				<path id="パス_174_00000054232790516110498810000007157162905060241573_" class="st24" d="M1147.4,499.2
					c0,6.4-5.2,11.5-11.5,11.5c-6.4,0-11.5-5.2-11.5-11.5s5.2-11.5,11.5-11.5C1142.3,487.7,1147.4,492.8,1147.4,499.2L1147.4,499.2"
					/>
			</g>
		</g>
	</g>
	<g id="グループ_52_00000142155383884320344120000001625838629113914015_" transform="translate(1091.559 285.375)">
		<g>
			<defs>
				<rect id="SVGID_00000136383553928877146430000018333292656418553476_" x="1331" y="494.7" width="128.9" height="133.4"/>
			</defs>
			<clipPath id="SVGID_00000121264278094491939430000009155797435034933429_">
				<use xlink:href="#SVGID_00000136383553928877146430000018333292656418553476_"  style="overflow:visible;"/>
			</clipPath>
			
				<g id="グループ_38_00000054945574862324738100000016583847329115468175_" style="clip-path:url(#SVGID_00000121264278094491939430000009155797435034933429_);">
				<path id="パス_175_00000119109970239374839440000003105895651554305965_" class="st18" d="M1445.1,628.1h-95.7
					c-1.4,0-2.6-1.2-2.6-2.6V524.9c0-1.4,1.2-2.6,2.6-2.6h95.7c1.4,0,2.6,1.2,2.6,2.6v100.5C1447.7,626.9,1446.5,628.1,1445.1,628.1
					"/>
				<path id="パス_176_00000177454718931692530070000012303225336931159425_" class="st19" d="M1437.8,628.1h-88.4
					c-1.4,0-2.6-1.2-2.6-2.6V524.9c0-1.4,1.2-2.6,2.6-2.6h88.4c1.4,0,2.6,1.2,2.6,2.6v100.5C1440.4,626.9,1439.3,628.1,1437.8,628.1
					"/>
				<path id="パス_177_00000121979524227799272430000004469233564947688638_" class="st24" d="M1333.3,531.3c-1.3,0-2.3-1-2.3-2.3
					c0-0.5,0.2-1,0.5-1.4c6.4-7.8,29.3-24.2,33.5-24.2h60.8c4.2,0,27.1,16.4,33.5,24.2c0.8,1,0.6,2.4-0.4,3.2
					c-0.4,0.3-0.9,0.5-1.4,0.5L1333.3,531.3z"/>
				<path id="パス_178_00000006688752256180374700000009656156998417503628_" class="st27" d="M1333.2,531.3
					c-1.3-0.1-2.2-1.1-2.2-2.4c0-0.5,0.2-0.9,0.5-1.3c6.1-7.8,27.7-24.2,31.7-24.2h55.3c4,0,27.7,16.4,33.8,24.2
					c0.8,1,0.6,2.4-0.4,3.2c-0.4,0.3-0.8,0.5-1.3,0.5L1333.2,531.3z"/>
				<path id="パス_179_00000044889418282835836750000014670087380782707587_" class="st28" d="M1374.6,571.7l-18.8-0.1
					c-0.8,0-1.5-0.7-1.5-1.5l0.1-27.1c0-0.8,0.7-1.5,1.5-1.5l18.8,0.1c0.8,0,1.5,0.7,1.5,1.5l-0.1,27.1
					C1376.1,571,1375.4,571.7,1374.6,571.7"/>
				<path id="パス_180_00000026883207286597762330000003964020984074905733_" class="st16" d="M1370.5,571.7l-14.6-0.1
					c-0.8,0-1.5-0.7-1.5-1.5l0.1-27.1c0-0.8,0.7-1.5,1.5-1.5l14.6,0.1c0.8,0,1.5,0.7,1.5,1.5l-0.1,27.1
					C1372,571,1371.3,571.7,1370.5,571.7"/>
				<path id="パス_181_00000063606813296306777550000005613190045698223520_" class="st28" d="M1388.3,571.8l-7.1,0
					c-0.8,0-1.5-0.7-1.5-1.5l0.1-27.1c0-0.8,0.7-1.5,1.5-1.5l7.1,0c0.8,0,1.5,0.7,1.5,1.5l-0.1,27.1
					C1389.8,571.1,1389.2,571.8,1388.3,571.8"/>
				<path id="パス_182_00000049203650701124793140000003374458097349414018_" class="st16" d="M1384.5,571.7l-3.3,0
					c-0.8,0-1.5-0.7-1.5-1.5l0.1-27.1c0-0.8,0.7-1.5,1.5-1.5l3.3,0c0.8,0,1.5,0.7,1.5,1.5l-0.1,27.1
					C1386,571.1,1385.3,571.7,1384.5,571.7"/>
				<path id="パス_183_00000003825861021372090200000005950901986078102698_" class="st28" d="M1418.3,571.6l-18.8-0.1
					c-0.8,0-1.5-0.7-1.5-1.5l0.1-27.1c0-0.8,0.7-1.5,1.5-1.5c0,0,0,0,0,0l18.8,0.1c0.8,0,1.5,0.7,1.5,1.5l-0.1,27.1
					C1419.8,571,1419.2,571.7,1418.3,571.6"/>
				<path id="パス_184_00000020388563107639533950000011097288756840313783_" class="st16" d="M1414.2,571.6l-14.6-0.1
					c-0.8,0-1.5-0.7-1.5-1.5l0.1-27.1c0-0.8,0.7-1.5,1.5-1.5l14.6,0.1c0.8,0,1.5,0.7,1.5,1.5l-0.1,27.1
					C1415.7,571,1415,571.6,1414.2,571.6"/>
				<path id="パス_185_00000085217928583209179550000006294679780908644782_" class="st28" d="M1432.1,571.7l-7.1,0
					c-0.8,0-1.5-0.7-1.5-1.5l0.1-27.1c0-0.8,0.7-1.5,1.5-1.5l7.1,0c0.8,0,1.5,0.7,1.5,1.5l-0.1,27.1
					C1433.6,571,1432.9,571.7,1432.1,571.7"/>
				<path id="パス_186_00000021807739532662887010000011746256364176415932_" class="st16" d="M1428.2,571.7l-3.3,0
					c-0.8,0-1.5-0.7-1.5-1.5l0.1-27.1c0-0.8,0.7-1.5,1.5-1.5l3.3,0c0.8,0,1.5,0.7,1.5,1.5l-0.1,27.1
					C1429.7,571,1429.1,571.7,1428.2,571.7"/>
				<path id="パス_187_00000101809053454587905640000011151628820670645433_" class="st28" d="M1375.1,613.1l-18.8-0.1
					c-0.8,0-1.5-0.7-1.5-1.5c0,0,0,0,0,0l0.1-27.1c0-0.8,0.7-1.5,1.5-1.5l18.8,0.1c0.8,0,1.5,0.7,1.5,1.5l-0.1,27.1
					C1376.6,612.4,1376,613.1,1375.1,613.1"/>
				<path id="パス_188_00000090272343346871352700000000748993696787462078_" class="st16" d="M1371,613.1l-14.6-0.1
					c-0.8,0-1.5-0.7-1.5-1.5l0.1-27.1c0-0.8,0.7-1.5,1.5-1.5l14.6,0.1c0.8,0,1.5,0.7,1.5,1.5l-0.1,27.1
					C1372.5,612.4,1371.8,613.1,1371,613.1"/>
				<path id="パス_189_00000047764411158079851210000002930063435720371868_" class="st28" d="M1388.9,613.1l-7.1,0
					c-0.8,0-1.5-0.7-1.5-1.5l0.1-27.1c0-0.8,0.7-1.5,1.5-1.5l7.1,0c0.8,0,1.5,0.7,1.5,1.5l-0.1,27.1
					C1390.4,612.5,1389.7,613.1,1388.9,613.1"/>
				<path id="パス_190_00000166666456789906191490000001322111901567950226_" class="st16" d="M1385.1,613.1l-3.3,0
					c-0.8,0-1.5-0.7-1.5-1.5l0.1-27.1c0-0.8,0.7-1.5,1.5-1.5l3.3,0c0.8,0,1.5,0.7,1.5,1.5l-0.1,27.1
					C1386.5,612.5,1385.9,613.1,1385.1,613.1"/>
				<path id="パス_191_00000128447743729624900310000006674213955259149199_" class="st28" d="M1418.9,613l-18.8-0.1
					c-0.8,0-1.5-0.7-1.5-1.5l0.1-27.1c0-0.8,0.7-1.5,1.5-1.5l0,0l18.8,0.1c0.8,0,1.5,0.7,1.5,1.5l-0.1,27.1
					C1420.4,612.4,1419.7,613,1418.9,613"/>
				<path id="パス_192_00000135684857206439255780000004237204607469903797_" class="st16" d="M1414.7,613l-14.6-0.1
					c-0.8,0-1.5-0.7-1.5-1.5l0.1-27.1c0-0.8,0.7-1.5,1.5-1.5l14.6,0.1c0.8,0,1.5,0.7,1.5,1.5l-0.1,27.1
					C1416.2,612.4,1415.5,613,1414.7,613L1414.7,613"/>
				<path id="パス_193_00000057138179460140744690000003765056757566082192_" class="st28" d="M1432.6,613.1l-7.1,0
					c-0.8,0-1.5-0.7-1.5-1.5l0.1-27.1c0-0.8,0.7-1.5,1.5-1.5l7.1,0c0.8,0,1.5,0.7,1.5,1.5l-0.1,27.1
					C1434.1,612.4,1433.4,613.1,1432.6,613.1"/>
				<path id="パス_194_00000124144309172153305370000018046098665823539597_" class="st16" d="M1428.8,613.1l-3.3,0
					c-0.8,0-1.5-0.7-1.5-1.5l0.1-27.1c0-0.8,0.7-1.5,1.5-1.5l3.3,0c0.8,0,1.5,0.7,1.5,1.5l-0.1,27.1
					C1430.3,612.4,1429.6,613.1,1428.8,613.1"/>
				<path id="パス_195_00000033327085918922806210000016397105045869270674_" class="st24" d="M1369.4,512.1h-0.5
					c-2,0-3.6,0.2-3.6-1.8v-13.8c0-2,1.6-1.8,3.6-1.8h0.5c2,0,3.6-0.2,3.6,1.8v13.8C1372.9,512.2,1371.3,512.1,1369.4,512.1"/>
				<path id="パス_196_00000166663293342432742800000013592269721926073785_" class="st27" d="M1390.6,577.6h-36.2
					c-0.7,0-1.3-0.6-1.3-1.3v-0.9c0-0.7,0.6-1.3,1.3-1.3h36.2c0.7,0,1.3,0.6,1.3,1.3v0.9C1391.9,577.1,1391.3,577.6,1390.6,577.6"/>
				<path id="パス_197_00000170278539458644799100000004427464237841563555_" class="st27" d="M1434.7,577.6h-36.2
					c-0.7,0-1.3-0.6-1.3-1.3v-0.9c0-0.7,0.6-1.3,1.3-1.3h36.2c0.7,0,1.3,0.6,1.3,1.3v0.9C1435.9,577.1,1435.4,577.6,1434.7,577.6"/>
				<path id="パス_198_00000170276428160225645990000011782932097154028684_" class="st27" d="M1391.5,620.2h-36.2
					c-0.7,0-1.3-0.6-1.3-1.3V618c0-0.7,0.6-1.3,1.3-1.3h36.2c0.7,0,1.3,0.6,1.3,1.3v0.9C1392.8,619.7,1392.2,620.2,1391.5,620.2"/>
				<path id="パス_199_00000020379006166812740680000007009937102203781764_" class="st27" d="M1435.6,620.2h-36.2
					c-0.7,0-1.3-0.6-1.3-1.3V618c0-0.7,0.6-1.3,1.3-1.3h36.2c0.7,0,1.3,0.6,1.3,1.3v0.9C1436.8,619.7,1436.2,620.2,1435.6,620.2"/>
				<path id="パス_200_00000057850414145462698450000001341632093765611664_" class="st19" d="M1349.6,519.9l-8.1,7.3
					c-0.5,0.4-1.3,0.4-1.8-0.1c-0.4-0.5-0.4-1.3,0.1-1.7l8.1-7.3c0.5-0.4,1.3-0.4,1.8,0.1C1350.1,518.7,1350.1,519.4,1349.6,519.9"
					/>
				<path id="パス_201_00000070080529859457266770000000133258963321795261_" class="st19" d="M1361,509.5l-8.1,7.3
					c-0.5,0.5-1.3,0.5-1.8,0c-0.5-0.5-0.5-1.3,0-1.8c0,0,0,0,0.1,0l8.1-7.3c0.5-0.5,1.3-0.5,1.8,0S1361.6,509,1361,509.5
					C1361.1,509.5,1361.1,509.5,1361,509.5"/>
				<path id="パス_202_00000000185278472042909560000000671228130857718187_" class="st19" d="M1357.9,518.2l-8.1,7.3
					c-0.5,0.5-1.3,0.5-1.8,0c-0.5-0.5-0.5-1.3,0-1.8c0,0,0,0,0.1,0l8.1-7.3c0.5-0.5,1.3-0.4,1.8,0.1l0,0
					C1358.4,516.9,1358.4,517.7,1357.9,518.2"/>
			</g>
		</g>
	</g>
	<g>
		<path d="M237.9,406.5h10.3v7h-29.7v-7h10.8v-39.2c-2.7,1.9-6.2,3.6-10.2,4.9l-1.4-7.6c4.8-1.4,9-3.7,12.8-6.5h7.3V406.5z"/>
	</g>
	<g>
		<path d="M743.6,637.1c1.2-9.9,7.9-15.2,16.9-15.2c9.9,0,16.4,5.3,16.4,14.8c0,6.1-2.7,10.7-11.1,18.6
			c-7.6,6.8-11.2,10.8-13.4,15.3h24.7v7.2h-34.1v-6.4c3.2-6.8,7.8-12.8,15.7-20.4c7.2-6.9,8.8-9.8,8.8-14.3c0-4.8-2.8-7.6-7.2-7.6
			c-4.5,0-7.3,3.4-7.8,9.9L743.6,637.1z"/>
	</g>
	<g>
		<path d="M1103,502.1c2.1-7.8,8.3-11.9,16.6-11.9c10,0,16.5,5.8,16.5,13.8c0,6.5-3.9,11.2-10.5,12.4v0.5
			c7.4,1.6,11.6,6.6,11.6,13.8c0,9.7-7.1,16.3-17.6,16.3c-9.1,0-15-3.7-17.5-12.2l8.9-2.6c1.2,5.5,3.8,7.8,8.6,7.8
			c5.2,0,8.4-3.5,8.4-9.3c0-6.3-3-9.9-10.7-9.9h-4.2v-7.3h3.8c7.2,0,10.1-3.1,10.1-8.6c0-5-3-7.7-7.6-7.7c-3.8,0-6.9,2.4-7.6,7.6
			L1103,502.1z"/>
	</g>
	<g>
		<path d="M1484,1008.9h6.8v6.8h-6.8v12.5h-8.3v-12.5h-21v-6.3l17.9-36.5h11.4V1008.9z M1475.8,996.9c0-5.8,0.2-11.3,0.4-16.8h-1
			c-1.8,4.8-3.9,9.6-6.1,14.4l-6.8,14.5h13.5V996.9z"/>
	</g>
	<g>
		<path d="M2192.8,901.3h-21.7l-0.4,11.1c-0.1,1.7-0.2,3.6-0.4,5.2c1.9-2.9,5.3-4.8,9.4-4.8c9.1,0,15.5,7.1,15.5,18
			c0,11.6-7.2,19.2-17.6,19.2c-8.6,0-14.8-3.9-16.7-12l8.8-2.7c1,5.3,3.8,7.6,7.8,7.6c5.2,0,8.4-4.5,8.4-12.1c0-7.1-3-11.2-8-11.2
			c-3.7,0-6.6,2.2-7.8,6.2l-7.5-1.1l1.1-30.8h29.1V901.3z"/>
	</g>
</g>
</svg>
