<svg xmlns="http://www.w3.org/2000/svg" width="1091" height="410.126" viewBox="0 0 1091 410.126">
  <g id="グループ_82" data-name="グループ 82" transform="translate(-132 -703.874)">
    <path id="パス_208" data-name="パス 208" d="M638.881,59.3a38.051,38.051,0,0,1,12.208,2.078,40.731,40.731,0,0,1,11.83,6.221.626.626,0,0,1,.115.115L679.977,89.06a.525.525,0,0,0,.513.181.514.514,0,0,0,.39-.382c2.608-11.132,2.55-20.95-.172-29.179a20.491,20.491,0,0,0-17.752-13.916c-1.667-.148-3.268-.386-4.817-.62s-3.026-.452-4.319-.538a.724.724,0,0,1-.534-1.142,36.307,36.307,0,0,1,6.2-6.476.629.629,0,0,1,.169-.1l11.456-4.858a.506.506,0,0,0,.288-.32.521.521,0,0,0-.054-.427,8.361,8.361,0,0,0-8.381-3.794l-6.824,1.075a.684.684,0,0,1-.247,0c-.911-.168-4.508-.64-12.479.5a24.259,24.259,0,0,0-6.656,2.2.717.717,0,0,1-.985-.407,42.017,42.017,0,0,1-2.164-9.4,19.249,19.249,0,0,0-12.451-15.99c-19.094-7.063-35.014-5.983-45.005-3.835C565.288,3.953,559.075,7.9,558.817,8.064a.512.512,0,0,0,.008.87l23.517,14.36a8.281,8.281,0,0,0,3.318,1.154.186.186,0,0,1,.045.008l18.884,3.33a.823.823,0,0,1,.2.066c5.383,2.718,6.422,7.588,7.518,12.746a46.88,46.88,0,0,0,1.877,6.985.72.72,0,0,1-.165.759,49.784,49.784,0,0,0-4.549,5.018c-6.928,9.194-17.982,11.506-22.412,12.073a1.648,1.648,0,0,0-1.24,2.422c3.991,7.3,12.162,14.34,16.265,15.3a2.212,2.212,0,0,0,1.8-.172c.957-.669,2.48-2.916,4.9-6.529,2.731-4.086,6.126-9.173,8.212-10.4.9-.526,3.248-1.639,6.226-3.047l2.151-1.018a.135.135,0,0,1,.037-.017A35.772,35.772,0,0,1,638.881,59.3" transform="translate(540.207 703.874)" fill="#73bcf2"/>
    <path id="パス_209" data-name="パス 209" d="M638.881,59.3a38.051,38.051,0,0,1,12.208,2.078,40.731,40.731,0,0,1,11.83,6.221.626.626,0,0,1,.115.115L679.977,89.06a.525.525,0,0,0,.513.181.514.514,0,0,0,.39-.382c2.608-11.132,2.55-20.95-.172-29.179a20.491,20.491,0,0,0-17.752-13.916c-1.667-.148-3.268-.386-4.817-.62s-3.026-.452-4.319-.538a.724.724,0,0,1-.534-1.142,36.307,36.307,0,0,1,6.2-6.476.629.629,0,0,1,.169-.1l11.456-4.858a.506.506,0,0,0,.288-.32.521.521,0,0,0-.054-.427,8.361,8.361,0,0,0-8.381-3.794l-6.824,1.075a.684.684,0,0,1-.247,0c-.911-.168-4.508-.64-12.479.5a24.259,24.259,0,0,0-6.656,2.2.717.717,0,0,1-.985-.407,42.017,42.017,0,0,1-2.164-9.4,19.249,19.249,0,0,0-12.451-15.99c-19.094-7.063-35.014-5.983-45.005-3.835C565.288,3.953,559.075,7.9,558.817,8.064a.512.512,0,0,0,.008.87l23.517,14.36a8.281,8.281,0,0,0,3.318,1.154.186.186,0,0,1,.045.008l18.884,3.33a.823.823,0,0,1,.2.066c5.383,2.718,6.422,7.588,7.518,12.746a46.88,46.88,0,0,0,1.877,6.985.72.72,0,0,1-.165.759,49.784,49.784,0,0,0-4.549,5.018c-6.928,9.194-17.982,11.506-22.412,12.073a1.648,1.648,0,0,0-1.24,2.422c3.991,7.3,12.162,14.34,16.265,15.3a2.212,2.212,0,0,0,1.8-.172c.957-.669,2.48-2.916,4.9-6.529,2.731-4.086,6.126-9.173,8.212-10.4.9-.526,3.248-1.639,6.226-3.047l2.151-1.018a.135.135,0,0,1,.037-.017A35.772,35.772,0,0,1,638.881,59.3" transform="translate(419.207 862.374)" fill="#f29600"/>
    <path id="パス_211" data-name="パス 211" d="M43.912,59.3a35.768,35.768,0,0,1,13.477,2.669.134.134,0,0,1,.037.017l2.151,1.018c2.978,1.408,5.331,2.521,6.226,3.047,2.086,1.228,5.482,6.315,8.213,10.4,2.414,3.613,3.937,5.86,4.894,6.529a2.216,2.216,0,0,0,1.8.172c4.1-.96,12.272-8,16.265-15.3a1.65,1.65,0,0,0-1.241-2.422c-4.431-.567-15.485-2.879-22.412-12.073a49.919,49.919,0,0,0-4.55-5.018.72.72,0,0,1-.165-.759A46.881,46.881,0,0,0,70.488,40.6c1.1-5.158,2.135-10.028,7.519-12.746a.8.8,0,0,1,.2-.066l18.885-3.33a.178.178,0,0,1,.045-.008,8.276,8.276,0,0,0,3.317-1.154l23.517-14.36a.519.519,0,0,0,.247-.431.512.512,0,0,0-.238-.439c-.259-.164-6.471-4.111-17.336-6.447C96.649-.531,80.729-1.611,61.635,5.452a19.249,19.249,0,0,0-12.451,15.99,42.074,42.074,0,0,1-2.163,9.4.73.73,0,0,1-.4.423.722.722,0,0,1-.583-.016,24.249,24.249,0,0,0-6.656-2.2c-7.971-1.137-11.568-.665-12.479-.5a.684.684,0,0,1-.247,0l-6.824-1.075a8.362,8.362,0,0,0-8.381,3.794.521.521,0,0,0-.054.427.509.509,0,0,0,.288.32l11.456,4.858a.63.63,0,0,1,.169.1,36.308,36.308,0,0,1,6.2,6.476.724.724,0,0,1-.534,1.142c-1.293.086-2.755.3-4.319.538-1.549.234-3.15.472-4.817.62A20.491,20.491,0,0,0,2.085,59.68C-.637,67.909-.694,77.727,1.913,88.859a.515.515,0,0,0,.39.382.525.525,0,0,0,.513-.181L19.759,67.716a.626.626,0,0,1,.115-.115A40.731,40.731,0,0,1,31.7,61.38,38.051,38.051,0,0,1,43.912,59.3" transform="translate(132 889.748)" fill="#f29600"/>
    <path id="パス_210" data-name="パス 210" d="M43.912,59.3a35.768,35.768,0,0,1,13.477,2.669.134.134,0,0,1,.037.017l2.151,1.018c2.978,1.408,5.331,2.521,6.226,3.047,2.086,1.228,5.482,6.315,8.213,10.4,2.414,3.613,3.937,5.86,4.894,6.529a2.216,2.216,0,0,0,1.8.172c4.1-.96,12.272-8,16.265-15.3a1.65,1.65,0,0,0-1.241-2.422c-4.431-.567-15.485-2.879-22.412-12.073a49.919,49.919,0,0,0-4.55-5.018.72.72,0,0,1-.165-.759A46.881,46.881,0,0,0,70.488,40.6c1.1-5.158,2.135-10.028,7.519-12.746a.8.8,0,0,1,.2-.066l18.885-3.33a.178.178,0,0,1,.045-.008,8.276,8.276,0,0,0,3.317-1.154l23.517-14.36a.519.519,0,0,0,.247-.431.512.512,0,0,0-.238-.439c-.259-.164-6.471-4.111-17.336-6.447C96.649-.531,80.729-1.611,61.635,5.452a19.249,19.249,0,0,0-12.451,15.99,42.074,42.074,0,0,1-2.163,9.4.73.73,0,0,1-.4.423.722.722,0,0,1-.583-.016,24.249,24.249,0,0,0-6.656-2.2c-7.971-1.137-11.568-.665-12.479-.5a.684.684,0,0,1-.247,0l-6.824-1.075a8.362,8.362,0,0,0-8.381,3.794.521.521,0,0,0-.054.427.509.509,0,0,0,.288.32l11.456,4.858a.63.63,0,0,1,.169.1,36.308,36.308,0,0,1,6.2,6.476.724.724,0,0,1-.534,1.142c-1.293.086-2.755.3-4.319.538-1.549.234-3.15.472-4.817.62A20.491,20.491,0,0,0,2.085,59.68C-.637,67.909-.694,77.727,1.913,88.859a.515.515,0,0,0,.39.382.525.525,0,0,0,.513-.181L19.759,67.716a.626.626,0,0,1,.115-.115A40.731,40.731,0,0,1,31.7,61.38,38.051,38.051,0,0,1,43.912,59.3" transform="translate(300.785 1024.748)" fill="#73bcf2"/>
  </g>
</svg>
