<svg xmlns="http://www.w3.org/2000/svg" width="190" height="25.485" viewBox="0 0 190 25.485">
  <path id="パス_1" data-name="パス 1" d="M3.158-21.033H9.115q4.852,0,7.318,2.79,2.237,2.534,2.237,7.17,0,5.283-3.113,7.951A10.032,10.032,0,0,1,8.765-.911H3.158Zm1.819,1.55V-2.461H8.711A7.706,7.706,0,0,0,14.8-4.806a9.123,9.123,0,0,0,1.941-6.24q0-8.437-7.79-8.437Zm24.663,4.434-.135,1.712a3.743,3.743,0,0,0-2.7,1.253A7.314,7.314,0,0,0,25.058-9V-.911H23.374v-13.8H25v3.585a6.834,6.834,0,0,1,2.183-3.086A4.047,4.047,0,0,1,29.641-15.049Zm13.518.337L37.943-.2a7.244,7.244,0,0,1-2.183,3.464,4.339,4.339,0,0,1-2.709.822,6.5,6.5,0,0,1-1.24-.108l-.135-1.5a6.477,6.477,0,0,0,1.375.162,2.741,2.741,0,0,0,2.062-.822A6.479,6.479,0,0,0,36.42-.494l.256-.66L31.757-14.712H33.6l2.992,8.895q.27.822.822,2.776h.135q.2-.58.5-1.536t.418-1.307l2.925-8.827Zm24.42-6.321v1.577H57.04v7.089h7.951v1.577H57.04V-.911H55.22V-21.033ZM73.36-21.4V-.911H71.649V-21.4Zm10.512,6.348a5.2,5.2,0,0,1,4.394,2.183,8.148,8.148,0,0,1,1.456,5,7.852,7.852,0,0,1-1.873,5.553,5.194,5.194,0,0,1-4,1.739,5.184,5.184,0,0,1-4.42-2.21,8.221,8.221,0,0,1-1.429-5,7.838,7.838,0,0,1,1.86-5.539A5.228,5.228,0,0,1,83.872-15.049Zm0,1.4a3.5,3.5,0,0,0-3.14,1.725,7.525,7.525,0,0,0-.97,4.084A7.154,7.154,0,0,0,81-3.31a3.476,3.476,0,0,0,2.844,1.334,3.514,3.514,0,0,0,3.14-1.739,7.654,7.654,0,0,0,.97-4.124,7.021,7.021,0,0,0-1.24-4.474A3.476,3.476,0,0,0,83.872-13.647Zm28.086-1.065-4.178,13.8h-2.116l-2.318-8.531q-.445-1.631-.916-3.895h-.31q-.58,2.776-.876,3.895L98.926-.911H96.8l-4.111-13.8h1.846L96.8-6.127q.526,2.049.943,3.868h.3q.863-3.733.889-3.841l2.291-8.612h2.21l2.291,8.5q.3,1.105.876,3.949h.31q.472-2.2.957-3.922l2.345-8.531Zm14.636,7.035H116.581a6.462,6.462,0,0,0,1.4,4.461,3.858,3.858,0,0,0,2.992,1.294,3.792,3.792,0,0,0,3.908-2.965l1.6.606a5.429,5.429,0,0,1-5.539,3.706,5.43,5.43,0,0,1-4.569-2.2A8.03,8.03,0,0,1,114.9-7.785a7.794,7.794,0,0,1,1.9-5.539,5.239,5.239,0,0,1,4-1.725,5.2,5.2,0,0,1,4.353,2.116,7.7,7.7,0,0,1,1.442,4.811Zm-1.712-1.294a5.668,5.668,0,0,0-1.4-3.639,3.547,3.547,0,0,0-2.655-1.065,3.691,3.691,0,0,0-3.019,1.442,5.679,5.679,0,0,0-1.173,3.261Zm12.574-6.078-.135,1.712a3.743,3.743,0,0,0-2.7,1.253A7.314,7.314,0,0,0,132.875-9V-.911h-1.685v-13.8h1.631v3.585A6.834,6.834,0,0,1,135-14.213,4.047,4.047,0,0,1,137.457-15.049Zm13.814-5.984V-2.488h10.243V-.911H149.452V-21.033ZM167.3-14.712v13.8h-1.712v-13.8Zm.4-5.553v2.574h-2.534v-2.574Zm11.321-1.011-.243,1.4a6.316,6.316,0,0,0-1.267-.121,2.1,2.1,0,0,0-1.712.62,2.624,2.624,0,0,0-.445,1.685v2.978h3.261v1.375h-3.261V-.911h-1.712V-13.337h-2.561v-1.375h2.561v-3.032q0-3.652,3.666-3.652A16.48,16.48,0,0,1,179.021-21.275Zm14.137,13.6H183.145a6.462,6.462,0,0,0,1.4,4.461,3.858,3.858,0,0,0,2.992,1.294,3.792,3.792,0,0,0,3.908-2.965l1.6.606a5.429,5.429,0,0,1-5.539,3.706,5.43,5.43,0,0,1-4.569-2.2,8.03,8.03,0,0,1-1.482-5.013,7.794,7.794,0,0,1,1.9-5.539,5.239,5.239,0,0,1,4-1.725,5.2,5.2,0,0,1,4.353,2.116,7.7,7.7,0,0,1,1.442,4.811Zm-1.712-1.294a5.668,5.668,0,0,0-1.4-3.639,3.547,3.547,0,0,0-2.655-1.065,3.691,3.691,0,0,0-3.019,1.442A5.679,5.679,0,0,0,183.2-8.971Z" transform="translate(-3.158 21.396)" fill="#707070"/>
</svg>
