<svg xmlns="http://www.w3.org/2000/svg" width="152.326" height="41.509" viewBox="0 0 152.326 41.509">
  <g id="グループ_5" data-name="グループ 5" transform="translate(-51.674 -19.916)">
    <path id="パス_25" data-name="パス 25" d="M-44.034-4.628a7.934,7.934,0,0,0,2.589-.351,2.5,2.5,0,0,0,1.887-2.5,1.846,1.846,0,0,0-.936-1.653,10.068,10.068,0,0,0-2.94-1.009l-2.282-.512a14.421,14.421,0,0,1-4.652-1.653,5.258,5.258,0,0,1-2.18-4.666,6.231,6.231,0,0,1,2.106-4.813q2.106-1.916,6.188-1.916A9.408,9.408,0,0,1-38.438-21.9a6.45,6.45,0,0,1,2.523,5.244h-4.33a3.093,3.093,0,0,0-1.7-2.765,5.691,5.691,0,0,0-2.618-.541,4.889,4.889,0,0,0-2.779.7,2.236,2.236,0,0,0-1.039,1.96,1.855,1.855,0,0,0,1.024,1.726,12.535,12.535,0,0,0,2.809.892l3.716.892a9.606,9.606,0,0,1,3.686,1.565,5.272,5.272,0,0,1,1.931,4.4,6.214,6.214,0,0,1-2.26,4.908A9.469,9.469,0,0,1-43.858-.956,10.357,10.357,0,0,1-50.485-2.88,6.392,6.392,0,0,1-52.9-8.168h4.3a4.428,4.428,0,0,0,.8,2.209A4.629,4.629,0,0,0-44.034-4.628ZM-16.21-23.074v3.818h-6.451V-1.512H-27.2V-19.256h-6.48v-3.818ZM-.821-9.821V-23.074H3.758V-9.821A11.1,11.1,0,0,1,2.69-4.467Q.7-.956-4.9-.956t-7.607-3.511a11.1,11.1,0,0,1-1.068-5.354V-23.074H-9V-9.821a7.484,7.484,0,0,0,.527,3.248Q-7.653-4.759-4.9-4.759t3.555-1.814A7.484,7.484,0,0,0-.821-9.821ZM17.347-1.512H8.058V-23.074h9.289a11.333,11.333,0,0,1,3.335.468,7.118,7.118,0,0,1,3.672,2.736,9.6,9.6,0,0,1,1.536,3.482,16.713,16.713,0,0,1,.41,3.569,14.332,14.332,0,0,1-1.726,7.285A7.789,7.789,0,0,1,17.347-1.512ZM20.7-17.574q-1.039-1.755-4.111-1.755H12.432V-5.257h4.154A4.487,4.487,0,0,0,21.034-8.4a11.093,11.093,0,0,0,.688-4.111A10.224,10.224,0,0,0,20.7-17.574Zm26.4-5.5L39.89-9.616v8.1H35.384v-8.1L27.924-23.074h5.31l4.476,9.391L42-23.074Z" transform="translate(156.898 53)"/>
    <g id="グループ_1" data-name="グループ 1" transform="translate(-52.557 -95.558)">
      <rect id="長方形_1" data-name="長方形 1" width="15.751" height="15.751" transform="matrix(0.927, 0.375, -0.375, 0.927, 121.58, 115.474)" fill="red" opacity="0.701"/>
      <rect id="長方形_2" data-name="長方形 2" width="15.751" height="15.751" transform="translate(145.208 156.578) rotate(-175)" fill="#ff0" opacity="0.701"/>
      <rect id="長方形_3" data-name="長方形 3" width="15.751" height="15.751" transform="translate(104.231 142.709) rotate(-25)" fill="blue" opacity="0.701"/>
    </g>
  </g>
</svg>
