<svg xmlns="http://www.w3.org/2000/svg" width="124.75" height="80" viewBox="0 0 124.75 80">
  <g id="グループ_22" data-name="グループ 22" transform="translate(-517.25 -3425)">
    <path id="楕円形_17" data-name="楕円形 17" d="M40,1A39.011,39.011,0,0,0,24.82,75.936,39.01,39.01,0,0,0,55.18,4.064,38.755,38.755,0,0,0,40,1m0-1A40,40,0,1,1,0,40,40,40,0,0,1,40,0Z" transform="translate(562 3425)" fill="#fff"/>
    <g id="グループ_5" data-name="グループ 5" transform="translate(7 298.821)">
      <path id="線_27" data-name="線 27" d="M60,.5H0v-1H60Z" transform="translate(510.25 3169.25)" fill="#fff"/>
      <path id="線_28" data-name="線 28" d="M10,.5H0v-1H10Z" transform="translate(563.179 3162.179) rotate(45)" fill="#fff"/>
    </g>
  </g>
</svg>
